<mxfile host="Electron" agent="Mozilla/5.0 (Macintosh; Intel Mac OS X 10_15_7) AppleWebKit/537.36 (KHTML, like Gecko) draw.io/27.0.5 Chrome/134.0.6998.205 Electron/35.3.0 Safari/537.36" version="27.0.5">
  <diagram name="Page-1" id="tdrnDVWxb3HyP-kjfl1l">
    <mxGraphModel dx="901" dy="730" grid="1" gridSize="10" guides="1" tooltips="1" connect="1" arrows="1" fold="1" page="1" pageScale="2" pageWidth="850" pageHeight="1100" math="0" shadow="0">
      <root>
        <mxCell id="0" />
        <mxCell id="1" parent="0" />
        <mxCell id="4WsjM8u0ppjrJzp-7UYq-1" value="" style="rounded=0;whiteSpace=wrap;html=1;fillColor=none;dashed=1;dashPattern=8 8;" vertex="1" parent="1">
          <mxGeometry x="20" y="50" width="130" height="570" as="geometry" />
        </mxCell>
        <mxCell id="4WsjM8u0ppjrJzp-7UYq-2" value="" style="rounded=0;whiteSpace=wrap;html=1;fillColor=none;dashed=1;dashPattern=8 8;" vertex="1" parent="1">
          <mxGeometry x="720" y="50" width="130" height="570" as="geometry" />
        </mxCell>
        <mxCell id="4WsjM8u0ppjrJzp-7UYq-3" value="" style="rounded=0;whiteSpace=wrap;html=1;fillColor=none;dashed=1;dashPattern=8 8;" vertex="1" parent="1">
          <mxGeometry x="190" y="50" width="490" height="570" as="geometry" />
        </mxCell>
        <mxCell id="4WsjM8u0ppjrJzp-7UYq-4" value="&lt;b&gt;Sources&lt;/b&gt;" style="text;html=1;align=center;verticalAlign=middle;whiteSpace=wrap;rounded=0;fillColor=default;" vertex="1" parent="1">
          <mxGeometry x="55" y="40" width="60" height="30" as="geometry" />
        </mxCell>
        <mxCell id="4WsjM8u0ppjrJzp-7UYq-5" value="&lt;b&gt;Data Warehouse&lt;/b&gt;" style="text;html=1;align=center;verticalAlign=middle;whiteSpace=wrap;rounded=0;fillColor=default;" vertex="1" parent="1">
          <mxGeometry x="365" y="40" width="145" height="30" as="geometry" />
        </mxCell>
        <mxCell id="4WsjM8u0ppjrJzp-7UYq-6" value="&lt;b&gt;Consume&lt;/b&gt;" style="text;html=1;align=center;verticalAlign=middle;whiteSpace=wrap;rounded=0;fillColor=default;" vertex="1" parent="1">
          <mxGeometry x="750" y="40" width="70" height="30" as="geometry" />
        </mxCell>
        <mxCell id="4WsjM8u0ppjrJzp-7UYq-7" value="Bronze Layer" style="rounded=0;whiteSpace=wrap;html=1;fillColor=#ffe6cc;strokeColor=#d79b00;" vertex="1" parent="1">
          <mxGeometry x="200" y="80" width="150" height="40" as="geometry" />
        </mxCell>
        <mxCell id="4WsjM8u0ppjrJzp-7UYq-8" value="Silver Layer" style="rounded=0;whiteSpace=wrap;html=1;fillColor=#f5f5f5;strokeColor=#666666;fontColor=#333333;" vertex="1" parent="1">
          <mxGeometry x="365" y="80" width="145" height="40" as="geometry" />
        </mxCell>
        <mxCell id="4WsjM8u0ppjrJzp-7UYq-9" value="Gold Layer" style="rounded=0;whiteSpace=wrap;html=1;fillColor=#fff2cc;strokeColor=#d6b656;" vertex="1" parent="1">
          <mxGeometry x="520" y="80" width="150" height="40" as="geometry" />
        </mxCell>
        <mxCell id="4WsjM8u0ppjrJzp-7UYq-10" value="" style="rounded=0;whiteSpace=wrap;html=1;fillColor=none;strokeColor=#d79b00;" vertex="1" parent="1">
          <mxGeometry x="200" y="140" width="150" height="470" as="geometry" />
        </mxCell>
        <mxCell id="4WsjM8u0ppjrJzp-7UYq-11" value="" style="rounded=0;whiteSpace=wrap;html=1;fillColor=none;strokeColor=#666666;fontColor=#333333;" vertex="1" parent="1">
          <mxGeometry x="365" y="140" width="145" height="470" as="geometry" />
        </mxCell>
        <mxCell id="4WsjM8u0ppjrJzp-7UYq-12" value="" style="rounded=0;whiteSpace=wrap;html=1;fillColor=none;strokeColor=#d6b656;" vertex="1" parent="1">
          <mxGeometry x="520" y="140" width="150" height="470" as="geometry" />
        </mxCell>
        <mxCell id="4WsjM8u0ppjrJzp-7UYq-17" value="" style="group" vertex="1" connectable="0" parent="1">
          <mxGeometry x="56" y="210" width="58" height="96.67000000000002" as="geometry" />
        </mxCell>
        <mxCell id="4WsjM8u0ppjrJzp-7UYq-15" value="" style="image;aspect=fixed;perimeter=ellipsePerimeter;html=1;align=center;shadow=0;dashed=0;spacingTop=3;image=img/lib/active_directory/folder.svg;" vertex="1" parent="4WsjM8u0ppjrJzp-7UYq-17">
          <mxGeometry width="48.666666666666664" height="66.66666666666666" as="geometry" />
        </mxCell>
        <mxCell id="4WsjM8u0ppjrJzp-7UYq-16" value="" style="verticalLabelPosition=bottom;html=1;verticalAlign=top;strokeWidth=1;align=center;outlineConnect=0;dashed=0;outlineConnect=0;shape=mxgraph.aws3d.file;aspect=fixed;strokeColor=#292929;" vertex="1" parent="4WsjM8u0ppjrJzp-7UYq-17">
          <mxGeometry x="37.19945205479451" y="40" width="17.453333333333333" height="40" as="geometry" />
        </mxCell>
        <mxCell id="4WsjM8u0ppjrJzp-7UYq-21" value="CRM" style="text;html=1;align=center;verticalAlign=middle;whiteSpace=wrap;rounded=0;" vertex="1" parent="4WsjM8u0ppjrJzp-7UYq-17">
          <mxGeometry x="-2" y="66.67000000000002" width="60" height="30" as="geometry" />
        </mxCell>
        <mxCell id="4WsjM8u0ppjrJzp-7UYq-18" value="" style="group" vertex="1" connectable="0" parent="1">
          <mxGeometry x="56" y="350" width="58" height="96.67000000000002" as="geometry" />
        </mxCell>
        <mxCell id="4WsjM8u0ppjrJzp-7UYq-19" value="" style="image;aspect=fixed;perimeter=ellipsePerimeter;html=1;align=center;shadow=0;dashed=0;spacingTop=3;image=img/lib/active_directory/folder.svg;" vertex="1" parent="4WsjM8u0ppjrJzp-7UYq-18">
          <mxGeometry width="48.666666666666664" height="66.66666666666666" as="geometry" />
        </mxCell>
        <mxCell id="4WsjM8u0ppjrJzp-7UYq-20" value="" style="verticalLabelPosition=bottom;html=1;verticalAlign=top;strokeWidth=1;align=center;outlineConnect=0;dashed=0;outlineConnect=0;shape=mxgraph.aws3d.file;aspect=fixed;strokeColor=#292929;" vertex="1" parent="4WsjM8u0ppjrJzp-7UYq-18">
          <mxGeometry x="37.19945205479451" y="40" width="17.453333333333333" height="40" as="geometry" />
        </mxCell>
        <mxCell id="4WsjM8u0ppjrJzp-7UYq-22" value="ERP" style="text;html=1;align=center;verticalAlign=middle;whiteSpace=wrap;rounded=0;" vertex="1" parent="4WsjM8u0ppjrJzp-7UYq-18">
          <mxGeometry x="-2" y="66.67000000000002" width="60" height="30" as="geometry" />
        </mxCell>
        <mxCell id="4WsjM8u0ppjrJzp-7UYq-26" value="" style="endArrow=none;html=1;rounded=0;" edge="1" parent="1">
          <mxGeometry width="50" height="50" relative="1" as="geometry">
            <mxPoint x="30" y="450" as="sourcePoint" />
            <mxPoint x="140" y="450" as="targetPoint" />
          </mxGeometry>
        </mxCell>
        <mxCell id="4WsjM8u0ppjrJzp-7UYq-27" value="&lt;font style=&quot;font-size: 10px;&quot;&gt;&lt;b style=&quot;&quot;&gt;Object Type: &lt;/b&gt;CSV Files&lt;/font&gt;&lt;div&gt;&lt;font style=&quot;font-size: 10px;&quot;&gt;&lt;b style=&quot;&quot;&gt;Interface: &lt;/b&gt;Files in Folders&lt;/font&gt;&lt;/div&gt;" style="text;html=1;align=center;verticalAlign=middle;whiteSpace=wrap;rounded=0;" vertex="1" parent="1">
          <mxGeometry y="470" width="170" height="30" as="geometry" />
        </mxCell>
        <mxCell id="4WsjM8u0ppjrJzp-7UYq-28" value="" style="html=1;verticalLabelPosition=bottom;align=center;labelBackgroundColor=#ffffff;verticalAlign=top;strokeWidth=2;strokeColor=#d79b00;shadow=0;dashed=0;shape=mxgraph.ios7.icons.data;fillColor=#ffe6cc;" vertex="1" parent="1">
          <mxGeometry x="244" y="160" width="52" height="60" as="geometry" />
        </mxCell>
        <mxCell id="4WsjM8u0ppjrJzp-7UYq-29" value="Raw Data" style="text;html=1;align=center;verticalAlign=middle;whiteSpace=wrap;rounded=0;" vertex="1" parent="1">
          <mxGeometry x="240" y="230" width="60" height="30" as="geometry" />
        </mxCell>
        <mxCell id="4WsjM8u0ppjrJzp-7UYq-30" value="&lt;b&gt;Object Type: &lt;/b&gt;Tables&lt;div&gt;&lt;br&gt;&lt;/div&gt;&lt;div&gt;&lt;b&gt;Load:&amp;nbsp;&lt;/b&gt;&lt;/div&gt;&lt;div&gt;&lt;ul&gt;&lt;li&gt;Batch processing&lt;/li&gt;&lt;li&gt;Full Load&lt;/li&gt;&lt;li&gt;Truncate &amp;amp; Insert&lt;/li&gt;&lt;/ul&gt;&lt;div&gt;No &lt;b&gt;Transformations&lt;/b&gt;&lt;/div&gt;&lt;/div&gt;&lt;div&gt;&lt;b&gt;Data Model: &lt;/b&gt;None (as-is)&lt;/div&gt;&lt;div&gt;&lt;br&gt;&lt;/div&gt;&lt;div&gt;&lt;br&gt;&lt;/div&gt;" style="text;html=1;align=left;verticalAlign=middle;whiteSpace=wrap;rounded=0;" vertex="1" parent="1">
          <mxGeometry x="205" y="350" width="140" height="20" as="geometry" />
        </mxCell>
        <mxCell id="4WsjM8u0ppjrJzp-7UYq-32" value="" style="html=1;verticalLabelPosition=bottom;align=center;labelBackgroundColor=#ffffff;verticalAlign=top;strokeWidth=2;strokeColor=#666666;shadow=0;dashed=0;shape=mxgraph.ios7.icons.data;fillColor=#f5f5f5;fontColor=#333333;" vertex="1" parent="1">
          <mxGeometry x="411.5" y="160" width="52" height="60" as="geometry" />
        </mxCell>
        <mxCell id="4WsjM8u0ppjrJzp-7UYq-33" value="" style="html=1;verticalLabelPosition=bottom;align=center;labelBackgroundColor=#ffffff;verticalAlign=top;strokeWidth=2;strokeColor=#d6b656;shadow=0;dashed=0;shape=mxgraph.ios7.icons.data;fillColor=#fff2cc;" vertex="1" parent="1">
          <mxGeometry x="559" y="160" width="52" height="60" as="geometry" />
        </mxCell>
        <mxCell id="4WsjM8u0ppjrJzp-7UYq-34" value="Cleaned, Standardized Data" style="text;html=1;align=center;verticalAlign=middle;whiteSpace=wrap;rounded=0;" vertex="1" parent="1">
          <mxGeometry x="365" y="230" width="150" height="30" as="geometry" />
        </mxCell>
        <mxCell id="4WsjM8u0ppjrJzp-7UYq-35" value="&lt;b&gt;Object Type: &lt;/b&gt;Tables&lt;div&gt;&lt;br&gt;&lt;/div&gt;&lt;div&gt;&lt;b&gt;Load:&amp;nbsp;&lt;/b&gt;&lt;/div&gt;&lt;div&gt;&lt;ul&gt;&lt;li&gt;Batch processing&lt;/li&gt;&lt;li&gt;Full Load&lt;/li&gt;&lt;li&gt;Truncate &amp;amp; Insert&lt;/li&gt;&lt;/ul&gt;&lt;div&gt;&lt;b&gt;Transformations:&lt;/b&gt;&lt;/div&gt;&lt;/div&gt;&lt;div&gt;&lt;ul&gt;&lt;li&gt;Data Cleaning&lt;/li&gt;&lt;li&gt;Data Standardization&lt;/li&gt;&lt;li&gt;Data Normalization&lt;/li&gt;&lt;li&gt;Derived Columns&lt;/li&gt;&lt;li&gt;Data Enrichment&lt;/li&gt;&lt;/ul&gt;&lt;/div&gt;&lt;div&gt;&lt;b&gt;Data Model: &lt;/b&gt;None (as-is)&lt;/div&gt;" style="text;html=1;align=left;verticalAlign=middle;whiteSpace=wrap;rounded=0;" vertex="1" parent="1">
          <mxGeometry x="367.5" y="400" width="140" height="20" as="geometry" />
        </mxCell>
        <mxCell id="4WsjM8u0ppjrJzp-7UYq-37" value="&lt;b&gt;Object Type: &lt;/b&gt;Views&lt;div&gt;&lt;br&gt;&lt;/div&gt;&lt;div&gt;No &lt;b&gt;Load&lt;/b&gt;&lt;/div&gt;&lt;div&gt;&lt;b&gt;&lt;br&gt;&lt;/b&gt;&lt;/div&gt;&lt;div&gt;&lt;div&gt;&lt;b&gt;Transformations:&lt;/b&gt;&lt;/div&gt;&lt;/div&gt;&lt;div&gt;&lt;ul&gt;&lt;li&gt;Data Integrations&lt;/li&gt;&lt;li&gt;Aggregations&lt;/li&gt;&lt;li&gt;Business Logics&lt;/li&gt;&lt;/ul&gt;&lt;/div&gt;&lt;div&gt;&lt;b&gt;&lt;br&gt;&lt;/b&gt;&lt;/div&gt;&lt;div&gt;&lt;b&gt;Data Model:&lt;/b&gt;&amp;nbsp;&lt;/div&gt;&lt;div&gt;&lt;ul&gt;&lt;li&gt;Star Schema&lt;/li&gt;&lt;li&gt;Flat Table&lt;/li&gt;&lt;li&gt;Aggregated Tables&lt;/li&gt;&lt;/ul&gt;&lt;/div&gt;" style="text;html=1;align=left;verticalAlign=middle;whiteSpace=wrap;rounded=0;" vertex="1" parent="1">
          <mxGeometry x="525" y="390" width="140" height="20" as="geometry" />
        </mxCell>
        <mxCell id="4WsjM8u0ppjrJzp-7UYq-40" value="" style="shape=image;verticalLabelPosition=bottom;labelBackgroundColor=default;verticalAlign=top;aspect=fixed;imageAspect=0;image=data:image/png,iVBORw0KGgoAAAANSUhEUgAAAgAAAAIACAYAAAD0eNT6AAAAAXNSR0IArs4c6QAAAERlWElmTU0AKgAAAAgAAYdpAAQAAAABAAAAGgAAAAAAA6ABAAMAAAABAAEAAKACAAQAAAABAAACAKADAAQAAAABAAACAAAAAAAL+LWFAABAAElEQVR4Ae3dB5wU5f348e/s7vU7ehcUASOKYAUVYsQWNUUTjUaNaWpsMWrUEJP8YonGGmM0sf0TjS0IEozRqFFRsIEUu9jovcPBNe62zP95Fs8ccGV2p+yUz+R1ub2dmef5Pu9Zme/OPM8zIiwIIIAAAggggAACCCCAAAIIIIAAAggggAACCCCAAAIIIIAAAggggAACCCCAAAIIIIAAAggggAACCCCAAAIIIIAAAggggAACCCCAAAIIIIAAAggggAACCCCAAAIIIIAAAggggAACCCCAAAIIIIAAAggggAACCCCAAAIIIIAAAggggAACCCCAAAIIIIAAAggggAACCCCAAAIIIIAAAggggAACCCCAAAIIIIAAAggggAACCCCAAAIIIIAAAggggAACCCCAAAIIIIAAAggggAACCCCAAAIIIIAAAggggAACCCCAAAIIIIAAAggggAACCCCAAAIIIIAAAggggAACCCCAAAIIIIAAAggggAACCCCAAAIIIIAAAggggAACCCCAAAIIIIAAAggggAACCCCAAAIIIIAAAggggAACCCCAAAIIIIAAAggggAACCCCAAAIIIIAAAggggAACCCCAAAIIIIAAAggggAACCCCAAAIIIIAAAggggAACCCCAAAIIIIAAAggggAACCCCAAAIIIIAAAggggAACCCCAAAIIIIAAAggggAACCCCAAAIIIIAAAggggAACCCCAAAIIIIAAAggggAACCCCAAAIIIIAAAggggAACCCCAAAIIIIAAAggggAACCCCAAAIIIIAAAggggAACCCCAAAIIIIAAAggggAACCCCAAAIIIIAAAggggAACCCCAAAIIIIAAAggggAACCCCAAAIIIIAAAggggAACCCCAQLAFjGCH70z0dXV1fU3TPMIwjENUiXuqn0Hqp7v6qVQ/ReqHBQEEEEAAgVwFkmqHWvWzQf0sVOeZT9TvmepcM7WiomKVel3QJbIJQE1NTc94PP49dUC+r47AAQU9ClSOAAIIIBA1gTkqEXg0nU6Pr6qqWleIxkcuAWhoaNg1k8n8QmGfrX7KCoFOnQgggAACCHwu0KB+/00lA7eWl5cv81IlMgmA+qZfpE7+F6rf1ytgfWmfBQEEEEAAAb8I6ETgFpUE3KSSga1eBBWJBEBd7h8Wi8UmKtBhXqBSBwIIIIAAAnkKfKiuUn9X3Rb4KM/9Le8Ws7xlQDesr68/XZ38Z6nwOfkH9BgSNgIIIBAhgX30OUudu051u82hTgAU4EXqkv+jCrHcbUjKRwABBBBAwCGBCnXumlBbW3u5Q+W1WkxobwGooX0Xqhbf1WqreRMBBBBAAIEACKj+AJepfgG3uxFqKBMAfdn/82/+ob7C4cYHgjIRQAABBHwlkFFJwOkqCXjc6ahClwB83uFP3/Pnsr/TnxbKQwABBBAohECd6hg4yumOgaH6hqy+9Zd83tufk38hPqLUiQACCCDghkCFOrdNUOe4YicLD1UCoC79j1M49PZ38hNCWQgggAACfhAYrvq2OdopMDS3AD6f4U/Ps8zsfn74qBIDAggggIDTAvWqP8Ceqj/AcicKDs0VAHV/RH/75+TvxKeCMhBAAAEE/ChQ/vlU9o7EFoorAPrBPur+yBIlQgLgyMeCQhBAAAEEfCrQoJKA3Zx4gFAorgCop/qdqQ4UJ3+ffloJCwEEEEDAMYEydc47zYnSQpEAqJ6ROgFgQQABBBBAIPQC6pynH2Nvewn8LQDVK7KvUlhpW4ICEEAAAQQQCIaAygHMfpWVlavthBv4KwAK4Ug7AOyLAAIIIIBAwAQM1e9trN2YA58AqCERB9tFYH8EEEAAAQSCJKA6Ah5iN97AJwAKYKhdBPZHAAEEEEAgSAJ6PgC78YYhARhsF4H9EUAAAQQQCJjAELvxhiEB6GIXgf0RQAABBBAImEBXu/GGIQGotIvA/ggggAACCARMoMpuvGFIABx9OpJdUPZHAAEEEEDAAwHb574wJAAeOFMFAggggAAC4RIgAQjX8aQ1CCCAAAIIWBIgAbDExEYIIIAAAgiES4AEIFzHk9YggAACCCBgSYAEwBITGyGAAAIIIBAuARKAcB1PWoMAAggggIAlARIAS0xshAACCCCAQLgESADCdTxpDQIIIIAAApYESAAsMbERAggggAAC4RIgAQjX8aQ1CCCAAAIIWBIgAbDExEYIIIAAAgiES4AEIFzHk9YggAACCCBgSYAEwBITGyGAAAIIIBAuARKAcB1PWoMAAggggIAlARIAS0xshAACCCCAQLgESADCdTxpDQIIIIAAApYESAAsMbERAggggAAC4RIgAQjX8aQ1CCCAAAIIWBIgAbDExEYIIIAAAgiES4AEIFzHk9YggAACCCBgSYAEwBITGyGAAAIIIBAuARKAcB1PWoMAAggggIAlARIAS0xshAACCCCAQLgEEuFqDq1BAAE/C6Qypny4slHeWtYoC9Y3yaINSVm9JSWbG9LSkDSzoZcVGdK5LC59OiVk9+5FMrhHsRw4oET26VciiZjh5+Z1GNu8efNk8uTJMmPGDFm1alV2+759+8ro0aPl5JNPliFDhnRYRnsb7Fh+fX19e5tHfl15ebk46R800GD/16S06+rqtv2rETR54kUgIgLJtClTP6uXJz+okTcW1EtdU37/yVaWGDJmULl8a0SVjN2jXIriwfnnq6mpSW6++WaZNGmSZDKZVo98PB6XU089VcaNGydFRUWtbtPWm1bKb2tf3t8mYMe/UIYVFRW2/iOwtXOhGt2yXhKAlhq8RsA/Ahvr0/Lgm5tl/JzNUt3Q+kkv32i7lMXkeyM7y48O7ixdy+P5FuPJfvrkfP7558usWbMs1Tdq1Ci57777LCcBuZZvKYgIb5SrfyGp7CYA9AEo5NGjbgRCKFDXlJFbpmyQsXcslbtf2+T4yV+T6YTirlc3yeGqjj+8tEHqVZ1+XfQ3f6snf90Gve2tt95quTm5lm+54IhumKt/kJm4AhDko0fsCPhM4MVP6uR3/10vqzanPI2sX+eEXHV8Dzl6zwpP6+2oMn1PXt/bb+uyf1v768vRTzzxhAwePLitTbLv51t+u4WyUqz6F5qKKwCFPgLUjwAC0pgy5Tp14r9g4mrPT/6af6VKOM6fsFqu+Nca1ZnQP1cDdIe/XE/+uj3pdDrbWVC/bm/Jt/z2ymSddf+gWzEKIOhHkPgRKLCA7sV/zvhV8smapgJHIvLk+7Xy2dqk/O2MPtKrqvD/vOne/vku06dP73BXO+V3WHjEN7DiH3Qi+gAE/QgSPwIFFFiyMSnfe2ilL07+zQwfrW6UUx5YkR1i2PxeoX43D/XLp/6VK1d2uJud8jssPOIbWPEPOlHhU+SgCwYtfjMtRt0nEqt7T4yGxWJsXSpG01oxUzViZBpUawwxY6ViJKrELO4lZumuYpYNlEzFvmJWDFWr/d3jOmiHI8jxLlRj+E9TJ1rd299vy4rqlJz29xUy4cf91FwCxX4Lz1I8hhH4LlqW2unXjaLgTwLg10+fk3GZSYlVvyGxDf8VY/MsdaLfeXKQlv/UGOmkugmmEoLGlWLUvJuNRJ/2zViFmJ1HSab7cZLpMlolA7mNVXaySZRVWIE16rL/WY+u8uXJv1lmQ11avv/wKpl01i7SV3USLMSiJ5lZsGBBXlXrfTta7JTfUdlRX2/FP+hG3AII+hFsJ34jVS3x5fdK0bvfkMT8KyW2aVqrJ/92ithulZGpU2VMVWX9MltmfMV9YqQ2b7cNf4RfQHf4O1vd819erRJFny+6f8L5qmNik4q5EIue4S/fZcyYMR3uaqf8DguP+AZW/INORAIQ9CPYWvzpeokvu0uK3v+2xFc96MpJWp/44yv/rur4lkoy7lFXDPTtA5YoCOje/n7o8GfVeu6qRrnxhQ1WN3d0Oz0EUA8py3XR+5x00kkd7pZv+R0WHPENrPoHnYkEIOhHcIf4Y5tekaIPT5f46ke8OSmrE3981UPZOmObXt0hGv4Mm8ALH9fJhLe2BK5Zj8zeLC9/Vud53Hpufz29b67L6aef3uEcALrMfMvPNZ6obW/VP+guLW/9BrItTAX8+WHLNEpi+d0SWzOxoMcx3f14SQ/8pYjqSMgSLgE9vv74u5cH4tJ/a/J6sqD/XjhAyou9/d6TTCazUwHPnDmztbB2eu+QQw6Re++9VxIJa/0Wci1/pwp5YzuBXP2329njP5gIyGNwP1ane/EXfXxOwU/+2ia+4TkVy7liJNf7kYqYbAj8+ZVNgT3562bryYLufb3ahkB+u+oH++gT+hlnnNHu7QB92fnMM8/M6eSvI7Jafn7RR2evfP2DLMQVgCAfPR371uVSPO/S7G8/NcUs6SupL92RHUbop7iIJT8BPff+4X9aop7k559Z9vJpif72/8oluxbsAUJ6RICevU9PMtM8zrxfv36iO5zpe/4dTf3bUZt3LJ/HAbcvph8H7KR/+7U5v9buFQASAOePiWclGluXSOLj81QnP++/1VhppJnoKsm97hNRcwmwBFvgtpc3yj3qwT5hWH52eFe5ZGy3MDSFNkRcwG4C4O3NsIgfLCebbzStk8Rnl/r25K/baqQ2SdGnF6mJhtY42XTK8lggmTblMfVI37Asj87eIrpNLAhEXYAEIIifAN3hb95laqKeVb6PXvdPSMwbJ5Ip/DzxvsfyaYAvf1bvyiN9C9XcTWrmwlfn7zwZVqHioV4ECiVAAlAoeRv1JpbeLkb9PBsleLurUf+pJJbd6W2l1OaYwL8/qHGsLL8U9O8Pav0SCnEgUDABEoCC0edXsZ7NL7buyfx2LuBesbX/VNMRv17ACKg6H4FUxpTpC8P3bfm1BfWSVm1jQSDKAiQAQTr6ma1qhr87ghTxdrHGl/zBm8mJtquVP+wIfLCyUWobw3eirNmakY9Wc1vKzmeDfYMvQAIQoGMYX3F/IO77t0VqNK3OzhrY1nre95/A28sa/ReUQxHNXsL01Q5RUkxABUgAAnLgsnPvr5sckGjbDjO+dqIrzyZou0bW2BGYvy68CYB+nDELAlEWIAEIyNGPrR6vLp+H4F6senZAbM3jAVEnzEUbUqFFWEQCENpjS8OsCZAAWHMq7FZmMpAd/9pC0x0CRbWJxf8C+nG6YV301MAsCERZgAQgAEdf957XtwDCsui2xDa/GZbmhLodNY3p0LavtjHY0xqH9sDQMM8ESAA8o86/otiG5/Pf2ad7xjb816eREVZLgfqm8I0AaG5f0J9r0NwOfiOQrwAJQL5yXu1npsXYPNur2jyrx9isHo1q8g3MM3AqQgABBHYQIAHYAcRvfxp1H4uRqfNbWLbjMdK1ajbDT22XQwHuCpQXB/55YW0CVagnA7IgEGUB/gvw+dGP1b3v8wjzD8+oeTf/ndnTE4Gqkrgn9RSiksoS/vkrhDt1+keA/wL8cyxajcSoX9zq+2F4M6YeZ8zib4E+nRL+DtBGdP06h7dtNljYNUIC/Bfg84NtNIb3JGk0LvW5PuEN6lEkc5aGc8a8Qd2LPD/A8+bNk8mTJ8uMGTNk1aptT/Ps27evjB49Wk4++WQZMmSIrZh2LL++PgRzh9gSaX/n8vJycdK//dr8t5YEwH/HZPuI1ON0w7oYjavD2rTQtGuwSgDCuujkxqulqalJbr75Zpk0aZJkMtt3fl2wYIHon/Hjx8upp54q48aNk6Ki3GJrr3yv2hjEenSC5IR/ENuuY+YWgN+PXCp8HQCbyc10eNvW3Mag/z5wQGnQm9Bm/CN3K2tznZMr9Mn5/PPPl4kTJ+508m9ZTzqdlscee0zOO+88SSatT5RltfyWdfF6Z4F8/XcuKTjvkAD4/FgZmXBeftXsYW6bzz9WlsPbp1+JVJaEbyRAVWlM9updbNnBzob6m/+sWbMsF6G3vfXWWy1vn2v5lguO6Ia5+geZiQQgyEeP2BFwWSARM2TMoHKXa/G++K8MLpe4apvbi74nry/757roqwX60nRHS77ld1Ru1Ndb9Q+6EwmAz4+gGfPmMmUhGMLctkJ4ulXnicOr3Cq6YOWeOKLSk7p1h78d7/lbqVhfjtb7drTkW35H5UZ9vVX/oDuRAPj9CCYq/B5h3vEZ8fC2LW8UH+7YN7NUYslaH0aWX0jdyuNymLoC4MWie/vnu0yfPr3DXe2U32HhEd/Ain/QiUgA/H4Ei3v5PcK84zNL+uS9Lzt6I/Dcc8/JWT/6gcTmP+tNhR7UcubITlIUd//yv25K81C/fJq1cuXKDnezU36HhUd8Ayv+QSciAfD5ETRLd/N5hPmHZ5aEt235q/hjT9M05e67784OSWtoaJDEvKfVEym3+iM4G1GUq+l/vz+qs40SvNvVMLxJUrxrUbBqioI/CYDPP5OZ0oE+jzD/8DIhTm7yVyn8nnps9M9//vNsAqATgezSuEXi8/9T+OBsRnDWIZ2lq7oF4NWiJ5nJd7Gyr5Vt8q0/6vtFwZYEwOefcrNyX59HmH94ZtV++e/Mnq4IrFmzRn70ox/JlClTdio/8fHjYtQFd2IqPfXvuWO67NQuN9/QM/zlu4wZM6bDXe2U32HhEd/Ain/QiUgAfH4EzYqhYsbC11nOjFeKWf4ln+tHK7x33nknOxPdRx991HrDU41S9N7fWl8XgHev/XpP0bcAvFz09L7xeO5XHPQ+J510Uoeh5lt+hwVHfAOr/kFn8va/hqBrFSJ+Iy5m51GFqNnVOs3Oh6iZgPj4uYqcQ+F6ONlZZ50lGzZsaHev2IqZEl/wXLvb+HHlDw7uLEfs4U3P/5bt13P76+l9c11OP/10GTx4cIe75Vt+hwVHfAOr/kFn4l/gABzBTPdjAxBlbiFmuh+X2w5s7YqAHu98++23y9VXX215+tmi9x4QY9NCV+Jxo9DhajbDK4/u7kbRlsrUc/sffPDBlrbVGx1yyCFyxRVXWN4+1/ItFxzRDXP1DzITCUAAjl6myxgxE8HouWyF00x0kYy+AsBSUIG6ujq5+OKL5f77788tjnSTlLxxXSD6AwzoWiT3nd5XihOF61GvH+xz7733yhlnnNHu7QB92fnMM8/MbptIWH9Om9XyczvI0ds6X/8gSxXuvwqH1NQ/Yp93U3aoQJ8WE19xn8RX/t2n0eUWVrrfOZLe5ZzcdmJrRwWWLl0qF110kSxcmP83ebNqF2k64kYxS/yZnHaviMuEH/eT3bt7M+e/lQOkp/fVt1v0JDPN48z79esnusOZvudv5bJ/e/XsWD6PA25PS0Q/DthJ//Zrc35tRUWFrXO4rZ2db07uJUYhAdCXae/4w7Vy8ZgXpLwkdyNf7REvk+SIJ0N1RcNXvhaC0Sefyy+/XGpqaixs3f4mZmUfaTrsGjEr8x/u1n4N+a3t36VI/n5mX3Xyz+2xuvnVxl4IFEbAbgLALYDCHDfLtepHfep7fA888oQ8MsX6I0ItV+Dxhunep3Py99i8ZXX6wTQXXnihIyd/Xa5Ru1pKpv1a9Qno+ME1LeNw87W+5//42btw8ncTmbJDIcAVAB8fxurq6uxl2nfffTcbZZl6LOsz15dJ/x7BzNvM4j6S3OcxEXUVgMVbAf18+euuu06eeOIJdyqOFUlq3x9Jasg33CnfYqmnHdhJrjquR0Hv+VsMlc0QsC3AFQDbhP4sYMWKFfL9739fmk/+OsqGRlNuGN/kz4AtRDX5nT0kYwT9HoaFhvpsE51Innvuue6d/FV7y0uL5C8/HCb/7/Q+sksX6x3YnKLSnf3+ekZfuf4bPTn5O4VKOaEX4AqADw+xfsb3+eefL3pWttaWa39QIqcfEax7m/r2xXX/aJSvfOUrcvPNN0tVVfgeMdvasSr0e/qz9LOf/UyWL1/uWii9e/eWP//5z7L33ntn62hIZuSe16rloZmbpa4p41q9uuCKYkN+fEgXOf/LXaS0KJhXxlwFovBQC9i9AkAC4LOPx8yZM7NDs/QQrbaWEnXun/ibMtl7t9xnGGurTDff/3BxRk77fb00pbbVsttuu8kdd9whehITFvcEXnvttex48vY+S3Zr32+//bLHsnv3ncfZVzdk5ME3q+Ufc7bIpvq03aq2218/0lc/1e+HB3eRzmWc+LfD4Y/ICJAAhGgY4FNPPSVXXXWVpFKfnynb+Rj37hqTx35d6vv+AMvXqZP/DQ2ytnr70Zp6+I2+J33sseGb5Kidw+bJKv0AnwceeCB7Ys5k3PsGroet/fa3vxU9Dr29JZk25dX59fLvD2rltQX1UrM1v5g6lcbksMHlcuKIyuxvrx7p217bWIdAIQVIAEKSADzyyCNyyy23yBdPX7Pwqdq9T0zG/6pMunfy54WcDVtMOf3GBlm8uvV/8PXjNr/3ve9lv6XmMvGJBZrIbtLY2CjXXHONPP30064Z6AlT9ARCZ599ds51pDOmzF3dJHOWNMjCDUlZpH5WbU7J5q1pqW/aliSWq8v6nUvj0rdTXHbvUSyDexTJQbuqK159iiUe8+dnPWcIdkDAAQESgIAnAHqM/4033igTJkzI6+MwoFdM/n55mezay1//MC5fn5Gzb9sqi9o4+bds7MiRI+UPf/iDtHYZueV2vG5fYO3atXLJJZfIBx980P6GNtbqKze33nqrHH744TZKYVcEEHBCgAQgwAmAHuP/q1/9Sp5//nlbnwV9O+Dei0tk2EB/9AnQ9/zPv2Pny/7tNVJ3JPvTn/4kw4cPb28z1rUh8PHHH2c7+61evbqNLey/veuuu8pf/vIXGTRokP3CKAEBBGwL2E0A6D1j+xDkV8DmzZvlnHPOsX3y17Wv2ZSR7/6+QR5+sfATBU2clsx2+Nvxnn9HSnrEww9/+MPsNKkdbcv67QWee+45+cEPfiBunvwPPfTQ7FUqTv7b2/MXAkEW8Nd14zwkgzgVsB7jr4f5LVq0KI8Wt7/Lkfsl5OoflEnfrtt3umt/L/trdWe/3z3aKNPet9/b+5RTTpFf//rXHXYusx91sEvQ/UXuueee7E8ufUdybbU+Hr/5zW+Efhq5yrE9Au4K2L0CQALg7vHZqfSOxvjvtEOObwwYMED+et+fZbfYFImvfVwkXZ9jCbltXrdV5MEXmuS+Z5Ky9fNOXLmV0PrWeky5HirYt6+/5phvPVrv39UPedFJ0pQpU1yrXHf2++Uvf5l9ip1rlVAwAgjkLUACEKA+AFbG+Of9SVA7jhgxQu666y7p2rVrthgjtVliayZKbO1k0a+dXGob1cNWnquTR15KSnWtO1cbdDtuu+02GTVqlJOhB74sfbtET+7z0UcfudaWLl26yB//+EfsXROmYATsC9hNAOgDYP8YWCpBj/E/77zzxK1JWY488sjsc92bT/46KDPRWT1291xJ7vcfSe1xq2S6HSVmvNJSvK1tZMarVBlHq7L+IMVjpkq3/X4ldY3uTfu6adMm+clPfpL78+pbCz4k773zzjty6qmnunry32OPPbL3+0m8QvKhoRkItCHALYA2YJx8O58x/rnU/+1vfzs79ltfsu1wMTNi1H8iRs17Etu6RIzGpepnjZipGjEyDdndzViZGAl1si/uLVK6q2RKB4pZta+Y5Xuqx79tnzPqE9Jll10m69at67BqOxt87Wtfy7ZRD0OL6qKfI3/99deLfrCPW8thhx2WHeZXWZl/ouhWbJSLAALbC9i9AkACsL2no3/ZHePfUTB6Ip0LLrgg+3jXjrZ1c/3GjRuzz5efPXu2m9XInnvumR0qqPs5RGnRn6M777zT9SshZ555ZvbR07HY9klelKzdbqvuA6QTuRkzZsiqVauy1el+LqNHj5aTTz7Z9vTYO5av+4qwtC2gv1A46d92Te6sIQHwaR8Ap8b4t/Wx0d/29TSs3/nOd9raxNP3vTpJqQ98duIkfcsjCou+ZTRu3Dh55ZVXXGtucXFx9urKCSec4FodUS9Y/3ugH4I1adIkaWt6Zv3ftL69o493R9Mr7+hppfwd9+Hv7QXs+G9fknd/kQD4MAHQY/x1J623337blU+Czlp15zh9udZvyzPPPJM9mTQ0bLud4EZ8+srHWWedlZ31LszfVpcuXSoXXXSRLFy40A3GbJk9e/bMXl1gAibXiEWfnPWw31mzZlmqRPe9uO+++ywnAbmWbymICG+Uq38hqewmAFzrc/jo6TH++lKqWyf/Hj16yIMPPujLk7+m/PrXvy66z0P//v0dlv1fcXrM+/33359Nsmpqav63IkSvpk+fLt/97nddPfkPHTpUxo8fz+yLLn9u9Dd/qyd/HYreVk+3bHXJtXyr5UZ1u1z9g+xEAuDg0dP33/SMbG5M8KPD1Pe+H3744S+eu+5g6I4WpU8s+tkG+r6mm4u+LH7aaafJ/Pnz3azG87L1ZWLdt8PN5Oa4447LJmrMs+Du4dX/JujjmesyceJEWbBgQYe75Vt+hwVHfAOr/kFnIgFw6AjqMf76m78eo+3Gosf4629rej72ICx6HLmepe7CCy8UNy/TL1myJDtRjd3nKfjBVPfu1/06rr32WtF9KtxY9O0T/RQ//Q2zrKzMjSoos4WA7vDX1j3/Fpvt9FIff71vR0u+5XdUbtTXW/UPuhMJgANHsBBj/B0I2/UidKcanQDoHuxuDivTPZ2vuOIKuemmm1w7cbqNVV1dLeeee67861//cq0q3Xfk9ttvl5///OeiEwEW9wV0b/98F30bqKPFTvkdlR319Vb8g25EAmDzCOr73Xqe9FQqZbOk1nfXY/z1P9pB/rY2duzY7C2BwYMHt95IB97V/QIeffTR7AOWNmzY4ECJ3hWhL+PqWxluDqPUT1vUfUeOPvpo7xpGTV8M9cuHYuXKlR3u1jyUsMMN2SBnASv+ORfqsx3cm8bNZw11Ohx9iejGG2/MnticLluX55cx/k61beDAgfLYY49lk6UXX3zRqWJ3KkefRPVQqnwfLZwx07K6Zr4s3/yxrK9bJhvrV0hN43rZmqyTZFo9+EB9cS6KlUppUYVUlfSQbuW7SI+KAdK/817Sp2qIxAwLkzG1iPq1117LXr1wa4ZIXdV+++2Xfa5C9+7dW9TMS78LcJWmsEcoCv4kAHl8xvSwm1/96leOPMq3ter9Nsa/tRjzeU9fgtbzyz/wwAPZ2wJu3edufrSwvjKjJ1fpaElnUjJ/w2yZu3qqLNr4rjSl2xnCqB57kM7UytZUrVQ3rJFl1XO/KL44Xia7d9tf9ulzhAzufpDEY23/56WvWGgH/cCjfO4Rf1FpBy9OOumkbL+CXMeVd1Asqy0K6E6WVjrztVaclQ6adspvrU7e+5+AFf//bR3MV23/CxXM9rgedZTH+DuBq7Nq3QlNjzvX9+31LIJuLDpJu/rqq+XDDz9s89HC9cnNMnvZU/LOiuekIWl/OKFOHD5dNz37U1ZUJQfs8jUZOeAEKSvqtF0TGxsbs3MlPP3009u97+QfOom8+OKLs9ZOlktZuQnokTD5JgBjxozpsDI75XdYeMQ3sOIfdKLA9wRSl07deRRdK0dWj/HXE3q4NcxPj/G/++67fT/MrxWavN5avXq1XHrppdmTdF4FWNxp2LBh2VsCzRl9U6pB3lg8Ud5e8Yz6tq8u67u4FMdL5cD+35TRA08V/Xrt2rXZCYw++OAD12rVV1p0L//DDz/ctToo2JqAHqKqr0LlerVLJ3BPPPGEdNRvJt/yrUUf3a2s+hdaiImAPDoCjPF3HrpPnz7y0EMPie7o6OYyd+7cbL8APcHHZ+velL/OulDeXDrZ9ZO/bpNOMGYsmSR/nXmhvPzOP7NDFt08+ethonoOBk7+bn6irJc9ZMiQ7GfP+h7btjz99NM7PPnrLfMtP9d4ora9Vf+gu3AFwMIR1GP89eVUtzpq6TH+d911l7R8lK+FsEK1iZ4s5YYbbnDtSXfxIkMO/FYP2eOwwj7lbtHsWpk1cYOkmjKOH79DDz00O0V0p07b33JwvCIKzElAz++grxzqf0esLIcccojce++9kkhYu0Oba/lWYojyNrn6F9KKKwAu6zPG32Xgz4s/5ZRTsp3i9Nz0Ti/lXeJy7GX9Cn7y1+3afWSlHHNpHynvbO0fd6sW2k9PvMTJ36qYd9vpDpj6hH7GGWeIvrTc1qLX6cnEcjn567Kslt9Wvby/TSBf/yD7cQWgnaOnx/jfcsstontsu7HoS9/XXHNNu/8ouFGvn8vU98gvu+wyeffddx0Js7JHQo66sK/o335a6jam5OW7V8uWtUlbYel/tH75y19mTy62CmJnTwR0h0A9e5+eZKZ5nHm/fv1EdzjTIzY6uuffUZA7ls/jgNsX0/1lnPRvvzbn19q9AhC4BMAcOzbRYGw9MBNLf9kUY2hs2IhzzPXrROpUL+6tukOXalJpiUhFlRg9eoq5ywAx+qvpc/carm6YfUnU2bbDo8AY/w6JXN1A++vZA/UDf+wsnXoXyVcv6Scllf6c72prbVpe+NMqqckzCdDTLethlfrpZSwIIBA9gUgkAOYpw4obNlR8PW3I99Xp/Wh1mKvyOtRl5WLsd5DIEceIHHSwSKJop2IY478TScHesPNo4fIuCXWpXX3z7+avb/47YtZXp+X5P66U+urcZpLcY4895M9//rOrT13cMVb+RgABfwmEOgGoOX7/npIsusQw5XzF3t1R+irVUer4E8U44WSRTp2zRTPG31FhRwr75JNPskMFly9fbrk83eFP3/Pvukux5X0KueHGZY3y/O2rJJOydqvpsMMOyw7zc/P5CoX0oG4EELAmEMoEYO3YsZXlifr/E1MuUgwV1ijy3KpUPRHtG9+W1YcdJedefAlj/PNkdHM3/aCccePGZe+bWqln1HdVb/8x+V0kslK+G9t89toWmT2p42cY6E5i2sLNJyy60T7KRAAB5wVClwDUHTXqW+p70J2KaoDzXG2XuNY05PdrN8vLdY1tb5TnmgEDBsh9990XmEf55tlMV3fT/QK0oe4h3d7UuQP2rZCvnN3L1VjcKnza/1sjKz6sb7X44uLibIfRE044odX1vIkAAtETCE0CoDr3ldbFG24WMS8u5GF8unarXLe+Vhoy1i7HdhQrY/w7Espt/bRp0+TKK6+U2tranXZMFMfk67/exff3/XcK/PM36jal5D83rJBU4/ZzBOihkbpTpJ4+mQUBBBBoFrCbAPiie3T92IP718Xr3yz0yV+jfrOyVB7q20V6JToeLdB8ENr6feSRR2Z7skd5gp+2bPJ9v71HC+9zbOfAnvy1R0XXhAw7Zlt/lGafoUOHyvjx4zn5N4PwGwEEHBMoeAJQfeSBg824OU21aF/HWmWzoL1KEvJIv84ysCj/JECP8b/99tulrEz1MWBxVKD50cLHHKNGc3y+lFTEZc/Dtz95Nq8L0u+hh3eSkopt/1ked9xxoueiaH6GQZDaQawIIOB/gYLOA7DlqwcOjaXir6qh+85P/+aA/cZ0Rn6wslqWJNOWS9NPu7vgggvkwgsvtLwPG+Yn0PxI3ezl8eM7ybCvdsmvIJ/t9eHz1XJQn5Oyox+i8Exyn/ETDgKBEbB7C6BgCUD9kYfukjHSryvpgX7WXqOSgDNXbJLVqe3vy7YWs567+9prr5UTTzyxtdW855LAa6+/KlM33yJFZQX7ODvasoSUyWVjx0s85u85DBxtNIUhgEDOAnYTgILcAtAd/tTJ/xnV2oE5t9jjHXrHY3JH705S3MG5RU8pqSdm4eTv8QFS1fXaMxGak7/WS0mDLNz4lveQ1IgAApESKEgCUBuvu0Mp++aef0dHfO+SIvlF97afItejRw958MEHRU/QwuK9wNzV07yv1OUaw9gml8koHgEEchTwPAGoP3LUtw0xzs0xzoJvflqnMhlbvvPMcnqM/8MPPyx77713wWOMYgAZMy2LNjrz4CA/+S3c+I5kzI5vO/kpZmJBAIFgCXiaAJjfPLA8Y8gfg0X0v2h/3aNKymP/uxegx/jrIVq77qoeNsRSEIFVW+ZJU7qhIHW7WWljqk7W1CxwswrKRgCBiAt4mgDUNcSvUt4Dg2reNxGTs7uUZ8NnjL8/juKKLZ/4IxAXolhWPdeFUikSAQQQ2CbgWTfjLUeN6q4e6vNTZ+bXK9zhO1PdCtg45ggZd/3v1ZOF858noHAtCFfN6+uWhqtBLVqzoX5Fi794iQACCDgr4FkCoC6cX6ZO/m33pHO2Xa6Vpm8BXDl8TzE4+btmnEvBG0N8ktzYQAKQy2eBbRFAIDcBT24BmKcM06PozsstNB9v/ey/1VitpI8DjE5oWxo7foJeUDW2bF0b1NCJGwEEAiDgSQJQu6n8G8qiewA8rIW4ZbPIW7OtbctWrgo0JutcLb+QhTemwte5sZCe1I0AAtsLeJIAiGmcuX21IfjrlRdD0IjgNyGZ2Rr8RrTRgmQIRze00VTeRgCBAgi4ngCoWf8S6vL/UQVom6tVmu/MEfVgelfroHAEEEAAAQTcEnA9AWhINBykgu/kVgMKVm6deh79wnkFq56KtwkUxUpDS1EU50mSoT24NAwBHwi4ngCo2czG+KCdroRgzn3flXIp1LpASVGF9Y0DtmVJggQgYIeMcBEIlIDrCYCIsVegRHIJdvnSXLZmWxcEOpWEp2/pjjydSnvt+BZ/I4AAAo4JuD4PgLr/v2fQJ/9pS9tYsbytVbzvkUC38v6yrPojj2rztpru5bt4W6Gqbd68eTJ58mSZMWOGrFq1Klt/3759ZfTo0XLyySfLkCFDPI+JChFAwB0B1xMAdfLv707ohS/VXLdGVILDUkCB7uUDCli7u1Xr5MarpampSW6++WaZNGmS6tu6fefWBQsWiP7Rz7049dRTZdy4cVJUVORVaNSDAAIuCXhwCyCEHQCbD0ZDffMrfhdIYECX8N5h2rXLME9U9cn//PPPl4kTJ+508m8ZQDqdlscee0zOO+88SSaTLVfxGgEEAijgRQIQ+Ol/2zyuDUzU0qaNRyv6VA2R4hD2li9JVEivykGeKOpv/rNmzbJcl9721ltvtbw9GyKAgD8FvEgA/NlyogqFQMyIy+7d9g9FW1o2YlD3AyRmuP+fp77nry/757roqwX6tgALAggEV8D9f2FE1ID5kC5lDNPyw5Ed1mesH8JwNIZhvb1pk+7wt+M9fysN0bcD9L4sCCAQXAEvEoAtweXpIPKy8g42YLUXAkO6j5SyoiovqvKkjvKizqKvAHix6N7++S7Tp0/Pd1f2QwABHwi4ngCoXvKhHStn9Oztg0NICPFYQg7Y5WuhgTig/9ckbrg+QCfr1TzULx+8lStX5rMb+yCAgE8EXE8A1ICiT3zSVsfDMPuHdwia41guFzhywIlSHIKZ84rjpXJQf/3wTG+W+vr8R7LY2deb1lELAgi0J+B6AqCuAHzcXgCBXrfLroEOP0zB61sAB+7i3YnTLbuRA76lbmeE79EZbnlRLgII5C/gegIQy8TeyD88f+9pDBvh7wAjFt2Ygd+VzmXBvS3TqbSnHLLbyRE7ajQXAQQKJeB6AlBmlr6lGhe+joAVanqDQUyLWqgPbmv1FsVL5Ogh57S2KhDvHbvnBWpOg/A+3TAQB4EgEYiQgOsJgDFtWsowjSlhMzX2HykSc50vbGyut+dLPQ+R/Xc53vV6nK7goP7fFD2agQUBBBDwSsCTM5gh5qNeNcizesYe7VlVVJSbwNF7nCO9qwbltlMBt+5btYccMeTHBYyAqhFAIIoCniQAZd3rnlG4G0ID3KmLyAGjQtOcsDUkESuWU0dcHYj+AF1Un4Xv7Pt/kojxcJ2wfQ5pDwJ+F/AkATAmzW0yTeMev2NYju/rJ4okEpY3Z0PvBSpLuslp+14r5cWdva/cYo06tlNVjJXF3SzuwWYIIICAcwKencVMw/yTyjYuVY8HDvbDgUrLxPj6t507ApTkmkC38l3khwf+QSa8d7VsqvfXpDV6tIJOUHSMLOEXMDJ1Ymx6Q2I1c8Sony/SuFKMtJol3UzZa7yaMMqMq39SS/qJWb6HZKoOErPrGDFjzFJqDzYae3v6OPvao0beIGL8KtC03/2BGN/jfm2QjmFt40aZ9P7vZHWNPx5eo+/568v+fvjmv88++9g6lB9++KGt/UO/89alklj1iMQ2viiS2epNc2Olkun2VUn1/b5IKZOVeYNemFoqKipsncNt7Zxrk81vHlheVx+fq/YbmOu+vtheTf1r3PV39R8VDwHyxfHIIYhUJinTFjwos5c9lcNezm+6X7/j5Jgvneube/4kAM4f42yJmUaJL79P4msnqm/5aZcq6aBYdXUg3fu7kt7lXDViqaSDjVkdRAG7CYAnfQCaYY2n36o3DOPS5r+D9tu4QIXOyT9ohy0br+5kd/QeP5HvjPitdC7t5XkbdGe/U/a9So4f+lPfnPw9R4hKhVuXSdFHP5b4mvGFO/lra3V7Ib76H1L06U/FSK6Pij7tzEHA0ysAzXHVHD3qHsOU85v/DsJv4xsniZz7syCESowdCCTTjTJ9yeMyZ/nT0pRq6GBre6uL42Win1Nw6G7fET1Rkd8WrgA4e0SM+s8k8enFYqSqnS3YZmlmcS9JfemPYpYNsVkSu/tJwO4VgIIkAObYsaV18frpCnJ/P2G2GcuQPcW4+U6RouI2N2FF8AQakjXZWwJvr3hWGpJbHG2AfqSvfqrfyAEnSGnCv/1eSQAcPOz6m//HP/Hdyb+5hdkkYO+/i1nUvfktfgdcIJAJgDavO2ZMPzOT1M8JGKj/9u3Su68Yt/xZpCv/0fj2GNkMLJ1JycKNb8nc1dPU73ekMVWXV4n6RL979/1lWO+xMqj7AZ490jevYD/fiQTAjl6LfdU9/6KPz1E9/Oe1eNN/L82KoZIceh99Avx3aPKKKLAJgG7tliMO2jMWi72qXnp/U9YKd2c14c9Nd4qxCz1prXCFYZuMmZE1arTAsuq5sqF+hWxsWCFbtq6TrclaSX7ei7tI9bIuLaqUTiU91DC+/tK9or8M6Ly3mn1wsMQMT7vV2CYnAbBNmC0gvvTObff8nSnO1VLS/c5WHQN/4modFO6NQKATAE209eiRg9JiPG+a4q+bU737iHHNLSKc/L35JFNLQQRIABxgV0P9ij88vbAd/nJpRrxcksMncSsgFzOfbms3ASj415XSKbMXilF0uPqv523fGOt7/rf8hZO/bw4IgSDgXwE9zr9gQ/3yYUnXS3zl/fnsyT4hEyh4AqA9K158Y2VF8abRapIg1dOuwMux39jW4Y97/gU+EFSPgP8F9Ax/2Ul+/B/qdhHGNjwnRqZ+u/f4I3oCvkgANLvx3PzGypdmXmKY5gnqzyWeHwrd2e+qG8X46eX09vccnwoRCKaAnt7Xsxn+nCRKN4hRrftgs0RZwDcJQPNBqHh59tMV5em9TUN+r8YoqsmyXV7K1Kx+enrfv6gZ/g46xOXKKB4BBMIkoOf2D+oS2/JWUEMnbocEPHsYUC7x6hkD1fb/t+WoUbcbYlxiiHmB+rtHLmV0uK1+pK96qp/xzZPV44mqOtycDRBAAIEdBbIP9tnxzYD8bTSohxKxRFrAlwlA8xHp9NKsDer1VeYpw66vX191nMQzZ6rRAseo99TZO4+lslKM/UaKjD1a5IBRPNI3D0J2QQCBFgKNK1r8EbCXWwMce8Co/RqurxOAZjRj0twm9fop/WOeckq8fuPiA0zD+LJpmkNj++x/rrl+rbpZUKPGFH7+tK3S0m3f6nv03NaTv/9uYgwbLjJoDzUBhu/uejQ3k98IIBAwAUP1qA/qojswskRbIBAJQMtDZEyapB+tNfvzH6l7atq5BZnPuGVQvEYAgWgKmMngtjujv1exRFmAr8NRPvq0HQEEEEAgsgIkAJE99DQcAQQQQCDKAiQAUT76tB0BBBBAILICJACRPfQ0HAEEEEAgygIkAFE++rQdAQQQQCCyAiQAkT30NBwBBBBAIMoCJABRPvq0HQEEEEAgsgKBmwcgmkcqI0bjGpGmtWIkN4ok12V/G+q3qL+N1Cb1QJKUerpXg5iSEUnpRyiYYqRr5dqanlKcKJOYxMUwDClJVEjMiEt5UScpK6qSUvWjX1cUd5Gqkh7SubSXdCnrk/07mta0uiACDfVizpoh8sE7IosWiKxZLVKvPseplL1wEuqfuPJKkd59RHYfIjJifzFGHiqinwHCgkDEBUgA/PQBMNXJW00tGmtYKMbWxeofwIUSU7+zrzONliJtbVKkplTDF/s2JNWMiWrZKO1PA1oUL1HJQG/pUTFAelUOlJ4VA7O/O5f1FvV8hi/K4wUCdgTMFctEJj8m8tpU9dn/fCZPOwXuuK9OILZUb/uZ94nIC/8Rs0TNFPqVI0VOPl2Mfv133IO/EYiMAAlAIQ+1fiRn/WcSq3tfjJr3tv2kt52gCxmWrjuZbpT1dUuzP5+sfeOLcIrjZdKnaogM6DJM+nfZS3bpPFRK4uVfrOcFApYEGhvF/McDIk9PFknryT09XHSi8eKzIlNfEFM9DMz43lkixcUeBkBVCPhDgATAy+OgvsXHat6W2OYZ6mT/rmSfxqW/9QdoaVJJy9LqD7I/Omx9W6FnxW4ysNt+MqjbAdnEIBHjH9MAHVLPQzVXLhe54SqRpYs8r3u7CvXVgX9NFPOjD8T49e9EunbfbjV/IBB2ARIAl4+wkaredsKvfl2M6jfVffpwPYBDPZBJ1tYuzv7MWvqk6FsHu3UZIYO6Hyhf6nlwtl+By8QUHySBhfPU8z3Hbbsk75e4P/1IzMsvEOOqm0QGDvJLVMSBgOsCJAAuEBtN6yS28Xn185IYdeq+o+qQF5VF3zqYv2F29ufFefepWwR7ydCeY2SvXl+WypJuUWGgna0IZL/5++3k3xzn+nVi/u5KMW67V10J4HPazMLvcAuQADh1fPXlffUtP7bhuew3fjE9vq/pVDscLEdfHVhe/VH25+X590v/zsNk337HyJ49R2evFDhYFUX5XaBJPXnu5mv89c1/RzOdBFz3KzFuvFOkpGTHtfyNQOgESABsHlKjdq7E1z8lxsYpathduC7v26TZbveM6uvQ3Hfghfi9slfvr8gBuxwvvau45LodVEj/MB+9f9vwPr+3b/5nYk4eL8YZP/Z7pMSHgG0BEoC8CDPq2/50ia2ZKLEts/MqIco7Nabr5d2V/83+6FEEowZ8S/UXOFTNTxCLMkto254d6qd7+wdkMf49SeT4E7kVEJDjRZj5C5AA5GKnTlyxjS9IfLX6hrB1aS57sm0bAis2fyL/2nyTmnyotxzU/wR1i+CrUhxX47RZwiOgx/l7PdTPhp7ZoIbnTnhY5IJLbZTCrgj4X4CvXBaOkZHeIvHl90jRe9+UxOKbOPlbMMt1k+qGNTJl3l/lrjd+LK8vmiB6uCFLCATUDH/ZSX4C1hRTzREgKhFgQSDMAiQA7R1ddRKKr35EEu+dJPFVD3GPvz0rh9ZtVdMYv7boHyoROEv9Hk8i4JBroYrJTu/rxgx/bjdoq5pWe46ampgFgRALkAC0dnDNlMTWqTHtH5wi8WV3ZefUb20z3nNPQCcCry96TO6Z8ROZvewpSatjwhJAAT23f1CX9wMce1DNidtTAfoAbMdtSnzjixJTl/uNxlXbreGPwgjUN23O3hp4e8Uz8pVB38/OJ1CYSKg1LwH9YJ+gLosXBjVy4kbAkgAJQDOT6tSXWHKb6tU/s/kdfvtIYGP9Snnyw5vlna7/lWO+9JPs9MM+Co9Q2hJYE+BEevXKtlrF+wiEQoBbAJmtEl/xNymeeyYn/wB8pJdsek8emHWJTJ3/YPaBRQEIOdoh1qtOgEFdghx7UM2J21OBSF8BiG2aKvGlfxKjaY2n6FRmTyCjZll8c+lk+WTdG3L80ItkYNd97RXI3u4JpJLule12yUk1eyELAiEWiOQVAD1jX3zhNZKYr6b95OQf2I93dcNqmfDOb+W5T/4ienIhFgQQQAAB6wKRSwBiW+ZI4sPTJb7hv9aV2NK3AqZ60NK7K5+Xv828SE01/KFv4yQwBBBAwG8C0UkA1MN69JC+xKcXq2/9a/12HIjHpsCWretk/Du/zo4YSGcYMmiTk90RQCACApHoA2A0LJDEgt+K0cCwnjB/pvXTB/WcASs2fyonDrtCTS/cJ8zNpW0IIICALYHQXwGIqXH9RR+fw8nf1sckWDuv3PKp3D/rYvls3ZvBCpxoEUAAAQ8FwpsAqMfPZi/5L7hKPYiEOb09/Ez5oir9LIEnPrghO1xQXxlgQQABBBDYXiCUCYB+eE/is0uz8/iL6iTGEk0B3UFQDxf85wfXMUogmh8BWo0AAu0IhK4PgFE/T4rm/1KkkVm82jnukVo1f/1seXjOFXLqvtdI59JekWo7jUXACwF9xW3eulmypPp9WVu7SDY3rJXGVJ3tZ3jEjYSUJCqkc1kv6V05SHbrOkKG9BipHhle5kWzQl9HqBKAWM1bEv9snEimLvQHjgbmJrC+bpk8pJKAU0b8Vvp22iO3ndkaAQRaFdhQv0LeXDJZPl77qiszc+qHgNUnN2d/Vm2Zlx3yWxQvkb17f0UO2fU70q28X6tx8aY1gdAkALFNr0hiobrfr4b7sSDQmkBd06bsUMET1AiBPXoc3NomvIcAAhYEkulGeXXhozJn+dOiZ+b0ctF1v7fyRflw1VQ5aMAJ6iFh35NErNjLEEJTVyj6AMTWTs7O6sfJPzSfS9ca0pTemu0c+MGql1yrg4IRCLOAfjDXQ3Mul1nLnvT85N/SVV8dmLn0CZXU/0Zqmza2XMVriwKBTwDiqx9RT/G7VTU3Y7HJbBZ1gYwaIfLMx3eof8D+HXUK2o9ATgJrahbKI2+Nk3V1S3Laz82NV2z+RB6cfbnqe7DYzWpCWXZgEwA1sstIThtxhx7qx4JArgJ6hMBL8/4mry+akOuubI9AJAX0N/8J716VvR/vN4CaxvXy+HvXir7Nx2JdILAJQGra8BvVEL+LrTeVLRHYWeC1Rf+Q1xaN33kF7yCAwBcCqUyT/OvDm3x58m8OclsS8DtXOiM21xG234FMAJJT97leDFFj/VgQsC/w+qLHZMaSf9oviBIQCKnAKwseyQ7v83vzVtfMV3N/8N+y1eMUuAQgOXX4/4lh/MZqA9kOASsC0xY8pDoUPWllU7ZBIFICeqif7u0flEX37eFWgLWjFagEoGnqiEvVN//rrDWNrRDITWDq/Aey44xz24utEQi3gB7n7/VQPzuiTakG+vZYBAxMAtA0bfiPDcP8o8V2sRkCOQvojoHPf3q3zFs/K+d92QGBMAroGf70JD9BWz5c/bLo2FnaFwhEAqB6+x9miNyjmqJ+sSDgnoAeIvjvubeIfqIgCwJRF9DT++qJd4K26Pk+5q+fE7SwPY/X9wnA1teGD1K9/ScrmRLPdagwkgL6H7zJ798gm7eujWT7aTQCzQJ6bv+gLks2BTd2r8x9nQCY04d1i6flOYXR0ysQ6kFAC+iZxfS44sZ0PSAIRFZAP9gnqMu6usVBDd2zuH2bAJhzDixKJWOPK4kveaZBRQi0EFhft1SemvsHMdWsUywIRFGgumFNYJu9qWFVYGP3KnDfJgDpuuSdqk/WUV5BUA8CrQnoRwlPXzKxtVW8h0DoBZoCfAWsKcXVu44+oL5MANQsf6eob13ndxQ86xHwQkDPFLhgAx2KvLCmDn8JpDMpfwWUQzSpTDKHraO5qe8SgK0v7TNYXXD9azQPB632o4C+BfDU3NskyJdD/ehKTAggUFgBXyUA+r5/PG48qkg6F5aF2hHYXmBrqlaenHuz6EeQsiCAAAJhEPBVApCqadTP9T0kDLC0IXwCq7bMk+mLdb9UFgQQQCD4Ar5JAFKvjDhBzfHP0/2C/5kKdQveWDxBlm76INRtpHEIIBANAV8kAOaLB3ZW91mZ6S8an7lAt1L3BJPyYgAAHslJREFUB/jPJ3cwP0CgjyLBI4CAFvBFApAuarpdxdKPQ4JAEAQ2q7HRU+f/PQihEiMCCCDQpkDBE4DktGFHqF7/P2ozQlYg4EOBd1c8L0w16sMDQ0gIIGBZoKAJgOr1X25ITA/54yE/lg8ZG/pBoPnJgalMkx/CIQYEEEAgZ4GCJgCp2qbr1Lf/wTlHzQ4I+EBgQ/0KeWMxswT64FAQAgII5CFQsASg6dURB6h4L8kjZnZBwDcCM5c8IRvql/smHgJBAAEErAoULAEwTPMWFWTcaqBsh4AfBfTEQC98dp8fQyMmBBBAoF2BgiQAqZeHn8iDfto9LqwMkMDije+qZwW8FaCICRUBBBAowDBAc+rYhBmTG8BHIEwCL837G9MEh+mA0hYEIiDg+RWApLH+AuW6dwRsaWKEBHQ/gHdWPBehFtNUBBAIuoCnCYA5db8uarzfVUFHI34EWhOYvniSJNONra3iPQQQQMB3Ap4mACkj9Qs15L+H7xQICAEHBOqaNsnbK55xoCSKQAABBNwX8CwBMN8c0kmd/C90v0nUgEDhBGYs+ac0pRsKFwA1I4AAAhYFPEsAUo3lP1MxdbEYF5shEEiBhmSNzF72VCBjJ2gEEIiWgCcJgDl1YKmY5kXRoqW1URWYtfRJdRVga1SbT7sRQCAgAp4kAEmj8ifKo09ATAgTAVsCW1O18sGql2yVwc4IIICA2wKuJwDqgT9FarqBy91uCOUj4CeBWcv+JRkz46eQiAUBBBDYTsD1BCBd23iaIeZu29XKHwiEXKC6YY18tm5GyFtJ8xBAIMgCricAphjnBxmI2BHIV2D2cjoD5mvHfggg4L6AqwlA4yv77KWaMNr9ZlADAv4TWF79kaytXeS/wIgIAQQQUAKuJgAxM8a3fz5mkRZ4f9WUSLefxiOAgH8FXEsAzOmHlomYZ/q36USGgPsC76vRAEwP7L4zNSCAQO4CriUA6WTdKSqcbrmHxB4IhEegMVUn89a/GZ4G0RIEEAiNgGsJgGma54RGiYYgYEPg3ZUv2tibXRFAAAF3BFxJAMypI/qrcL/sTsiUikCwBJZVfyB1TdXBCppoEUAg9AKuJADJmJys5NSTf1kQQEBPCPTp2jeAQAABBHwl4EoCYJjmSb5qJcEgUGCBj9e+XuAIqB4BBBDYXsDxBMB8Y0QvVcWY7avhLwSiLbBs81ypadwQbQRajwACvhJwPAFIpsxvqRbGfdVKgkGgwAKqU6waDTCzwFFQPQIIIPA/AccTADXvP5f//+fLKwS+EFi44e0vXvMCAQQQKLSAowmA+fyICjGNIwrdKOpHwI8CSza9J6lM0o+hERMCCERQwNEEIFWa0ff+iyPoSJMR6FCgKb1VVmz+qMPt2AABBBDwQsDRBECN/OPbvxdHjToCK7Bgw1uBjZ3AEUAgXALOJgCmeWS4eGgNAs4KLFa3AVgQQAABPwg4lgCYr+9Zpa4AHOCHRhEDAn4VWFe7WBrT9X4Nj7gQQCBCAo4lAOlk0eHKLREhO5qKQM4CelbAVZs/y3k/dkAAAQScFnAsATBjMZ0AsCCAQAcCy+gI2IEQqxFAwAsBxxIAMc2DvAiYOhAIusCyakYCBP0YEj8CYRBwLgEQ2TcMILQBAbcFVm+ZJ6b6HwsCCCBQSAFHEgDzpb12U43oWsiGUDcCQRHQnQC3NKwNSrjEiQACIRVwJAFIG4n9QupDsxBwRWBt3WJXyqVQBBBAwKqAIwmAGTdJAKyKsx0CSmCtGg7IggACCBRSwJEEQM3/z/3/Qh5F6g6cwLq6JYGLmYARQCBcAs4kACJDw8VCaxBwV2B97VJ3K6B0BBBAoAMBpxKAXTuoh9UIINBCYHMjnQBbcPASAQQKIGA7ATBf3b+niruiALFTJQKBFWhKNUhDcktg4ydwBBAIvoDtBCCZTuohgCwIIJCjQHXDmhz3YHMEEEDAOQHbCUDMjJEAOHc8KClCAtUNqyPUWpqKAAJ+E7CdAJgxkwTAb0eVeAIhsKVxfSDiJEgEEAingO0EQD0DgA6A4fxs0CqXBeqbNrtcA8UjgAACbQvYTgBMw+jedvGsQQCBtgQaUnQCbMuG9xFAwH0B2wmAIWZn98OkBgTCJ9CQrCl4o4qKimzFUF9fb2t/dkYAgcIJ2E4AxDA6FS58akYguAL1PhgGWFFhbwTvqlWrgnsAiByBiAvYTwBMgysAEf8Q0fz8BBqaCn8LoFMne/n79OnT82s8eyGAQMEFbCcA6haAvX9BCk5AAAgURiCVaSpMxS1q3XVXe314J0+eLOl0ukWJvEQAgaAI2E4ATBGuAATlaBOnrwRSmWTB4xk0aJCtGObPny+PP/64rTLYGQEECiNgOwFQYZcXJnRqRSDYAmkfJADDhw+3jXjLLbfIzJkzbZdDAQgg4K2AEwmAtxFTGwIhEUibhb8CcPDBB6t+vIYt0WQyKeeff76MHz+e2wG2JNkZAW8FnEgA1F0AFgQQyFXAD1cAunXrJk5cBdBJwA033CAnnXSSPPTQQ6JvDTBEMNdPBNsj4K2AvdRfxZqcNrxW/bI3lsjbNkeiNjOxu6Req5DMlAWRaG8gGxmLifHkSwUPfcKECXL99dcXPA4CQMBvAuXl5dK3b18ZPXq0nHzyyTJkyBBfhaiG8do6h9vaWUuoBECPZarylUqEgzHjfSX9fh9JP/mpSIaLM77+KJSUiDHpvwUPcfPmzXLMMcfwjb3gR4IA/CwQj8fl1FNPlXHjxondCbScaqfdBIBbAE4diQKXYya6S3LxgdL0+xpJP/EJJ/8CHw9L1cfiljZze6POnTvLKaec4nY1lI9AoAX0cNfHHntMzjvvPNG3vMKwOJEAZMIAEdQ2mPEqSa0dKU23pCXzyEfqkgxjsgNzLG1Ow+tkO3/0ox+JvtzJggAC7QvMmjVLbr311vY3CshaJxKAuoC0NVxhGiWS3nKgJP+ift/3oUhdY7jaF4XW+CgB6Nmzp/z0pz+NgjptRMC2wMSJE2XBguD3r3IiAdhoW5MCrAsYcck0HiBNf+8uqTs+EnM9+Zd1PJ9tWVHpq4DOPPNM2XvvvX0VE8Eg4EcBfTtAz4IZ9MV+AmAICYAnnwJD0pnh0vTPXSV5y8diLtvkSa1U4p6AUeGvvrO6k9Ntt90mdh8Q5J4YJSPgH4EwPAfDfgJgkgC4/ZHMxIZK03/3kNTv54v50Wq3q6N8jwTMSn9dAdDNHjBggNx8882ikwEWBBBoW2DlypVtrwzIGtsJgGEaXAFw6WCb8UGSfGOYJK9dIubsZS7VQrEFEyj35/QZY8eOlauvvtr2DIEFc6ViBBCwJJCwtFU7G5lGRiUAtqcTaKeG6K0yE/0k/V5vxvKH/dB37ebbFuoZ/fRy7bXXMr2vb48SgRVSoF+/foWs3pG6bScA6mvCBmG+GUcOhpnoIal5AyUzUY3jT3KP3xFUPxfSvYefo8tO66unCr7yyiultlZP+MmCAALNAnp2wKAv9m8BiLk46AiFjt+M6bH8B6mx/CnJPDqXsfyFPiBe1d+9p1c15V2Pvh0wadIkRgfkLciOYRTQfWT01MBBX2wnABnTXBh0hILFnx3Lf5Ak/6zH8qsTP2P5C3YoClKxz68ANJvojoF6BrRf/OIXTBbUjMLvSAucfvrpMnjw4MAb2L55b04f1i3VFNsQeAkvG2AkJNMwXFKPrRFzOZf6vaT3U13GAxNFevTyU0gdxrJ+/Xp58MEH5fHHH+fZAR1qsUEYBQ455BC59957JZGwfwfdro/dZwHYTgB0A9QDgfRIgK52GxP+/fVY/n3UXP01Yn68JvzNpYVtC5SUivH4s6r/rCP/CbZdj0trtmzZIs8++6z85z//kffee09Mk45ALlFTrE8E9GV//c3/iiuu8MXJX7P4IwF4Zfgc1RHwQJ8cJ1+Gocfyp57NMJzPl0enAEHtPliMO/5WgIqdr3LTpk2i50d///33ZeHChbJs2TKprq7OXiFoampyvkJKRMAjAf18DN3bf8yYMdlOsX677G83AXDmGoYpuh8ACUArH0ozvrukXiuXzEt0lWiFJ7JvGbsMCE3bu3btKscee2z2JzSNoiEIREDAmQRA5OMIWOXURDPRX9Jv95D005/xaN6c5KKxsdmvP7NnRONQ00oEfCvgSAJgGMZb3APcdoyzY/nn7yaZCZ+qzhH0jfTtJ7/QgQ3ao9ARUD8CCERcwJEEIJ4y3krFo90JSI/lT6/eU9KPzlfD+T6K+MeK5nckYAwmAejIiPUIIOCugO15AHR4xlHvrVC/Vrkbqk9LZyy/Tw+Mj8PSjwHu1cfHARIaAghEQcCRKwBZKEPeViMBvh4FtG3tVWP56/eR1ITVaiy/msSHBQGrAoOGBHb4n9Umsh0CCPhfwLkEIGPMEcOMQALw+Vj+yVvE/ETd52dBIFeBocNy3YPtEUAAAccFHEsADMnMMUPerzkTGyapZ5rEnKPu87MgkKeAsffwPPdkNwQQQMA5AccSgLgkXk9JOqVCc6xM55ppryTG8tvzY+8WAobqdsMVgBYgvEQAgTwFGvPc74vdHOkEqEszjni3Wv2a80XJIXhhJnaR1Nz9pel3a5jIJwTH0xdNGLi7mr9TdQJkQQABBOwJ1Njb3elv64ZMUR0BD7EbVKH3NxPdJfXZrpKZqCbxSenHHLAg4IyAMWJ/ZwqiFAQQiLqA/tJta3HsCsDnUbxoK5oC76zH8qfWHiRNt6Ql849P1Mk/U+CIqD50AgeMCl2TaBACCBREYJ7dWh29X5/okXkztS5Wq4IK1jXOWKmkq9VT+h5ZLOZGhvTZ/VCxfxsCJSUie49oYyVvI4AAAtYF1Oy76hK1vcXRKwDGsLlNaiDAK/ZC8nBvQ43lbzxAmu7vKqk75qqTf52HlVNV5AT22U9EJwEsCCCAgE2BWCw2w2YRzvfYN03jGUP8Ph9ATI1XGCGpyer+/mc8x8juh4j9LQocFPjuMRYbymYIIOCygJnJZKbZrcPRWwA6mKJY/J+pTOpO9dLxsu02Vu+fiQ1VY/kzaiw/k/g44UkZFgXU8D/j0MMsbsxmCCCAQLsCsysrK9e0u4WFlY7eAtD1GV95Z536NU2/9tNixgdJ8vW9JXntEnXyX+an0IglAgKGHvvfrXsEWkoTEUDAbQH1BN5HnKjDlW/p6rmAjxsiRzsRoN0yzER/Sb/XU9JPqm/8mWg/sdCuJfvnL2COPizk82Tmb8OeCCCQk0B9KpWakNMebWzsSgJQFJd/ptLyF1VncRv1uv62Ge+hxvIP2DaWP73B9fqoAIE2BfTl/9FfaXM1KxBAAAGrAqr3///r1KnTeqvbt7ed47cAdGXGYR9sUr9ebq9it9aZ8U6fj+Vvksx4NZY/zVh+t6wp16LAcNX7v2dvixuzGQIIINCmQJ3q/f+HNtfmuMKVKwA6BnWP4jGVqRyXYzz5b25KXXrVwNXpJ7YMNjcxlj9/SPZ0WsA4yrv/DJyOnfIQQMA/Auqcen1FRcUKpyJSt+rdWczph5almmqXq9K7uVPDF6UmzZWxN5OPF+9p1hi9vniXFwj4QMAoKxPzwcmif7MggAACNgTeLy8vH6m+XDfZKGO7XV25BaBrMEbPaFC/HtSvXVoymQ3GrMa7Stc03V9yGCd/l5Qp1paAedhRnPxtCbIzAggogTo17v80J0/+WtW1WwC68HTavDseNy5VLx1NNMx64+3U4yXlmWUGE6traBbfChjHn+Db2AgMAQQCIZBRJ/4fVVVVOT5rnasJQOlRHy5IThs+RRF/1RHmRuPD5JNFqcxn8QMcKY9CEHBRwBim5v0fvIeLNVA0AgiEXUCd/C9Tl/7/6UY7XU0AdMCGKfeYhr0EwEzJQvOlojXJ2YlD1OOGXeu34AYwZUZXwPzaiXxYo3v4aTkCdgVUnz/zF6rT3x12C2prf9cTgPi6oU8ne32yVJ21d20riDbfz8jy9KtFi1OvJ0arE/+gNrdjBQJ+E+jRS039y9h/vx0W4kEgIAK16pv/j9XJ35Vv/s0Gjt6bby605W/j1ElpEfO2lu9ZeL0x9V78laabS3ukXkt8WZ38XY/TQkxsgoB1gRNPUT1sXM+vrcfDlgggEBSB99Pp9Ei3Lvu3RPDkcro5dWBpyqhaoCru17LyVl7XpT+Lz0k9Wby/NEqnVtbzFgL+F6isErl/Ir3//X+kiBABPwnUq2BuVSf+G9W3/0YvAvPkm7VxxOKtqjPAH9tpkB7L/1rTn0rrUhOLD+fk344Uq3wvYHzzZE7+vj9KBIiAbwTq1b3+O9RJ/0vqkv81Xp38des9uQKgKzLnHFieqm1apF62nKwnY26IzUlOLO5nbjD66+1YEAi0QHmFGH97TERfBWBBAAEEWhfQT6abrU72j6oH+zzm1Nz+rVfV9rue3aQ0DnqrPvnK8D+q+/k36XCyY/knFFdkVsQYy9/28WFNwASMb5/KyT9gx4xwEXBRQM/apzv0rVPf8hepn0/UXP5vqnv8U9W4/rUu1mupaM+uAOhozKnDKlP18WebnizqYi6MD7cUIRshEByB9Q1biwb1fOONmuCETKQIIBBVAU/6ADTjGkfMrW28rewJTv7NIvwOl4B5Eyf/cB1RWoNAmAU8TQA0ZMXm1F3q12dhRqVt0RNQN/QWVqQr9GebBQEEEAiEgOcJgPHWW8mYKVcGQocgEbAoEDflCmPatK0WN2czBBBAoOACnvYBaNna2iNHTVNjEA5v+R6vEQiowNTKl2YdGdDYCRsBBCIq4PkVgGZnM5G5SL1ONv/NbwQCKpBSo2n1Ey9ZEEAAgUAJFCwBqHphzodK6vZAaREsAjsL3F750sz3d36bdxBAAAF/CxQsAdAsFeXpa9UvPTkQCwJBFFhany7/XRADJ2YEEECgoAmA8fRb9aoTwsUcBgSCKGBkjAt6TZtWG8TYiRkBBBAoaAKg+StemvUf9ethDgUCwRIwHq2YOvPZYMVMtAgggMD/BAqeAOhQmoy0vgqw9H9h8QoBXwusSDUWceXK14eI4BBAoCMBXyQA3aa8tVk9LfBsFax+QAILAn4WUJ9R85wur7++yc9BEhsCCCDQkYAvEgAdZOWU2VMMMe/uKGDWI1BIAcOUv1S+NPu/hYyBuhFAAAEnBHyTAOjGlBdvulx9u3rbiYZRBgIuCLxf3hD/pQvlUiQCCCDguYCvEgDjufmN6XTiu0phi+cSVIhAOwJqtEptJpM51Zgxo6GdzViFAAIIBEbAVwmAVus8bcZ8NUXwBYERJNBICJimnNtp6pxPI9FYGokAApEQ8F0CoNUrp8warzoF/ikSR4BGBkDAvKPy5VmPBSBQQkQAAQQsC/gyAdDRV3QdeIX6RWcry4eSDV0RMOUl9Zhf/VlkQQABBEIlULCnAVpR3Hzsod0SqfQsNe5qsJXt2QYBhwUWZdLpUZ2mvbXe4XIpDgEEECi4gG+vAGiZzs/P2JiJZ76lXlYXXIoAoiVgyCZTjG9w8o/WYae1CERJwNcJgD4Q+qmBpmmeqF42RunA0NaCCjSpPiinVL0086OCRkHlCCCAgIsCvk8AdNurXp79qinmD9XLjIsWFI2AFtAz/Z1d+eLsl+BAAAEEwiwQiARAH4Cql2ZPVP8wjwvzwaBtPhAwjcvUTH+P+iASQkAAAQRcFQhMAqAV1D/Mt5mGXOuqCIVHVsAwzN9WvjyT4aeR/QTQcASiJeDrUQBtHYrao0fdpC7UMiVrW0C8n4/AHytfmqWmomZBAAEEoiEQyARA3aQ16o8cdYe6GvCzaBwmWumqgCm3q4l+LnO1DgpHAAEEfCYQqFsAzXYqazErXp51sRqmdV3ze/xGIC8BQ27m5J+XHDshgEDABQJ5BaClee2Ro36pnh1wU8v3eI2AJQF98p8y60pL27IRAgggEDKBwCcA+njUHjVS3bs1blUvQ9GekH3G/NgcdfFILlcn/9v9GBwxIYAAAl4IhOaEWXP0wScbpqmHb5V6AUcdgRVQk/zIj7MPnApsEwgcAQQQsC8QmgRAU9QcdfARhphPqJdd7NNQQggFqs2Y+a2qF2e/EsK20SQEEEAgJ4FQJQC65TVfPWgfScf+rRo2KCcJNg61gPo8LMiIcQLT+4b6MNM4BBDIQSCQowDaa59+dkAmER+pugNMaW871kVK4NVMcfJQTv6ROuY0FgEEOhAIXQKg26ufIliRLjteJQF3dtB+VodewLyjIl1+VNVz76wLfVNpIAIIIJCDQOhuAezY9pqjR55kmMb96n36BeyIE+6/a1Rnv/Pp7Bfug0zrEEAgf4HQJwCaZvMxB+8Rz5iPq5f75U/FngES+MjMmKdWTZ09N0AxEyoCCCDgqUAobwHsKNj5xZnz1GXgQ9UIgbvUOjWTMEtIBdTs0Mbd6lgfyMk/pEeYZiGAgGMCkbgC0FKr9qiDj1E5wAPqvf4t3+d14AXWqHkgflLx8uynA98SGoAAAgh4IBCJKwAtHStfmvliqrF4hLoOML7l+7wOsoA5IZ2I783JP8jHkNgRQMBrgchdAWgJXHfEwV9TE8Po2wIDW77P66AImCtNiV2ihvf9MygREycCCCDgF4HIXQFoCV8xdeazFeXpYerG8bXq/WTLdbz2tUDGFPP/NWwtHsrJ39fHieAQQMDHApG+AtDyuNQeMWpfiZl/UnMHjG35Pq99J/CqOk6XVL44+13fRUZACCCAQIAESAB2OFh1R478phjG7WqowOAdVvFnYQWWqXH9/1cxZdYj6kPLSI7CHgtqRwCBEAiQALRyEM3jh5TUNXX7qTrNXKlOOj1b2YS3vBPYoKq6RQ3tu9OYNm2rd9VSEwIIIBBuARKAdo6v+dURFXWp0otUEnCl2oyZBNuxcnqV+mDWqr4ZdyVTTTd1nfZutdPlUx4CCCAQdQESAAufgOovf7lrUXHTxeqE9DO1eXcLu7BJ/gIbTTHuyiRif9LPdMi/GPZEAAEEEGhPgASgPZ0d1mWvCKTLzlG3oC9Tq3bdYTV/2hNYrRKs+5KSvr3blLc22yuKvRFAAAEEOhIgAehIqJX15oEHFtV2iZ2kpp39qVp9WCub8JZFAfWgpjfUXAx3V2xKTzLeeouhmBbd2AwBBBCwK0ACYFNQTS08Qo1Jv1BBnq6K6mSzuKjsXqO68Y/X8/armRnfj0qjaScCCCDgJwESAIeOhjl2bGltrP6bhiE/UEUep34SDhUdlmIy6tv+DInJw3WpsvG9pk2rDUvDaAcCCCAQRAESABeOWv3Yg/tn4nKyevrgd9Q33dGqiqjOuJhRH7DpyuBfRqxoQsWLb6x0gZsiEUAAAQTyECAByAMtl13qjj2wbyYd+5a63P0NNa/AWLVveS77B3DbBhXzK+qD9aSZNv9dOW326gC2gZARQACB0AuQAHh4iPVtgrpYw1fUKILj1NwCY1XVI9RP3MMQ3KhKz8r3gRjmC2LGXqhIl73GhD1uMFMmAggg4KwACYCznjmVtuH4gzuVNqbHZIzYlw1TDlY3Cg5QVwm65lSI9xtvUVXOUWP134iZ6RlNmdQMJurx/iBQIwIIIGBXgATArqDD+289euSgpBk7QCQzXHWaG6quFHxJVbGn+ilzuKqOiqtXG8xX/RjmiWl8oD4o78di5nslU2YvUq/1t34WBBBAAIEAC5AABODgqbOt0TD24F1SRno3I2b0Vwetv+pXqCci6qYuvXcz1VUD9V439XeZShiqsk3a/kpCSr1f8/n7uvd9TfZv01Tf5mNr1Pl8rfp7uZjm2owYS+OxogV02Mtq8X8IIIAAAggggAACCCCAAAIIIIAAAggggAACCCCAAAIIIIAAAggggAACCCCAAAIIIIAAAggggAACCCCAAAIIIIAAAggggAACCCCAAAIIIIAAAggggAACCCCAAAIIIIAAAggggAACCCCAAAIIIIAAAggggAACCCCAAAIIIIAAAggggAACCCCAAAIIIIAAAggggAACCCCAAAIIIIAAAggggAACCCCAAAIIIIAAAggggAACCCCAAAIIIIAAAggggAACCCCAAAIIIIAAAggggAACCCCAAAIIIIAAAggggAACCCCAAAIIIIAAAggggAACCCCAAAIIIIAAAggggAACCCCAAAIIIIAAAggggAACCCCAAAIIIIAAAggggAACCCCAAAIIIIAAAggggAACCCCAAAIIIIAAAggggAACCCCAAAIIIIAAAggggAACCCCAAAIIIIAAAggggAACCCCAAAIIIIAAAggggAACCCCAAAIIIIAAAggggAACCCCAAAIIIIAAAggggAACCCCAAAIIIIAAAggggAACCCCAAAIIIIAAAggggAACCCCAAAIIIIAAAggggAACCCCAAAIIIIAAAggggAACCCCAAAIIIIAAAggggAACCCCAAAIIIIAAAggggAACCCCAAAIIIIAAAggggAACCCCAAAIIIIAAAggggAACCCCAAAIIIIAAAggggAACCCCAAAIIIIAAAggggAACCCCAAAIIIIAAAggggAACCCCAAAIIIIAAAj4V+P8UKEhh8kqAewAAAABJRU5ErkJggg==;" vertex="1" parent="1">
          <mxGeometry x="741.17" y="110.00000000000001" width="87.67" height="87.67" as="geometry" />
        </mxCell>
        <mxCell id="4WsjM8u0ppjrJzp-7UYq-42" value="BI &amp;amp; Reporting" style="text;html=1;align=center;verticalAlign=middle;whiteSpace=wrap;rounded=0;" vertex="1" parent="1">
          <mxGeometry x="738.84" y="200" width="90" height="30" as="geometry" />
        </mxCell>
        <mxCell id="4WsjM8u0ppjrJzp-7UYq-44" value="" style="shape=image;verticalLabelPosition=bottom;labelBackgroundColor=default;verticalAlign=top;aspect=fixed;imageAspect=0;image=data:image/png,iVBORw0KGgoAAAANSUhEUgAAAgAAAAIACAYAAAD0eNT6AAAAAXNSR0IArs4c6QAAAERlWElmTU0AKgAAAAgAAYdpAAQAAAABAAAAGgAAAAAAA6ABAAMAAAABAAEAAKACAAQAAAABAAACAKADAAQAAAABAAACAAAAAAAL+LWFAABAAElEQVR4AexdB3xcxdEfW71blmR1S5Ytucm9YdzB9N5NDQlJgEBooYWPAAFC6L2GltDB9N5cMC64V9mWbNlW771XfzNny8hG7Xb23b13N/P7re5092Z29r93t/N2p/QDIUFAEBAE9CMQgCKHYYvEFtjHFtTFdW34Wi2j5SFvJrZmbEKCgCDQCYF+nZ7LU0FAEBAE7EHAHy8eii25ixZtjyCDr21H+dnYdh1suzs934vPxThAEITcDwExANxvzmXEgoA9CPjixd0t8jH4ntV/Q2iHIQtbZ6Ogw1DYh6+3YBMSBFwSAat/eV1yUmRQgoATEaAt+9nY5hx8TMVHd/2daMWxb8D208G2HB+rsAkJAi6BgLt+sV1i8mQQgoAGBOJQRsdiT4/DNch0VRF0lLAZ2zJsZBT8jK0Um5AgYEkExACw5LSJ0oKAMgJJyNlxh08L/hBlScK4HyHYjo2MgQ6joFBgEQSsgoAYAFaZKdFTEFBDgDzxj8HWcZdPd/xCxiGQgaI7jIHF+DzfuK5EsiAgCAgCgoAgcDgCtMjfjI3Or+kuVZpzMKAjg6XY/oxtIDYhQUAQEAQEAUFAOwJhKPFKbLQdTQuPLPrmwoBCDb/AdiE2ypEgJAgIAoKAICAIKCNAC8lF2L7ERguMLPrWwIASG72D7VRsXtiEBAFBQBAQBASBXhGgBeM0bLSA1GGTRd/aGJThHL6IbQ428clCEIQEAUFAEBAEfkWgPz6di+0lbLRgyKLvmhjk4Nw+gm0iNiFBQBAQBAQBN0YgBMd+GzZaGGTRdy8M0nDO/4jNB5uQICAICAKCgJsgEIPjfBgbZZ2Thd+9McjHzwAZgWQMCgkCgoAgIAi4KAIjcFyvYGvCJgu/YND5M0DGIBmFZBwKCQJaEBCnEy0wihBBgIXAdOS+FdsZ2FzmO+nh6QWBASHgHxAMnp7e2LxszQOfe+Fzev/w1w+8b7vOw9v2PtkAra0tttbW2nzoecdrrfha28H3ba+1Hfi/pbkJ6uqqsVVBezvV+3EZomiPt7CRr8BOlxmVDMQpCLjMj41T0JNOBQF1BOi7dwo2WvhnqYtxLmfHIh8QOAACsR14DLE9+vpSlKJzaf/+/dDQUAN1tVVQW1uJj5UHH6usbhzQ7sDn2B7Ctsq5KEvvVkVADACrzpzobVUEKIzvImy3YBttlUEE4J18yICIg4t8yKHF3gyLvCqG3RkHlRXF0NhIEZaWIapSSIbAV9jIMBASBPqEgBgAfYJJLhIE2AgEogRKCXsjNtPn4w8KCoWwiFgIDz/QfP1Iffch2i0oK8mD0tIDraG+xgqDp8gBOhqgHBEtVlBYdHQuAmIAOBd/6d31EaAY/iuwPYAt3IzD7devHwQHh0EYLfa46NOjj4+fGVV1mk719dWdDIJ821GC05TpveM9eMkN2Cj1sJAg0C0CYgB0C428IQiwETgKJTyLbRJbkkYBtOAPGDDo1wU/LAa8vCXc3B6I6YigFHcIymiHAB9rasrtYXfUtd9gR2QIZDiqQ+nHWgiIAWCt+RJtrYFAJKpJZ7KXYTPFd8zDwxOiY5IgNi4FIgbF2bzvrQGlNbRsamqAosJ9kJuTASXFObB/P9VjMgVR1MAT2O7HRjUIhASBQwiY4sfpkDbyRBCwNgKeqP512O7GFuzsofTv3x8GRSZAXHwKREcnHQyrc7ZWrt8/GQN5ubsgLycdysoKzDJgSihEjqfkHyAkCNgQEANAPgiCgB4EjkUxT2MbpUecmhTa3qczfFr0Y2KHgbe3r5og4dKCQD06D+bhrkAuGgNVVaVaZDKF/Iz8f8W2mSlH2F0AATEAXGASZQhORSABe38M2znO1GJA6CBc9IdDXFwyuJvHvjNxt6fvmupymyFAxwSUoMiJRJmRqLDUndgqnKiHdO1kBMQAcPIESPeWRYBurSmJz+3YnOIyH4iherZFH+/2KQmPkHUQqCgvshkDdFTgxJwDVFnyDmyUfto0TgvWmUXrayoGgPXnUEbgeATOxC4fxzbE8V0DREUPgeSUSbjVH+OM7qVPjQhQMqKC/D2wK2M9VJQXapRsl6gNePW12CSjoF2wWf9iMQCsP4cyAschQCvuq9hOdFyXB3oih75Y3OJPSZkIQRizL+R6CFBIYUb6els0gRNGRxkEX8dGYYM1TuhfunQCAmIAOAF06dKSCJyMWv8Pm0OT+VCu/cTE0TAsZQL4+QVZEjhR2j4EqqvLcEdggy2KoL3d4Tvzu1HbC7DRroCQiyMgBoCLT7AMj42AN0r4NzZK4euw74s3ZuJLGjoO21jx5GdPoTUFNDTUQuaujbBv7zZbFUQHjoJyB9yG7UkH9ildOQEBh/2gOWFs0qUgwEVgGAp4D5vDMvn5+wfb7vYT8K6fkvdYnZqbG23V9+qxNC+V7j1QxvfA44Eyvgdfa8HHtgNlf1tb8PFgWV+yuQ6UEf61nDCVED5QShjLB3vh6x4HywgffE5ZDakEMTlG0rVWp5aWJtibuQUyd2+GpqZ6Rw6Higtdjs0U8YuOHLi79CUGgLvMtIzTXgQuQoYXsTlk3z0kJBySh0/CTH3J0K8flQ+wDrXi4k3FczqX2+14TgaAM8nX1/9giWIqVxx66HlAYIjlDKy2tjbIyd4Bu/F4gPB1EFECoYuxLXVQf9KNAxEQA8CBYEtXlkCAithT/v7LHaEtVd0bPXYWREUlOqI7Vh9tba1QjpntKiqKbMVwbIt+TaWj70pZY+jMTD4VgWgIUDgl7RaEDoyCAaGRQA6XZiaKHKDwwbStK6ChwSH+euSIQKmE78VGOQSEXAQBMQBcZCJlGFoQGIdS3sc2XIu0HoTQ1vSIUVPxjH+8aRcc24KPoWmlJbm2RrHr7e2u/ftPRwthYdFYFTHO1kIxwZJZd2RoftJ3rrXtCDhoXiiLIO2M5fbw0Za3LISAGAAWmixR1VAEKA76UWw+hvaCwuMTRsLo1BlA29NmItpirigvsC32JVjhjuLSHbSwmAmGw3Qh/4MwrJZ4wCCIxR0C8xkEdXgcsHXzMijEYkQOoHLs4w/YPnNAX9KFwQiIAWAwwCLe9AgMRA0ptp+S+xhKtHiMHT8XBuJWsxmIKtaVlR5Y8EtLc3F7Xxb83uaFdm7CwjvvEFDhR3NQYcFemyHgoDTDdEx2M7Ymc4xetFBBQAwAFdSEx1UQmIkDeQdbvJED8sGQvlGjj4bBiaNwO9n5Xzk6x6fiNHSOTJXrhNQRoKgNKrwUP3i4KRI00Y4N5RDIwKMBOiIwmDah/AXY0g3uR8QbhIDzf40MGpiIFQR6QeA6fP9xbB69XKf8Ni32Q5LGwsjRR4GXl+EnCz3qWVNTAbnZO3Hhd3ohmh71tPKbFMkRN3iEzSDw8wt06lDIOXDbluU2I89gRepQPkUJyJGAwUAbIV4MACNQFZlmR+BBVJASnRhGdGY8dvwcCHZi2l4qMkN3+rnZGVBZWWzYWEXwbxGg+Y/H1M0xccOcavyVoAPnlk1LgSoRGkjkGXoVNioqJGQhBMQAsNBkiapsBCizDv1I/Y4tqRsBFFqWOnamLZ6/m0sMfbkFY/Lz83bb7vZLMbc8hYwJOQ+B/v09IBJDPOmIIDJqCOYeMGzDqdtBkq/HHkwitGPHaqCcDQbSXSj7PgPli2jNCIgBoBlQEWdaBMjlfiE2yulvCFESn/ETj8U7Psdnn6uqLLFVlMvPy3R7z31DJleDUMpaGI9HBMlY0Il8BxxN9fXVsHb1t0ZXHXwex/VXbA4vYuBoPF2hPzEAXGEWZQy9IUDl877EdlRvF6q8Tyl7x4ybDYlDUlXYWTxlpflYQW4tVpDLYskRZschQHkFyHEwBTM/OrqyI+0GbN+2ymYsGjjiD1H2JdgkQsBAkHWIFgNAB4oiw8wIDEblvsM2wggl6Qd86rQTHf5DXoQx3xnp6zCMjzK1ClkVgeiYJDQEJtuyEDpyDMVFWbB+7fdGRoEsxfFQaG2VI8clfdmHgBgA9uElV1sLgTGo7rfYYoxQm+746c7fUUV76Dw/P28Xhnitg6qqUiOGJDKdhEAEOg2mjJgCEYMMjUg9bHSNjfVoBHwHJcU5h72u8Z/NKOskbAUaZYoojQiIAaARTBFlKgRmoTafYxugWys646ezfjrzdwRRbHdO1k7IyFhvy8HviD7N0Ed/dJjb397uVo6MoViLIGXEZIiOGeqQKSCjchd+rnak/YI4G3Jsvw8HcgK2DIcMSDqxCwExAOyCSy62CAJnoZ6U4MdXt76hAyNhytSTbOVmdcs+Uh6Vy92LteB3Y034RqwNb1UKGDAAYoclQ0xyMgxKSAD/oGDwDQwEP2pBQYceba8F/Pqat5+fbfFvqq+HhpoaaKithca62l+f4//1+HojPtJ79dVVULh3L+RkZEBB5m5orqMQdWtSUNBAW3VIih5wRC0CSg61bs23UF9vSHEh2q4i59u11pwN19VaDADXnVt3HdmVOPDnsGmPtyLv7ZGY0c8R1eJystOx2ttyoFh+KxAt5tFDh0FsSoptoe9Y8GOTUyA4PNwpQyjPz4f0XRmwPT0Dsnftgordu6CS2p5MaGuyhn8aVYuk9NGOOBpoaWmCjet/xGOmTCPmiz7I52AjfxwhkyAgBoBJJkLU0ILA3SjlHi2SOgmhVL4TpxwPkZEJnV415ml1dZktcUspFuMxK9Gd+fCp0yB19mxInTkLBo8aDQOjo82qrk2vJkyHkIvHCXnt+6GprR1qcnOgdNtWyF3+M+QtXwbFmzZCe6vhqXOVMaLjplQsG+2IDIN792zFLILLMJUw5ffRSi0ojQoJvaVVqghTRkAMAGXohNFECNDnmOKPKRuZVqI7r0lTTjC8ch8laKFELZSwxaCzWGVc/IODYdTRM2A0Lva06KdMngKe3o7PdaA8gE6MdMpdhEZATtt+qO6UJKkFjwsKVv8CuSsOGASFa9dAa2NjJ07nP6XKhMNHToWhwyYYvgtVjU6ma1d/A5RCWjNRZioqIkRpuIWcjIAYAE6eAOleCwK05f8XLZI6CUlIHI3OfscYXsDHbNv9tGVPi/2YWXiHjwv+kLHjgBzyXI2q0AAgQ4AMAlqVOhMdERSuX2fbHaBdgoLVq6AZ/Q3MQI46FqCskqtXfYHloQ3ZjTofsaTEXEJOREAMACeCL11rQeBBlKI9r/9wDMkaOXq6FgW7E2Km7f7A0FCYec65MGfBhTBm9hzo179/d2q73Ot0PLAHjwXyuzAEOgbb1twM+77/FtI/eA8yv/oCWhucX0XREccCFIGybs13tvTSHVhoeixGOaOwlWmSJ2IUEBADQAE0YTENAneiJvfp1IYq+FFsf9LQcTrFHibLLNv9Pv7+MO3U02DuhRfBpBNOtOy2/mHgMv6pR0MgEw0B2hHoiVow4mD3F5/BzvffhezFPzrVd8ARxwIUKrhl80+wN3NLT7CovPcyMv1ZhVF49CAgBoAeHEWK4xG4Hrt8Ume3VLhlEjr7GRnfT9X5qEyrs7z7PTw9YcL842yL/lFnnGkLwdOJoSvIqsEFbzceDZT1YgjQWBtKSyDj4w9txkD+L6sAHTicAoHtWGDCPKCEQkZR+s61mC8Ax6iPclAUZeoUchICYgA4CXjploXAFchNdw/aPr9UqGXa9FMN+wFtbW2GTRsWY3le5+RDISc+utOfdd75TgvLY824E5gryBBo3Q/kK9AXqs7Osh0R7HjvHSjbntYXFu3XJKdMglGp0w3LHZC1Nw02bVxsy8+gSXmq02ForWJNerqkmN5+QP1x1NZ093XJ6ZJBIQKnYHsDm7ZDah8ffzh65hkQMiDCEIArK4ttVdjqaisNkd+dUHLco3P9c2+5FYZOmNjdZfJ6LwiU4E5AJu4I1PbRECBx2YsXwbonHoGsRT/2Il3/2wMHRsHkaZisyj9Iv3CUWFiwx/Z5bmvTEjY5GUWuN0RREdorAkcaAPT/pdgofzNNzDBsQoKAyyIQEDjAtvgHBIQYMsY9mZttW/7kTOUoojj94y7/PZx9498gKinJUd26dD+0B0A5BHa1toM9M0n5BdY9/ghkfPIR7NcfV98t5l7ePjBx0nzDUgpT5sBVKz+HlmZWQiWClVJ1V3c7EHnDUAQ6GwCJ2NOr2I4xtEcRLgiYBIEBAwbBdLzzp0Q/uol+GDdgVrWC/EzdoruVFzRwIJxy9V/g9Guvg5AIY3Yzuu3cTd6giIEd6ChY2gf/gM6QVO3dA+ufegLS3vyvQyMIhg4bB6PHzMS8AfrDOGuqy2Hl8s+goUE5PJK+HHKT2fmD4uDnHQYAOWKQi6cxt0EOHpR0Jwj0hgAl+Jk2/RTw9NR/wlVeXgjrMImKQXnVfzO0iPh4OOuGm+CEP/4JfAMCfvO+vKAfAYoUSMfdgGY7RZPT4Mbnn4XNL70AjRWOOfomQ3cKlqym3S7d1IA1KsgIqMEMlgr0EPLcrsAnLJoQ6DAAfkB58zXJFDGCgKkRiItPgYmTjzPkrmhXxgbYvm2lQ7L5JYwaDefg+T7F7nt6eZkac1dUjvLaZqARUGDnbgBhQZkHt77+im1XoDYv13B4yMl1/IRjgD77uol2u37B44AyPBawg7bjteSYwjpDsKM/ubQLBMgAWIDt3S7ek5cEAZdDICFxFEzAs1Hd1NzUAOvXfQ9FhVm6Rf9GXlBYGFx27/1w0p/+7FYJe34DhEleoHBBOhZo7FuwwGFaU0KhtegjQH4CjkgulDgk1ZbnwsPD8zA9uP+QQ+Da1d/aHAR7k4W5Nhowt8AsvE6c/3oDy+D36WCI4qnFRdhgoEW88xGIih4Ck6eeqD21b1lpHqz4+ROoqiwxdJDk1X/ylVfBnR99AqmzZmkfh6HKu7Bwf0weFevRH6jOQLWdRkB/3LmJx8yLIxdcZCtQVJ6+01CkKCKFvPjDI+K1+r5QhUzaXfD1C7ClDu7O6ZXyFMyYdXbLmAmzX9+5fbVdWwaGAuOmwmkHYCO28W46fhm2myAwMCwaf3jOAt13PhTXv2HdD9DdD54ueEfPmAlXPf0MJI2Tr6ouTI2QU467AdsUfAM6dKHwwSU33wDlO3d0vGTII0UJHHX06RCG3wvdRL4vebkZUFlRAlVVJTZDIyQkAsLCozHJVscRRL9iaGs/+tNPn3Gcl6zugbqAPDIA6ChL736QCwAjQ3AdBIKCB8KsOeeCt7ev1kFlYuW+rZgi1UgaGBMDVzz0iC2Jj5H9iGx9CFCkwBY0AvqaQOjInttbWmDjC8/CLw/cB83VxkXIkTE8BfMF0M6YkyizvaXfjM8/f6rISf27fbdkANi5aeX2mAkAFkKA6qfPnnce1lHXmxSFHP0y0tcZhgSV2z3zhhthwR13Srpew1A2TjD9qGagXwBVG1Sl+uIiWP6POyDtLcx7ZUcSInv6o9oX4yceC+Qb4xzav6G9xW/u558/rBxL6By9XaNXMQBcYx5lFF0gQNucs/HOPyiYso3qISqMsmnDIsjaR07MxtDkE0+CK594CmKSk43pQKQ6DAEKF9yOuwFtjB4L1qyGJTddB0UbjPOZG5V6NKQMp9xvTqEfvfoPPGXhwnvsjap0irKu1Ck5Ad7jSgOSsQgChABtb06feSYMCB2kDRDydF7zy9d4vrlLm8zOgiiG/9oXXoIrHn4UyNNfyPoIBOId9iB0kKO6AnTWqkJBsXGQevkVtoiPvBXLDdkNKCnOgZaWRoiMSlRRkcuT1L6/cdjOHas/5goSfvsQEAPAPrzkagsgQNuaU6adDIMi9RUao1jnVSs+A/qhNIKGjBkL//r2B1ulPiPki0znIeCN+6wxGCXQgKcBdYonAvSZjps1B+LnzIMsLEHcXKPfN6CivAhqaytsPgH9+mkrtdFX4MeMGD0NMDJgaV8Z5Do+AnIEwMdQJJgMgfETjwGKd9ZFjZjtbIV6trNe1Tj1L9fY7vq9ffU6KfbasVzgcATIJ4B8AxTtAJu+lEHw+z9fAZlffWGI/kZmyexF4Xbc5jj20w+fXNrLdfK2JgTEANAEpIgxBwIjRh0FI0ZO1aZMTU0Fpjr9FBowtEk3BYaGwg0vvwrTzzxLt2iRZ2IEqLrgVvQLoLwBHNqEkQLL7rgN2pr0J9Ojo7PpM4ypk9HjmPtBfpuX17gv3n2stMfr5E0tCLAMgKCgYC1KiBD3RaC+vg7aNFVJG5I0BsZNmKcNTMrp/8uKz6G5uVGbzA5Bo46eAbe+9Q5EDNZ3TNEhWx7NjwD5BGxuaQduQd2SLZvhq0svhIpdGdoHTbUDZqAfjX+Aw3/nv/70o6dPxQFxNkq04+GKAlkGwM40pQIQroijjEkBgd27d8JZ585D5yO+8290zFCYetTJ2rLjUVa/n5d9BK0adOsMTT90CLvg73fAxXfdA5TZT8h9EahBI2AjJQ1iLnMttbWw+Ma/wva339QOpr9/sC2M1tfXwUWm9ve7+dOPn3pM+4BE4GEIiAFwGBzyj6MQaG9vhwsvOQk2b+bH0gfincrcY7Egjqeegjh1dVXw89KF0NhYrxWOgdHRcMubb8PYufp2KbQqKMIcjgA5Bm5obbM5CHI73/Hu27Do+muADAKdFBwShom0zgMvLCjkQGqB/vtnfrrwmTWd+hyCzwOxUVQllVIsxCbEQMDhrp4MXYXVhRB46+2XtSz+VOecspnpWvybsKgPlTfVvfinTJ4Cz6zfJIu/C32GdQzFD2/Bpnh6QBB6+XNp5IUXw0U//wLBgxO4og7jr64qw2p/X2g7qjtMePf/eEF7v/dGT5kbhZdcge0XbHuwbcGWhi0P25fYTsHGBw+FuCMRcMobUHIE4I4fGf6Y8/Ky4dQzZkBDA/8Oe8y4OTB02Di+UiihtbUZlv/0MVDBFJ008fgT4P8WfgQU5y8kCHSFAPkCkE8A+QZwqbYgHz45/WQoTdvGFXUYv+5jtsOEd/EPHQ3+tOT9stqait6SYryK7H/CxgevCz1c+SXZAXDl2TXp2O665yYti39UdJK2xZ+K+axe9ZX2xX/eRRfD3Z99IYu/ST+LZlGLirFM8OoPEf35N7OB0TFw/o9LIXbmLK3DK8jPhM0bl2iV2Z0wWvwp+qYPiz+JoB2CF7DxwSNpbkRiALjRZJthqJ9+9h6sWMn/EaEc/xMnz9cyJErvu37tD9qT/Jx1403wt/+9CZ5Y8lVIEOgNAfoxHuvZHzMH8tcxn5ABcPbn38Cw08/srVu73t+3dxvs2E678cYSZgWECozCsYOuxGuvtuN6uRQREANAPgYOQ6CsrAT+/dCd7P4oK9rkqSdqq+63dfMyW/lStmIHBZB+f3jwYfjjI49pi0rQpZvIMTcCtPSnohEQqsEI8MTEUqe+/T6M+QPtjuuj9B1rYG8mHcUbQ22tLZCtVmvjftQowhitXFOqGACuOa+mHNX9D9yO9cEr2LoNHzkNa4vHsOWQgIyda2FP5mYtskiIh6cn3Pjaf+Gcm2/RJlMEuRcC9KM8Do0AHY6B/TDUdP6zL8BRd/xDK4hbsAy2UTUx8vJ2Y2iwUnKjUBzkg1oH6uLCxABw8Qk2y/AWLf4Gvvn2U7Y64RFxMHzEFLYcEpC1Lw22p63SIouEkJPfXZ9+Dsdeepk2mSLIPRGw+QSgEUBRAjpo+p13wzFPPWsrKKRD3oFjs++hpCRXh7jDZFDqbQb9HnmnMfjdilUMALeabucMtgYLl/zzvpvZnXv7+OHW/wlattULC/ZgWd/FbJ06BFD1vgd+WARUyldIENCBABURmoAhgrqi78f96So45a33wMPHR4d6cMBx9kugpFk6iYwLBpHJ9Bw2Wdv6AKKA1AeQ5BIeAo88dg8UF9vl0NNlhxMnHwc6MpJRfv+1a74D5g/NIR0pwc+jy1bA8Kly43EIFHmiBQF/XM7GY3SArpyRyWeeDWd/9jV4+vtr0Y8yZf6y8kut6bKplDeTJiH/n5ky3IJdDAC3mGbnDXLN2hWw8MM32AoMS54AURpqlVPdgbWrvwFyNNJBASEhcO/X30Lc8OE6xIkMQeA3CASjUylFB9CtrQ6Kmz0HTsWdgP7or6KDGhpqYMO6H3WIssmIjUvWscv3LxTWW/4AbTpbVZAYAFadOQvo3dbWCnf/8yb2nTZVJhuVerSWEW/d8hNUV+kpNOaFW6n/+OQzGDJmrBbdRIgg0B0CYRgVMBqNAF005MSTYf5zL+kSB3Sklrl7kxZ5fv5BEBmZwJU1EAX8myvE1fn1faJcHSkZn90IfPTJO7B37267+Toz9OvXHyZNPh4o5S+XyGt53x492dGoqA9V8xuDd1NCgoAjEIhCIyDFQ99P9uhLfwcz73tAm+ppW1dAZYWeLJrDUibq0IsSBOnxGNahjQll6Ps0mXBwopLzEGjCGuXPP/8IW4EkTPMbFEzGPI+owM/GDYt4Qjpx/+WZ5+Dos87u9Io8FQSMR2CwRz9IwKaLpvztVph47fVaxJFTIB2v6aigSdE+dBTAJFrfxCGwBxDFAOgBHHlLHYF33n0FCovy1QUgp4+PP4zEmH8u6fxhIl0uuutuOPnKq7hqCb8goIRAMu4ChGtIFNTR+ZyHHoXh5y/o+Jf1qNPQTh07C/NqsLNo0g4A7QQIdYGAGABdgCIv8RCora2Bl15+kicEuUePmYFpdPlBUDq3Jmnhv/iue9hjEwGCAAcB8gfw0bURgE6GJ778OiQcO5+j0iFeXUdtlO5bU84P8gXgbyMeGqHrPBEDwHXm0jQjee31Z7GoDpXrVqeBA6NgcMJIdQEHOXU6J9GWP239CwkCzkaA7otTcSdAlw3QH+tVnPbuhxA5kSLo+HTA2baMLYiifwIDB3DlUDQAPwc5VwsT8osBYMJJsbJKZeWl8N83qDCXOlEu/bHj56oLOMipMzyJnP3I6Y+c/4QEATMgQPUCEjX6A3gFBsJZn34JA4axz97hQLjt1+xwW3L+1fFbgPN1JbYIM8ybmXSQXzMzzYYL6PLiS49BfX0dayQJiaOBQv84tH9/O6xb/a2WBCVxI0bYwv0o7E9IEDATAkm4CzAADWZd5BcegVUEvwbfgfwQekq4tXnTUrZqgyIHQ0zsUK4cynx0E1eIq/GLAeBqM+rE8eTn58B77/+XpYGXtw+MGj2dJYOYd2xfDWVlBWw53n5+cMf7C4ES/ggJAmZDgJZ+qh7IdpXrNLCQxCFwwsuvAWbj6fSq2tPsrB2Qk71TjbkTV+rY2aAhQ+A1KJIKBgkdREAMAPkoaEPg6WcfxCpezSx5I0dNB8r5z6Hq6jLYlb6eI+IQ71VPPg0Jo1MP/S9PBAGzIeCL6/QojUmCaHxJJ50Ck667UctQqdx2c3MjS5Y/JgdK4RcBC0IlbmAp4mLMYgC42IQ6azi7M9Ph8y8+YHUfHBIOQ5LGsGQQ8xbcdqQjAC7NvfAiOOGKP3LFCL8gYDgCEegPEK/RH4AUnnnvvyBqylS27rT4b09byZaTjMmBAvgOgdehIsFsZVxEgBgALjKRzh7Gk0/dj9XBeIvuuPFz2DnAc3PSobQkjw1HTHIyXPv8i2w5IkAQcBQClB8gSMO2fYe+FBlwypvvgk8I2wsfsvamsbME2hwCx83uUE/1kQZzrSqzq/GJAeBqM+qE8Wzesh5+XPQ1q+e4+BQIC49lyWhtbYZtW5azZBAzOfv9/b0PwC+IdgyFBAFrIEA/5mPwKICfNPvX8QYPToAT/vPqry8oPqPKm5s3LVHk/pUtEguCRUUP+fUFtWd0thGgxupaXFQOqhUbPdpFGhwy7Oqvu4vpzHnxkm9h67aNsA1bUTHf8au7vuT1rhGoqODF/Htitq/UMTO7Fm7Hqzu3r4HGRl4EAnX3p8eegKRx4+3oWS4VBMyBAJUPTkEjYEcrbzeu82iGnnYGTPjLX2Hj8890ftnu5xXlRbadgIQho+3m7cwwctRRWHxob+eX7H0ejgyUyvMxexld7Xpa+LdjG2vvwIYNHW4vi/brt+/YArffcQ1kZNAQhKyKwJCkseCLWb84VFNdrqUa2cxzz4NTrrqao4rwCgJORSAW/QHy8SigCu+6ddGsBx6C/FUroGjjBpbINPQFiIkdBhTto0ohAyJspcELC/epiiC+m7FRVi+edyJJsjDRrtE6Ff1TU517h/TFlwvh/AXHy+KvMnkm4qFzvaHJ/M8SxRtzHf+ikpLg+v+8YiJ0RBVBQA2B4Z79tGUJJA08vL3hlLfeA+9gnv9cc1ODFodADREBUTisP6qh6zpcZAAoHcxMm8rfslWFsaAgF+6592ZobW1RFSF8JkEgfvAI8PXlHcfl5Wag418ua0Se+ANH5/7+zB84lhLCLAhoQiAYdwBiNBYMIrVChiTBcc//h63hvr3bMFU4r2zwwLBoiMCKgUy6Ffn5xUaYSjiTnQyAt7EttUeJqVNmwGmnnmcPi9Zr77zrBqirq9UqU4Q5BwEK7eEQGYFbNTj+nX/732GYpjzonPEIryCgC4FhmhMEkV4pZ58Lw889n6UiOQRu2biUJYOYU0ZO5cqIRwGXcYVYmZ8MADoo+gO2Pq2o/v4B8MD9z7DDtVRBq66pgpWrlqqyC5+JEIiOGQqBQbzEXOk7VkNjQ58+ut2OPHLIEDjv1tu7fV/eEASsiABlB6RUwbpp9oOPANUN4FB5eSFk7dvOEWHbAaCiYUxy65DAjk8HuVRSGagVPYE5ccI0+HjhEoiLS+jpMkPfS0vbjGe9ZLMIWR2B5OH0kVMnyjWeuXuTuoCDnFc+8RR4+/qy5YgAQcBsCMRhciCduQFofIExsXDU3+9kD3X7thWYObSJJUeDL8A4VID3Q8QagXOZOwwA0iIDG2VZuBLbp9hsh6pRkTEw/9iT4d57Hoe33vgSEhPZRRlQtDqlZ6SpMwunaRAIC48BrvWetnUFO/nQlJNPgWmnnmYaXEQRQUAnAhgVCOQQqJsmXns9DBw+giW2CR0CM3Yq+aAf6pdyAoRgBlEmXcHktyx7ZwOABkHBo+TlcRa2+BXL0x9YungrPPv0m3D+eb+D/iYohRodxUsWg+MSMgECycMns7SgfP+FBXtYMijhD939CwkCrowAVQuM0uwQSFkC5z3+NBu2vXu2mmEX4EIcCK8ACRsJ5wg40gA4TIuBoeGmc7NPHc0PGTtskPKPwxEICg6zxfFyOt6VzrtzoL7PveVWiB7q3B0tDgbCKwj0FQFKE6wzQyD1O3jeMTanwL7q0NV1lL1zT+aWrt7q82uUV4DpSzQAOzu7zx260IU9GgBmHGds7GCQXQAzzkzfdUphev7X11VDbg6dWKlTZGIinH/b39UFCKcgYCEEfPAUYIgBDoFzHnoUvAJ4Ybzkx9PW1qqMZj/c4Uhh7ihi5255DGA5A4A+JXff9Yjyh0UYnYuAn18QxMbzskjuyljPdgSldL/efm656+fcD4D07jQEBqNDoJ9md4DA2DiYdtsdrDFRciDKDcCh+MHDgX5bGDQXeZMY/JZktaQBMHfOCXDmGQssCbi7Kz0Ms/5xfEkaG+shO4sXPjTphBNh+hlnuvtUyPjdDAH6sU8wYBdg4nU3QmgKz6jfnbGR5dDbr19/GJw4kjOjZBr9niPAiryWNAAI6Pv++QRcdeVN4OGh+2TLitNoDZ0p/3fCkFSWspm7NuJ2YZuyDHL8u+pJvvOSsgLCKAg4EQHKDqg79R2lCZ736JOsUTU01EBu9k6WjMEJLAOA+r4cm2XXRBqAvWTZwXp5ecMN1/0fvPfOd3DC8adDfFyivWOX6x2MQGLiaKDKf6pEMcPkNcyhU67+C8QkJ3NECK8gYFkE6Ac/3oBdgIT5x0Hi8SeycMlgHu0FBIRAeAQrSoxyC5/AGoTFmKkaoKVpTOoEeOqJ121joCyBpaW8HNOWBsNg5S+7/HQWvpT3n0PkLUxew6pE+f7PvvFvquzCJwi4BAKUHGgfbqKp76N1DcPUW26Hfd9/2/WbfXi1FhN7FeRn2qoF9uHyLi8ZnDAK64LkdfleH18kZ8Bv+nit5S+zvAHQeQaCg0KAmpB+BHamb2Mt/hT6F8xI2EFewtysf8dccimExbLuEPQDKxIFAQcjQHtwsWgEZLfpzagaO2MmxEw/GssGr1QeESUGorA+VYpF3i2blnIKxZ2OfVNmoVJVHazEZ9kjACuB7Aq6fvf956xhxMWnsPjJS5i8hVWpHyaxOu+W21TZhU8QcCkEBuP3QXNAgA0f2gXgEFUJLC7KUhbhgUeMMXGsIz6yjy5VVsBijGIAWGzCnKXu999/weqaYwC0t7cDeQlzaMbZ58jZPwdA4XUpBHxx9Y/UnB2QABpy4skQnjqGhVUGM8lXAh4DMOl8Jr9l2MUAsMxUOU/RzD0ZQE2VQrFiFznoqFJB/m4gL2EOnX8b786E07fwCgJmRCABjwGMoKk383ba6Ay/qkp9B57qjHB+bxCTqdjYBQaMwFa3TDEAdCPqgvKcvf2fk53OQnXi8SfA0AkTWTKEWRBwNQSoSmCYAbsAKeecByFDklhwsUMCE1m7ALQuukU0gBgArI+pezBztv8pTWdsnPr5f3NzI+tMkGbo/Nsl5a97fFJllPYikGiAAdAPc7NMvulme1U57PocTPXNKfs+OGEE0G8Pg05m8FqGVQwAy0yVcxTNztkLFAGgSuERceDr66/KDnn4Q0A+AKo0YtpRMGb2HFV24RMEXBqBUDQAgnkLZZf4jL7kdxAQGdXle315sbGhFqOO1MP5KC1wRER8X7rq7hraAXD59dHlB9jd7MrrfUOAc/dPPXCc/4g/J4e3/S93/4SikCDQPQIUEqibPDDj5sS/Xs8Syz0GiOdlBgxD5aexBmABZjEALDBJzlTxx8VfK3ffv78HK6aXqv6VlxUo958wajRMPfU0ZX5hFATcAYFBuAug3wQAGPunq8AnhCrtqlF+3m5W2u+o6EQ5BugF+u4MAEoXPenpp+4fk5a2GVpa1LOv9dK/vG1iBGpra2DrVvXwu8ioBPDy8lEeIffu/4Q//on7A6CsuzAKAlZBgALfww3wBfAOCoLh512gDAOtO0WFe5X56beHIpAY5PJ+AEcaAIkI1lfYKOZq3Qv/eeLsc84/BiZOSYArr14AeXnZ+LKQuyCwZu0KVp1u7vY/ZwuwPzoizblggbtMlYxTEGAhYEROAFJoxIKLWHrlMAsERUYlcvqfgMzRHAFm5+1sAFAO5C3YyOqhHYBDRJbYT8t+gNPPmgUffvTWodfliWsjsOqXn5QHSEV/oqKTlPkrK4qhBnODq9L4Y+fDgMhIVXbhEwTcCoEI3AEwoq5qLKYGDk5IVMayqDALWpqblPkjIxOUeZGRTkZO4ggwO2+HAXA8KvoKtqCeFK6rq4U777oeVqxc0tNl8p6LILBqlboBMAi/eB4e6qUmuJb/vIsudpFZkGEIAsYjQIs/GQHaCSMMRlxwobLY9vY2yMvdpcw/IHQQ+Pj4KfMjo0sfA5ABQCnaaPHvM935j+vx7qy6z9fLhdZDoKSkCHZnpisrTuF/qkTxv3m56pkHffz9YfqZZ6l2L3yCgFsiYNgxAMMAoInIydnJmo9BkYM5/Mchs/qdDKdnB/CSAXAlNrsCJgsK8+D9D/7rAPWkC2chwNn+J53Dw9Wr7pUU50BjY73y0Keddjr4BQYq8wujIOCOCJAjIDkE6qawkaMgYuw4ZbFlpflQX6+eCnxQZKJy38gYjG0mR4CZeckAoLzHdtOWrRvs5hEG6yCwkrH97+3ti6V/KYxWjXKZsf+y/a+Gu3C5NwJ0AEAhgUbQSKYzIOc3gbkDQHBQUiCXJDIAJquMbFvaJhU24bEIApwdACrGwaHiomxl9qCwMKDc/0KCgCBgPwJRBhkAw89fAFSSW5VKGL8J5ANAvgAMUrpJZvTnMFY621Byk8zPz3GYkr111NraAhm7dgAZJcVFBb1dLu/3gkB9Qz0UMXAMY2z/19ZW4vZ/XS8adv/27PPOB08vIzYyu+9T3hEEXAWBAWgA+OAmQNN+vSMKjImFuFmzIeenpUqCy8sLMSV4G1ByMRWiaACKLFKkSchHWyOaUVHURiObpZ0bKDzx+RcfhddefxaamtRDRTTiKaIQAc75f2lJLgvDueL9z8JPmN0bAVrlyBkwu03/WjfigouUDYC2tlaoKC8C1d3FQVGJkL5zrerkkqN8MjZ1z2TVng3mU9+TMVix3sRTffqzzzsGXnjxMVn8ewPLge97enlDyIAI5R7LGAVAIhMTYSTGHQsJAoKAOgJhBhQHIm2Szz4HqEaAKnGKAw3EjICcrKSos9JRuepYHcVnSQOA7vxvuOkPsAu3/YXMhUBYWDQr/W5JSZ7ygCjvP7MEqHLfwigIuAoCdAxAOwG6ySc4BOJmzlIWy9kdpN8F1d2DgwqLAaA8c5oZadtfFn/NoGoSxzn/r6PzfywDqkpj58xVZRU+QUAQOIgAnbIHGbQLEDdrjjLOVBiM/ABUibMziX1OUe3XzHyW2wEghz868xcyJwKs83/G9j9Z+GNmq/+4mBNN0UoQcA4CoQatDHGz5yoPyOYHoO7IBwMYR5OoNNUFMAgVZUjYjJYbEHn7i8Mfe94NEUCpfweEquffL2Vs/yeMTgUKARQSBAQBPgIDDNoBiJo0GbwCApQV5BwDhAxghQKS0iOVFTcpo+UMAMk/YNJPEqo1EM//+zNifTlf7jFz55oXGNFMELAYAqEG+QH0xxDdmKOmK6PB+Y3w9w8CSlLGIJfzA7CcAQCYJ17InAiwzv/rqqBBzv/NObGildshQPHhgQbtAvD9ANqV50P8AA6HznIGQOpoOooRMiMCFAGgSpztfzn/V0Vd+ASB7hEwqx9AZUVR90r38g7TD0B2AHrB1/C3U1JG4jaOeiyp4Qq6cQdBQaHKo+ds7cn5vzLswigIdIuA+AH8BhqqaGTp5HlHjshyOwCenl5w+WVXHzkO+d/JCJADoK+fegU+qvilSnL+r4qc8AkC3SNAfgBGENcPgPNbwdwBIAeCVCMwcZZMyxkABNS119wKw4aNcBZm0m8XCAQEUrZMNWrD0M76+mo1ZuSS+H9l6IRREOgWAaqoEWBCP4Dq6vJude7tjYDAAUA3kQway+A1HaslDQA6AnjqidchOdnlojJM9wHpq0KB+MVSJSoApEpy/q+KnPAJAr0jEGrMJgBw8gE0NNQA5QRQIfq9CAkJV2Ht4EnoeOIKj5Y0AAj4oUkp8PHCxXD1VX8DH0Z+aVeYRDOMgSxrVeIYAINHjpL4f1XghU8Q6AWBQIOOASgfgKevekgeZQ1VJWY+gHjVfs3IZ2mHBi8sPHP9X++Aa66+RcoBa/h0vfzqU8pJlgIDnGMAxI+UXSANUy8iBIEuEfDv8lX+i+QHEJI0FMq2pykJo5uGYMU7eWYo4GAlhU3KZGkDoANTOtMZNXKsrXW8Jo/2IUAFlp574RH7mDpdzdoBqKnoJMm+p7EpKfYxyNWCgCDQZwT8DfIBIAVCk1PUDQDGb4Z/QHCfx9/FhS5lAFj2CKCLiZGXGAgUFRVgjiX1JEuBQc7ZAYjFHxEhQUAQMAYBH/QBMGqRIANAlTjHhn6MaCXU16WOAIyaW9V5FT4nIVBQqF6G1xYC6Kue37u2VnYAnDTt0q0g0CMC5APoZ5AjYOiw5B777ulNlgHA+K1CnSjWWT3hSU+DcsJ7YgA4AXQzdlnIMAA42//NTQ3Q0tykDEkM40dEuVNhFATcCAGjjgEGML67tYwjAA88Mib/MQa5zDGAGACMT4ErsXJ2AJwVAhgYGgrB4ayQHleaQhmLIGAIAobtACSr7wA0Nzeybhw4ScsQZDEADPmkiVCnIVBUmK/cNycJEGcrT87/ladMGAWBPiNg1A6Af8Qg8AlWTyDGOTr081XPWorAuYwfgOwA9Plr4NoXWnEHQCIAXPszKaMzBwJGhQLS6AYwdgE4Nw++fuo+S6i27ACY46MpWuhCoJCxA8A6AmCc5ckOgK7ZFzmCQPcIGLUDQD2yIgEYvx3MSAAxALr/uMg7VkSgsEj9CMDbR/0egWPFyw6AFT9porPVEDA0FJDjCMjIBsj0AZAjAKt9iEXfnhGoqlJPrckprtHcVN+zYj28G8PYPuxBrLwlCAgCnRAwayhgE0YQqZKfHAHYoBMfANVPkAvxNTY2KhfXIBg4BkALVgJUpajEIaqswicICAJ2IOBjUEbAYMZ3uLW12Y4RHH6pL88JMOpwadb9TwwA686dNs3r6mpYsjgGAJUCViX/YFZKT9VuhU8QcDsEPAwasQ/jO9zK+O1gHgFQEgGXWDtdYhAGfTbdRmxtrboB0L+/B/Trp/Yx4nyBffz9oV9/tX7dZmJloIKAJgSMKhrjFagejsf6/fDx4yLjwxVgBn75BTXDLDhZB44BwLn752zh+QUFORk16V4QcB8EjNoB8GZ8jzm/H/3wSINuXhikXsuY0aluVjEAdCNqQXm1jCMAngGgvv3vx7hzsOAUicqCgFMR8DCoHoBXgPoOAOf4kMBk7iCKAeDUT6R0rg0Bzg6Ah6d6Tm2OBe8XKDsA2j4AIkgQ6AUBTzDGAujv6QmevmprKVUvbWtr7UXz7t/uzztCVFO6e3Wc8o7sADgFdnN1yjEAvLCwhipxLHg5AlBFXfgEAfsRYG2W99KdF8OY5/gB9O/HGpVLGABG+Xb0MuXGvF1TUw0lpUXGCHdhqdnZe5RHR5W1VInz5ZUjAFXUhU8QsB8Bo44ASBNvPM5rKC2xXynkoF1EH0WHPtkBwBBuJdRNxLRj51Z47fXnYOu2DZCVtQdoW0jIcQh4OusIgOE85Dh0pCdBwDUQYN0r9wKBsyIBxAnQwgYA3T2+8OJj8NLLT6IVqO5M1stnU97uBQFxAuwFIHlbEHABBIy8U6QdAFXi/PbLDoCFDYA777oBPv3sPdXPjfBpQsBpBoDsAGiaQREjCPSOgLE7AOoOvW2MbIASBWDRbEZLf/pOFv/ev7MOucJpPgBiADhkfqUTQYAQMNQHgPFd5u0AsMwal3ACtGQUwD/vvUW+lSZBwIORTKOdEcLj7eMS3z+TzKKoIQj0jABrqexZtHIYIInlhQGyRuUSP0CWMwDy8rKhoDCvl4+UvO0oBNra2pS78vBQP1lsalCvIqissDAKAm6KgPq3vHfAWurVv8seHupRSKopzA+OSAyA3qdW/xXb0jbpFyoSlRFobVOvyMVJItRQW6usszAKAoKAfQi0GRhc1VKn/l3m+CAxnQBZ2wf2oW/c1ZbbAZC7f+M+DCqSW1vUIzA4X96GGvUCRirjFB5BwJ0RMHIHoJnxXeb8hmDMOGdK1a0WTq+aeS1nAAxPGa0ZAhHHQYDjhMP58ooBwJk14RUE7ENAPeFu7/3wDAD1VOQtjAgCHJVL3IFYzgAYPXoclp81Ji917x9VueJIBDhhOJwkQnIEcORMyP+CgHEIGLkD0FJXp6w45yaipUX9+BIVrlZW2kSMljMAgoNC4Ojpc00EoXur0tomRwDu/QmQ0bsDAkb6AHB2AFhhyC1NnKmTHQAOehzee+95HPz9AzgihFcTAk47AhAnQE0zKGIEgd4RMHYHQP04nbOLKDsAFk0EFBs7GO6840Hw8HAJR8zev30mvsJ5BoBLGOAmnllRTRD4FYFWYDnM/SroiGft6ETc1qR2J05HwaprAIUvt7ezzBqX+AGy3BFAx+fn7LMugvfe+Q6GDRvR8ZI8OgEBTklfThhgo+wAOGG2pUt3RcCoI4BmVgggwwGQt/1PHwOX8AFQz8Rigm/CmNQJ8MmHS2Dxkm+xGuBG2IatqLjABJpZS4XWllbIyd2npDRnB8CLUUq4nhE6pDRQYRIE3BgB1r1yD7i1ML7HHAfAVp4BQI5PatsWPWDhjLcsbQAQYF5e3nDC8afbmjMAdIU+y8tL4ehZw5WGQtto7e3toJJUg+PA09zQAO24jddfjoGU5k2YBAF7EDAqDLCZsZPHMQDk/P/A7Fv2CMCeD69c2zMCoaFh4O3t0/NFPbzbyoin5Tjx1FVV9aCVvCUICAK6EDBqB6CJ8R3m/Ha0tLJu4F1i+58+G2IA6PqGWFgOOdNEDopWHgHHD4BjxRfu3aOsszAKAoJA3xFo4mXN67ajKsZ3mLOD2MrLAeASDoA0KWIAdPvRdK83oqJilAfM8QPw8fVX7jcvI0OZVxgFAUGgbwiQ/3+DMUEAULF7V9+U6OIqX8ZvRwvPB0B2ALqYD3nJwghERqobAI2N6pm8AgNDlVHL2yUGgDJ4wigI9BGBJlz82/t4rb2XVTK+w5zfDqYBIDsA9k60XG9uBDg7ALW1lcqDCwwaoMwrOwDK0AmjINBnBOoN2v4nBSo4BgDjt6OhXj35EKqt/oPXZ9Qdc6EcATgGZ9P3EsXYAairVXfGCwxUNwDyd6lvH5p+QkRBQcAkCNQbqEdF5m5l6ZwdAM5NCyqcpay0yRjFADDZhDhLHc4RAOfLxPkSyxGAsz4t0q87IWDUDkBdYQG0MMIAOTcPnN8snHuX8T4WA8Cdvsk9jJVzBFBXp74jxjkCqK+uhsqioh5GJW8JAoIAFwHDHAAZO3g+Pv7giTlgVIjyltTXsfz4xABQAV54zIsA9whgv+I5oZeXD/j4+CkDI7sAytAJoyDQJwSM2gGo2K3uxMu6caivhv37WW6NYgD06ZMjF1kGgbCwCCysoZYYkrIBNjaoO9VwtvLEEdAyHzFR1IIIGBoCyNgB4BwdMrf/KSlitgWnskuV5QigS1jc70VK5TtoUJTywDlfqoAgCQVUBl4YBQEDETBtCCAjAqCOEbWEUNPib1RiRANnsmvRYgB0jYtbvso5BuAYAKwdAMZdhFtOsgxaELADAaO2/0kFXgSAevRQbU2FHQj85tLM37xi4RfEALDw5OlWneUIyAoFVN8ByN6ephsGkScICAIHETAqBLC1sRGq9qivpU48AnCZ83+aYjEA5Kt+CAGn7QAwtvPIB6CisPDQGOSJICAI6EOgtt2YHMCFa1ZDW3OzkqJUuyQgMESJl5g4u5XILgaAMvLCaGoEIhn1ADihgAEB6tt5BOjWn5aaGldRThCwKgIVxqz/kPPzT8qQ+PkHYflxDyX+NiwhznFYxk7FAFBCXphMj0BiwlBlHSkboGoooIeHB3D8ALaIAaA8b8IoCHSHQAu+UacY3tudzI7Xc5ct7Xhq92NwcJjdPB0M9ZizRPV36qAMMQA6wJRH10Jg7JiJygPihgKGhccq9y07AMrQCaMg0C0CFQZt/9P5fwEeAahSOOO3oobnAEje/ztV9TYjn1rgt4lG0tbWCj8vXwRbt26EbWmboKiowETa6VdlYFg4pI4eD2NSJ8CsmfPB19dXWycDB4ZDbOxgyMujSBf7qaamHGh7ToXCI2Iha5+aQ19uerrNDyA0Sj2MUUVn4REEXBmBSoPu/m3n/01NytCFR8Qp85aXsdaH7dixUX6RymPiMFraANiZvg3u+L+/wvYdWzgYWI535cqlNp2HDBkG/77/WRg/fortfx1/xo2dpGwAlJXmw6DIBCU1yADgEO0CzL5gAUeE8AoCgkAnBCraO/2j8Snn/J/S/4YMiFDWpoxnAKxT7tikjJaNAvjiy4Vw7vnz3W7x7/w52rt3N1x06cnwzruvdn6Z9XwM4xigtDRPuW8/vyAICFD37BU/AGXohVEQ+A0ClO6u1qAdAM75f1hYDFAUgArRbnFVZbEKawfP2o4nrvJoSQOgoCAX7rn3ZmhtJTcV9yYqbPHgw/+AXbt2aAGC4wdQUV4E5GWrSpxdAPEDUEVd+ASB3yJA5/9GBACwz/8Z2//0+0S/lwySHQAGeNpY77zrBqirU889r00Rkwhqbm6C2/7+F653q200o0eNY9UEqChXj8nnnO11+AGYZEpEDUHA0giY9/xf/aiwvCyfMyeUtMDlzpottwNQU1MN8uAchgAAQABJREFUK1ct5UykS/KSH0RWFj9CxdfXD1KSRypjxDkG4Hj3ksKyC6A8bcIoCByGgCnP/z29YcCAQYfpac8/zPP/rdiXuueiPYo68FrLGQBp2zdrudN1IMYO62pb2kYtfXH8AMo4fgAYQeAfEKw8BvEDUIZOGAWBQwjQIV6NGc//w6OVz/9pcMwIAJfb/idMLGcAkOe/UNcI7ExXC6M7UhrHD4C+ZJxzNs4xwOovPof9vDO+I6GQ/wUBt0Og0qDz/4bSEshftVIZT85vQ3V1GbS0sG7gXc4BkCbCcgYAJ1+98ifPIoy6sKFQQFUiT9vKiiJVduAcA5QXFMDmJYuV+xZGQUAQACgz6O4//cMPoL2V4gvUiPXbUMqK/yeFZQdAbdr0clESHKGuEdCFzdChw8HfP6DrTvrwKuUDUCWOlU99LnnnbdWuhU8QcHsEyPO/yKAMgDvfe0cZX09PLxgQyjn/V/9NQqUbsOnZXlVGwBhGy+0AxMUlQHSUuieoMTA6X2pgYBCMGDFGiyL9+/eH0QxDq7Q0V1kPf/ID8Ff3A1j5ycfQ3EDfVyFBQBCwFwHa/m8yIP6vEkv/ctL/Hoj/V1+uyngRALT9r751Ye8kOPB6dUQdqOSRXf3jzoePfMnt/7/91vu1pgXmHAOQty2n4MagqMHK81lfXQ2rv/xCmV8YBQF3RqDQhHf/NB+DotQyjBJvY2Md1NdV01NV+kGV0ex8ljQAjpl3Ipx26nlmx9Zh+s2ZfRyce84lWvvjOAK2tjRjxq0SZX3i40co8xKjHAOw4BNmN0WAbvyLjTIA3n9XGVXK/Bcbl6LMX1S4T5n3ION3XAFm5bekAUBg3n/vU/DHK67DpDVqdaHNOiH26EVfjAsX/AGeeExfKuCO/jmhgCSDEw4YFh6DxwBqRYWo7/XffgM15eX0VEgQEAT6iEApLv5G5FYtWr8OKnZl9FGL314WERGPu5v+v32jj6/k52X28couLyvDV9d3+Y4LvGhZA8DHxwduvuluePftb+H4406D6Og4F5iOvg0hIiIS5s09EV575WO4+x+PsBz2uuuR/CzI30KVSkrU/QCoz7j44apdQ2tLC/y88ANlfmEUBNwRAaOc/3YwnP9oHuIHc34LmqGkOIcznT8iMyt/MKdzo3ktXQ2QwKGt6qef/K8Np7LyUiguZod72GSZ9U/YwAgYNMgxZW+PO/YUeP1/zytBUVKcjQtxM1D1LhWiL31GunrkzVKMBjj5yqtUuhYeQcDtEKDkPyUGbP/vx9og6QvfV8bTw8MTomOHKvMX4vZ/ezuNTplcdvufELG8AdB5WsOwnj01IT0IHHfcqcoGABUFys/PhMEJammFg4LDbGU/VX0Jtq9cAUX79kFkYqIeMESKIODCCNDiz1omu8Eme8kiqC9WzwsSHZMEnpgCWJXy83arsnbwfd/xxBUfLXsE4IqTYbYxjR83BcLCIpTVys1RP/ejTuMZxwAUhbD03XeUdRdGQcCdEDDr9j/nKJCSkhUVZXGmkWL/1Wucc3p2EK8YAA4C2ordUD6A+XgMoEp0DNDUpB6TH4fHAKq1v0nn7159GdoYmcdUxy18goCVECDHP3IA1E2U+nfXJx8pi/X28YNIRvhfcVE2fv9Zbo0uvf1PEyMGgPLH0z0Yj5uvbgDQXXhe7i5loHx9A4CTGZCOAJa9/55y/8IoCLgDAhT6p3/5B9j43DPQykjKFReXjDcA6ksUHUEySQwAJoDCbnEEjpo2C4KC1DPz5eaksxDgHANQxwsfepCVlIilvDALAhZAIK9N//LfXFMDm15UcyDugIyz/U8FyQoLWOXRG1GPZR26uOqjunnlqojIuA5DgHJwz51zwmGv2fMPVQesr6+xh+Wwa2Nih7FyPWRtT4M1X315mEz5RxAQBA4gUIF3/9W4U6ebtrzyEjRVVSqLDQgIgYFh0cr8lI68pblJmR8ZqaoYGQEuTWIAuPT06hkc5xiANMhjOANSGGFUdBJrIB88+G8WvzALAq6KwD4Dzv7bmppgwzNPsSAj/x8OFfCS/1DX73L6twqvGABWmSkn6jlr5rGsOgM53GOAwbzUwDt/WQXbfl7mRASla0HAfAjU4J1/mQEGwPa334C6wgLWgOMZ33nyPSrgnf/Xo/KfsgZgEWYxACwyUc5U08/PH2YcPU9ZheqqUqipVk/NGxmVCIGBA5T7J0bZBWDBJ8wuiECWAWf/lPhn3eOPstDift8p819jI63hyvQZctYqc1uIUQwAC02WM1U9bv5prO45zoAUCpg8fBKr//XffQt7Nm9iyRBmQcBVEGjEY38jYv8zMOyPSv9yKGXEFA477MncwuJH5re5AqzCLwaAVWbKyXoeM+8EdMZTTxzJTgqEW4K+foEsFCgiQEgQEAQAstFLXr/rH8DaRx9iwUuFwMIYzn/kcFxUuJejQykyf8cRYCVeMQCsNFtO1DU4eABMmzpDWYO6uiqoKFdPCdq/vwckJ09Q7p8Yl3/0IRRk8u5OWAoIsyBgAgQoNY4RoX/7fvgOSrZsZo0wZTjv7n/fnq3csF+qItbKGoSFmMUAsNBkOVtVTlZA0j0neydrCIlDUsHb21dZRjueTy58WHYBlAEURpdAIBfP/o3I+7/mYV60TciACFbmPyr6k7WPsveyyG22/wklMQBYnxX3YiYDgJOaNytrOzQ3q4fWemBOgqRh41mg//Df18UXgIWgMFsZAaprm9Omv7otpfzNW7GcBU3K8Mksfso6ykk9jp3T2cFKlhIWYxYDwGIT5kx1qQwxhQSqEuXl3otbdBwaOnQcVgfzUhZBuwDPX3sNd5tQuX9hFASciUA+hv01a1agpa4OfrrtZpZUivKhpF8c2st3/nO76mFiAHA+cW7Ie9mlV7JGvWf3JqAqXark5e0DiUljVNltfDtWrYTFb77BkiHMgoDVEKD7/iwD7v5XP/QA1OTmsOCgKB/O7iKVDS8vL2TpgMxutf1PYIkBwP3IuBk/5QMYMkTdUqctuuysHSzUhqEzIDkFcui122+FuspKjgjhFQQshUA2nv03aHb9r8hIhw1PP8HCgaJ7OIl/qHMNoX+rUQzvh4mFgnOYxQBwDu6W7ZWs9Esu/jNL/90ZG1hb8FQlcHDCSJYOlcXF8Obd/2DJEGZBwCoINOHCv9eAu/8lf7se2pp5hwoU3cMx6CnnPyfPyME5fNoqc6lTTzEAdKLpJrLOOmMBq0IghQTm5+1mocXdMqTOv3rxBXEIZM2CMFsFgV24+Ov2/CfHv6xFP7IgoKgeiu7hUDY6F3OOFbFvylu8kKODVXnFALDqzDlRb3//ADjnrItZGuxKX8/ip2phsXEpLBniEMiCT5gtgkAl5sYv1JzzX4fjH8E3FKN6KLqHQ3uYjsXY94vYKD2C25EYAG435XoGfPHFf8RtO/WPT2VlMVDObg6NSj2alZ2Q+haHQM4MCK/ZEaAj//RWzQf/KFOH45+fXxAMS5nIgjAvNwPqalm+PHR+8RJLCQszq/+CW3jQojofgfi4RJg753iWIO4ugL9/EHDzhtMAxCGQNY3CbGIEKOkPVf3TSToc/0ifMeNmsQx4qvq3Yzv57rHofeQuYkmwMLMYABaePGerftmlV7FUKC7OBgrf4VAy3kEEMCsFikMgZwaE16wI0J72HgMc/xbfdB3b8W/QoMHsuP8cjCaqrangwu+Wzn8doIkB0IGEPNqNwFHTZmF+fp43/q4Mni8AeQ+PHTfHbt2PZPjy+edgww/fH/my/C8IWBaB3a3t2g+2N734HGQvXsTCxPadHc/7zlLa35072Hf/K3Eg61iDsTizGAAWn0Bnq3/pJbyQQErfWV9XzRpGZFQCRMcksWTQduJjv7sUygvIIVhIELA2AtX4eaasfzqpeNNGWPb3W9kihyaPh8CgUJacfXu3AVX+Y5Jb3/0TdmIAMD9B7s5++qnnQ0iI+peZFt7duzawYRwzbjbrPJEUoKOARy69GPZjqVQhQcDKCJDjn87lv7mmBr669EJoa2piweKHSX9GjJjKkkEhfxk717JkIHMeto+4QqzOLwaA1WfQyfr7+vrC+edextJi3940ricv+PsHQzKzmAgNYsvSJfDu/fexxiPMgoAzEcjDO/8qNKx10o/XXgWVmbzcHaRP6lh0/OOG/WVuhsbGeu7wnkcB6jnJub2bhF8MAJNMhJXVuOjCP+Ddt3pqXjrP27p5GRuCFMwnTvkBuPTuv+6DrT8t5YoRfkHA4QjU47qfgWf/Omnr669A+kJyludRxKB4zN2RzBLS2tIM3OghVKAc27MsRVyEWQwAF5lIZw4jOjoOqFQwhwoL9wE1DpFz0RimcxH1TwmCHsajgKoSXoQCZyzCKwjYiwAt+1tx8deZ8a9sexosvflGe1X5zfWUM2Sshu/m7l0bWSXFDyr2CD7yHI9+M0JrvuBpTbVFa90I0Lnaz8sXwdatG2Fb2iYoKrLPGa6ykoxqHtEuwCC8S+DkBY+KSoSo6CFQWLCXpUx5fj48dvll8M8vv2ZVKWMpIcyCgB0IULpfnTH/rfX18OUlC6C1ocEOLbq+lDL+BQUN7PrNPr7a3NyI/kIb+3h1t5cV4zvPdPuum70hBoCbTXhXw92Zvg3u+L+/wvYdW7p622GvUUYvKhTETe5DYYElmGOgDe/kObT+u2/ho0cehnNvvY0jRngFAcMRKMFz/xxM+qOTFt/4VyjfyS+QR9X+ho+cxlYtI30dtLbyCg+hEg9gq2Mr4yIC5AjARSZSdRhffLkQzj1/vtMX/w790/FL3tBQ2/Gv0qN/QDCMHDVdifdIpjfuutOWLvjI1+V/QcAsCDTiur9d87n/jnfegrQ3/6dliOMnzANPpuMfhfztzWTfoOTigCjvv9BBBMQAcOOPQkFhHvzzvlvQqjZPHYw21GXbluXsWaEc45F4HMClttZWeOiiBVBRWMgVJfyCgHYE6J5/m+aEP6XbtsKi66/RoutQLPVLR3Jc2rxxMbfiH6lwPzZeHCN3ICbjFwPAZBPiSHXu+effoLaWnUxDu8pU4KO0hIx1Hk2afBzQ9iOXSnJy4K5TToL6avEb4mIp/HoRoFS/VO1PF1Vn7YOPTz8ZqNoflwaEDoLRWLCLS7k5GVBUmMUVswcFvMYV4mr8YgC42oz2cTw1NdWw7GdeLe8+dqV02ZZNPwElCeKQt48fTJl6ghYnvj2bN8F9Z58JLcxEKJzxCK8g0BmBCjz336fx3L+hrNS2+NcV2ucA3FmnjudeXt4wZdpJLIdekkWOf1s3/9QhlvP4T2Q2z1YnZyQaecUA0AimlUSRwx93gTVyvNXVZbCHf+YHYeGxMEKDAxKNlZIEPXrZJZIp0MiJF9l9QoBWsm14988zkX/tiu74PznzVKjYlfHri4xn4yceqyUnx7aty6GpiR2FsBOH8jZjOC7LKgaAy05tzwPbvn1zzxeY4N2d23/R8eW3RRVERMRpGdHyjz6EF67/qxZZIkQQUEUgDc/9mzSt/u0tLfDFhedB0Xo9dXGGJI1hJ/whXErwGDB733ZViDrz3Y3/8EKCOktzoediALjQZNozlLo6nqe9PX2pXtvS0gTbt1HBLh7169cPJk09EXzwSEAHffXC85IuWAeQIkMJAYr3L9VV6AeP2b678grI+lFPJczgkHBM9ztbaVydmSiEd9OGxZ1fUn2+AhkXqjK7Op8YAK4+wxYfX9a+NKgoL2KPwtfXHyZNOYEtp0PAW/fcBd++8nLHv/IoCDgEgWw888/SeO5P1f12vveOFt0px/9UPPfnpAXvUCQdS/1SXhAmUa7/q7Fp2ithamNCdjEATDgpotLhCKxf9z1QeCCXBkUOhhQNBYM69Hjumqth1Wefdvwrj4KAoQgU4l1/Bt7966J1TzwK659+Qpc4GD9+LrvMLylTXVUKuzAhmAZ6GmVs1SDHZUWIAeCyU+s6A6utqYDNm5ZqGdDI0UdBWFi0Flm2mgEXXwhpy3/WIk+ECALdIVCGiz+d++ui7W+/CT/f+Xdd4mBwwkiIx8YlckzeuGEROiizx0rlfu/h6uPq/GIAuPoMu8j4srN2QE52Ons0/fr1h8nTTgRvb1+2LBLQ3NgI/zzzdEhfs1qLPBEiCByJQDUuiltw8de1j73r04/hh6v/hBvjeiQGBYXCOLz710EU+aPjyA91uQmb+ZKc6ABJowwxADSCKaKMRWDzxiU6zgXBzy8Ipk0/VctZJY24rrIS7jjuWFj37TfGAiDS3Q4BKu+7qUVfhb8tr7wEX2GBn3bMcKmDyLH2qBmnA53/c6kWz/x3pPGdflGPH7B9wNXHHfjFAHCHWXaRMVIhkLWrv4X2dn5ET1h4DEyeepKWJEEEbyPGUd+LOwGL33rTRdCWYTgbgWZc/De2tgG7/M3Bgaz6172w6LprtOWx8PT0hqNnnqkl3p+qka755Wsdackp1e+1zp47q/TvaRVFRU/zIHDl+cPgqgXD7Fbo+gc2wLJ1VI1TnSoriyFt6woYM262upCDnNExSTB+4jGwcf0itiwSQHUDHv/976CyqAjO/tvNWmSKEPdEgO7PN+K2f4OGXfr97e2w+PprYcur/9EGJpXsnnb0qRAyIEKLTNrdI+c/DfQIytCTzUiDMmYXIQaA2WfIhPpFRfjC+BGhdmv2+r+mwdgzv4G6Bt72Y+buTRAxKF5LkZGExNHQ1FgP29NW2T2erhjIienV226BiqJC+MNDj2jbYeiqL3nNNREg97fNuPjXaDijb0UflW8uvwR2f64vWoXyakzGFNu6kmtRqC/5+GigvSjjAQ1y3EaEHAG4zVQ7f6BJ8YHw4E3jtCiyYd0P0MgsG9yhSMqIKTB0mB69OmR+/Phj8Njll0ErZlkTEgT6igDd8FN1P8rzz6Wm6irM7X+S1sWfdBqLDn8xsfbvAHY1nqrKEtiiKcIH5VOKTnbe4K70dNXXxABw1Zk16biuuSgF5k4dxNaOioSsW/udtnoGY8bNgbj4FLZenQUsefstm18A+QcICQK9IUB3/uTtX6xh8aeCPh/Mnwt5mkNUqa4GpfrVQS0tzbZzf8r6p4FeQxlfaZDjViLEAHCr6Xb+YHH3EF69bxoE+PFPn0pL8iB9xxptg5o4+XigZEE6af1338Lf5x8D1aVazjd1qiayTISA7cwfvf1LNCz+VNDnvXmzoHSb3hw4tPCPGDVNG2q0i1dXV6VDXiYKuV6HIHeTIQaAu824CcZLRwEP/W28Fk3Sd64BMgR0UP/+/WHqUadAaGikDnGHZGSsXQM3z54BuTupKJmQIHA4AuTtvx4X/woNZ/50x//+MbOhOmvf4Z0w/6Mtf9r610W7MdNfQT6t22wi2+libOYvbsIeqn4BYgDox1Qk9gGBv1yYrOUogJzu6CiAjgR0kCfGM0/HuObAwAE6xB2SkZeRAddPmwyL3nzj0GvyRBAgL/+1GOrHdfgjT//VD/4LFp40HxrK9O42hWMlTXL6I+c/HVRWmg9pGop8HdTlPnyULFyKEyMGgCJwwsZDgH5LXrt/GgT6848CyBmQYoh15AegUXljcpOjZ50Fvr4BvEEewU2+ABQm+PgfLrflDTjibfnXzRCgRZ8Wf26oX31xEXx82omw8t67Yb+e8/RDM0Fhfkdh0iwK+9NBTU0NmMvjGx2pfkmdldj+pUMvd5UhBoC7zrwJxj0kLhBevGeKFk1KsXb4+rXfa3MK9PcPgllzzgH/gGAt+nUWsuiN/9l2A/ZpPqPt3Ic8NzcCtN1P2/60/c+h7MWL4M2pEyF7yWKOmC55Bw6MghloCHt6eXf5vr0v2nbrcPFvbNTiFEtpfi/BpsWD0N6xuMr1YgC4ykxadBwXn5oIfzpvqBbt83J3wdbNy7TIIiEBeAwwe+75EII1znUT+QPcOH0afPuyvuQsunUUecYgQI5+G3Hx52TDoDv9lf+8yxbmRzsAuikyKgFmzD5bW80M0m/j+h+hBA11TUTZ/vZqkuW2YsQAcNupN8/An75jEowbrufMfU/mZsjYuVbb4Hx9/WHmnHMhPCJWm8wOQc0NDfDM1VfCQxctgPrq6o6X5dGFEchpO1DYh0L+VKk2Pw8WnngsrH7oAW1pfTvrEj94BBx19GlYK4N/PNchN23rcl3Jfkgk5fl/o0O2PKojIAaAOnbCqQkBXx8PWPjkTAgK4BcUIZUoq1/Wvu2atAPwwi1QynkeHaNnp+JIxZZ98D5cN2UiZG7UUgP9SPHyvwkQoH3qrRjjn97Gq+q397tvbFv+eSuWGzKqYckTYdKU49HhT9/SQB7/u7BpItpCuEqTLLcXo2+W3R5KAYCDQHJCELx871SOiMN4N2FN8cICfTuE5AQ19aiTIXFI6mH96PqnIDMTbpoxHT598glo1+zIpUtHkaOGQB2e869paYMiRox/a309LLv9Fvj07NOhsbxMTZFeuEaPmQmpY2f2cpV9b1OK321496+RslEWFfwR0oCAGAAaQBQRehC44KTB8Jcz9Nxlk8MReRuXlxXoUQ6lUBgUFQ8ajqmDjaDW5mZ4+eab4Pqpk2HHKnJwFrI6ArTo0+JPRoAqUR7//00cA+uffgLQy1VVTLd8dLc/cfJxkJwysdtrVN4gA1xXoa1O/R+Nz7/A5t/pNXmqiIAYAIrACZsxCDx+9TiYmKzHH4BKjP6y8guoqSnXquzI0dMxKcocbXHRRyq3Z/MmuGX2TFu4YGUxr3rikbLlf8cgQMs0bffTtr+qm3rl7l3wyRmnwBcLzoXq7CxDFKdzfqrqNzhhpFb5ZWh4awz3O1K3Y/AFMQKOREXhfzEAFEATFuMQ8PHqDx/eMx3CQ3y0dEIJglYu/0xb4aAOpZKGjsPkKCdqi4/ukNvxSDsYFC7451HD4YvnnpVjgQ5gLPDYhKv/OvTyJ4c/FaLtfvLwf2PKeNj3w3cqIvrE4+XtYwvzi4pK7NP1fb2ouroMflnxOZABbiCJEaABXDEANIAoIvQiMCQqAD65dzp4e+r5eDbU19iMgJYWvUeHsXHJtqyBnp564qS7QrGushJevP6vcizQFTgmfK0ct/xX45Z/leJWfcd2P3n4tzXp/bx2hsvPLxBmY3TLwLDozi+zn9fXV8PKnz8F3d+1bhQTI6AbYPr6sp5f2L72JtcJAn1EYGZqOPznb5P6eHXvl9nuSvA4QFPlsUMdRgyKh9nzzoOgoIGHXjPiiRwLGIGqPpm0zZ+BW/4bccu/WUGsI7b7O9SikNY5x1wAQcFhHS9peaQsf7T4a0r001edxAjoK1JdXCcGQBegyEvmQOB3xyfArRcM16YM5SBft+YbbSmDOxQLxh/SufiDqvsctUN+x2PnY4HPn3kaWgy8Q+zoUx57R6AM7/pX4V1/Nm7527vp31RdBSvu+Yfh2/00CnJiHT5yKm77n609zXVLcxOsWvEZ1NZW9g6Y/ivECFDEVAwAReCEzTEI/PtPqXDGjBhtnRXk78Efqs+htVXlPq17NTywiBB5UlMMNT03kuhY4KUbr4c/DBsCHz36CDTU1BjZncjuBoEWfD0N7/jprr/RzpW/rqgQlv/jDnglZQisefjfhm73k/qU0IrqW4wcdZR259UGrMWx7KcPobLCqQ6rYgR08znt6WUxAHpCR95zOgL98a7l7TumwvhheiIDaEAlxTmw/KePoampXvv4KIvavGMWQLAB6YOPVLa8oABeu/1W+N2QwfDGXXdCVUnJkZfI/wYhQOF9q5rboAAf7aGqvXtg0XXXwGsjh8Haxx6GZgdkgBw0aDDMm38xRGBVP91UU10Oy5YshBp0/DMBiRFg5ySIAWAnYHK54xEI8PWEz+8/GqIG+mrrvLKy2PbDVVdXpU1mh6DAoFCYM+8CGJI0puMlQx9pR+D9B/4Flycl2BwGi7OMCRkzdBAWEU4e/pvwjp/C++zZQyrFwk9fX34JvD52JGx55SVobdRTvron2Ci+f1Tq0Xjnfyb4YIVL3UQ5Nn7GO/+GBlPtQIkRYMdEiwFgB1hyqfMQiI/wRyNgBgRpKB/cMQpa/Jct+cCQrUsPDw8YN2EeTJl2krZqah16d/dItQUoZPCPw4fBY5dfBlnb07q7VF63EwG6z8/Fu/2VeNZfasddf97KFfDpWadh+t4JkP7Be9rL9XY3DD+/IKxhcQ6kDJ/c3SWs1ynJz4qfPwEKszUhiRHQx0kRA6CPQMllzkdgyvBQmxHgh7UDdBF5Li9f9hEUF2frEnmYHAoVnHfshTAgdNBhrxv5T1trKyx+6024ZtwYuPesM2Dbz8u0lUk2Um+zyqbqfasxrn8n3vX3JalPO+Kf+dUX8P6xs+GD+XOA8vc7kqKih+CW/4UQpjnEr2MMWfvSYPWqL7XG+essPHRQTzECOiash0cxAHoAR94yHwJzx0XAR5goyEtTjgAaYWtriy1xSW5OhiEDDggIwbLC58HQYeMNkd+dUIoaWP3F53DbvDlwRXKSzU+AyhAL9Q2BCsRvLS78m3Hhr+1DXH/hurWw5G83wH+S4uHz886CfAenc+7fvz+MGTvLVsnP21vfcVlntNKx0ial96XPli7yRKdZqrMxAh0UNZMYAb0Aqq/eYy8dyduCgC4ETpoaBe/831RYcN9qaLNjO7an/tvb2zFE8FtoaqyDockTerpU6T0qJjRm3Gygu7Mtm5ZieuIKJTmqTEX79tn8BMhXYNjESXDMxZfAnAW4MxEZqSrSZflqcHHbjSF9FN7XG1XuyYSd770DO7BRLL+zKCw8BsaNn2uY8ykt+Fs2/wR7M7doHSLd+U+acgKEDIiwNRK+c/svOvvoMAJOQ6H6vX51auoEWWIAOAF06ZKPwLmz4+DVW9rg9w+v1VofZeuWn22JTKgymhFEiYPIIztz90ZI37HGtvtgRD89ydy9YT1Qe+XWm2H8sfNtxsD0M88C34CAnthc/r16XO8zMZlPb1X7qBpf+ocfwI5334aC1VoXK7sx9vHxh9QxMyBecy7/zoq0t7ehcfwd5Oft7vwy+zkZxRQ6GzrwVyM0cchom1wxAtjw9kmAGAB9gkkuMiMClCiorqEVrnl6o1b1qHZ5Y2M9/jjNx5hp/adktFWbnDIJ4uKHwzY0OPJynXPnSGWHN3z/na3R4j/9jDNtuwKps+eAX2CgVkzNLIw8+/fgwp+Pd/zd3fPTop+16EfY+f67tvz87S2UBcB5REl9koaOxW1zPA7zMi4VdUtLs+28v7QkV+tg6Xs1YdIxQDsXR5IYAUciYtz/YgAYh61IdgACVD64Bo2A21/eqrW3nOyd0IwOgnQ2aVRiH8rHTlECiUNSnXIs0Bmwxro6WPLO27bm4ekJQydMhDFz5mCbC6NnzAT/4ODOl7vEc8rXTwV76I7/yIW/vqQY8pb/DLnoQJmzbCmU7dhuSCleFSCN3u7v0IlS+lIhreqq0o6XtDyS8TJuwlyIwPwE3ZEYAd0ho/d1MQD04inSnIDAbQuG23wB/u/VbVp7LyrKgqUYJjhl2olA6X6NIjMcC3QeG0URZKxdY2uUabA/hjQmjRsPY+fOBdodSJ05CwIG6EvM1Llvo5+3Ywe04NPCX93JkY0y89Fin0cL/s8/QfnOHUarYrd8R2z3dyhVgnf863HbX3def7rzp1La5AvTG4kR0BtC/PfFAOBjKBJMgMAdF42AAQFecO0zG7X6BFCGs58Wv29z4KM7daPILMcCXY2Pjgo6/AY+fvwx6IdHGEljx0Eq7hAMw52C2JQUiE1OgcDQ0K7YTfEabfPnoqNnHi7+lUVFULFrF7YMIM/93OXLoCIj3RR6dqWEo7b7qW9y9qPz94z0dVo9/Uk2nfmPnzgPBkUm0L99IjEC+gST8kViAChDJ4xmQ4COA0ICveDyh9ZCK97h6SKqa75pw2JbCuHxE4819Mz18GOBnzBaoFzXMLTJ2Y8LaeamjbbWWWhweLjNECCDIGZY8gHDgJ4PHQY+/v6dLzX8eT2m2M3DBX5XejqkZ2RA7sEFvwI99R2RflfXAB213U/6Uka/dau/hTLM8KebyNuffGrCwmPtFi1GgN2Q9ZlBDIA+QyUXWgGBi48dDEF+nnABhgg2Yq52nUTOehUVRTBl6onouRylU/RvZNGxwDHHXWxzEKS7Md3nsL/pUMML1aWlQG3HEfHvdAcbHhdnMwpCBg2yORj6BQWBrQUEHnhEp8NDr9HzwCDwxUcyNhpqa7DV2ooeNeJjPRY/okcqglSP73U8p2uoPkIuLvxVeJdvZQrHvP2UxW9QZPfn5DrHV5CfCRvW/whU1U83UZw/FcnifGfECNA9KwfkiQFgDK4i1YkInH50DHz975lw+p0roBYdBHVSfV21Lf/5yNHTbZ78OmUfKYsWzrj4FFsrKtxn25alksZWI9pWLsnJsTWr6e5ofaNjkiAZF/6BBhuYHeOiEL9tW5bDnszNHS9pffTy8oHJUw/E+XMFixHARfC3/GIA/BYTecUFEJg3PgIWPTobTrp9OZTX2FO2pffBU9KgtK0r8Egg13ZnY0ShlSO1iIxKBGpkAOzCHYFCNAiEXAMBcowjQ4/u+IOCBzpsULWYjGrt6m+gSrOXf+cBJCalHkrw0/l11ediBKgi1zWf/iDnrvuRVwUBhyMwdcRAWPbkXIgOMyYtajFGCSz58W2bb4CjBkdnwkfNOB2OmX+RbdGgXQIhayJA5+JJQ8fBcSf+zmZIOnLxz87aAUsWv2fo4k+zshtzauTnZWqdIDICJG2wHkjFANCDo0gxKQKjE4Nh+VPzYEiUMVnuKGHQyuWfwvZtK9FrmoLMHEPBIeG4tXoizD/hMlvZYao+KGQNBGhbfPiIKXD8Sb+3hcT5+wc5THGqe7F+7fewYd0P0IbPjSY6/tmKKYTFCDAaaTX5cgSghptwWQiBpOgAuAyzBv7zDUzmYgDRjxw56pWW5tkWZUf+oFOhISo7PHzkNNizexPQnZ3u2G0DIHNLkYGBAyABQ0mH4La4p6dx2fu6A7eystjm5V9bW9ndJYa83mEEkPCY2KHa+pDjAD6UYgDwMRQJgoANgXIMn1r8w9u4GE+1Vf6j2H5Hka+vP4xKPRrIOZHStlImw3z07G7FVK5CzkOAkvfYHDkHD4fQ0F9z3jtSI/oM7Nyx2uboR/4rziAxApyBeu99igHQO0ZyhSDQZwRaW5vRQXA5UM30sVj9z56kJ33upIcLySeAQgipjWs7BgoL9qAxkA7FRfvAWT/+Pajrkm9R6uiYmKEQj4s+pbt1pp9GDu4IpW1bYatt4WywxQhw9gz8tn8xAH6LibwiCLARIA9ryqMejQsB1Wj3D3B8Ln3yC4iNw4Q82JqbG205BXJxZ8CIRC9swCwugDz5KWafFn2ac3LwcybRdv+WTZjS2ICkPpxxiRHAQU8/r3M/pfrHIxIFAVMhQAlW6O6bqv9RfLezFgZvb1+bs+CQpDFQX19t2xXIxZ0BM2YaNNUE9qIMJbehRT82LgUcEQ7aizo2Q2972krI2pumPZVvb3339X0xAvqKlPHXiQFgPMbSg5sj0Ia59HfuWGNz0EsdO1urI5QKtP7+wTYvdPJEp52K0pI8dGDMtT2KA2HPiJLTZXhELLY426Ofn+M8+HvSjBbVfXu2wg7M40+7PWYnMQLMMUNiAJhjHkQLN0Cgvr4G1vzyle18niqiBQU5LulLd/AGBoUCNUrYQkQe4uREeKDluX1EQQB67odj/vqORZ9qNZiNKDnUlk1LDY/p1z1uMQJ0I2q/PDEA7MdMOAQBFgIlxTmYQOgdWxKYERi+5+nl+JCw7gZAoWrUOiofdhgEZRjiWII7BY0Ntd2xusTrNHa6u6eiNRF4p+9rwgW/A2jarSGHU3LydBBRve1rsD2JbYKOPsUI0IGiugzTGQBUee3n5Ytg69aNsC1tExQV6a9MpQ6X8ZyDBkVB6ujxkJo6AWbPOhbjhb2M71R6cDgC5JG/e9dGyM1Jt4XuxQ8eieVSHRc22NcBH2kQ1OEOQUVFsW2noK62Ao8QKvF5BbRYLNyQzutpbAG0A2IzekJhYFgU+PoakzCqr3j35TqKNNmTuQUydmLVSwck8zmo03P4ePP/t3cvUFJUdx7H/8wwPCIMCAoCgi+CGMRF1+chvmKCGlGTmLjRjbqJ7q6axN2oZ10fiTEadOPqxkSjHh+b1UOirq8VFeIbNAc1PFRgQAFBBWZgHgyDA8IMzP7/NbQ0k2Ho7qpbfav6W+dcuqen695bn1tD/bq7uq4W+3zhq1pe0kIIUIQkL14FgCVLFslV11wqCxa4mZgiCQO16P35MuN1+9sSOWj0WPmPm38no0Z9KQldp48FCNiVBOfOflk/u31LRn5xXPDKuxgXicm16/aWuJWOy6ZNG4PzCewdAwsE7cGgUTY0N4qdA1GMxcKz9bVPH/uYo/2djcx9uxpf0pZNmzbI0sXvyDL9rL+lJfpZ+3biUaeP/0DLlKzf2xzVhACR09VhQ5ZL4u56EwCmTntarrr6Uj2BJbYd2/vBWrhonpx19knyq1vullNP+Yb3/aWDhQvYW+s2K9v7C/8SnK2//8hx+mr0C4VXGPOa9orais1VkL3YW7wbdds2NK/TV6ubg1esrS0t0rqlw317TF/Nbsk8R+/bzzbVQbleNa9CD+b2/XoLR3Zg317af87+nR3cd+vTLxGv5rOtdnbfQpVdU/+TjxfGHaZe1D5doKWzt2EJAe2hKNEhwIsAYG/z/+znP+Hg38n/APbWqtkcduhRMnjwkE6ewUOuBcw9ro+i7JWdXVbYPh4Ysc9BMnLUYcFb1K630VX9dhEcuzRynJdHdrUtcde7du1qnflxtthXSS1IxbjY5SOv1XKblq4aJgQkPAR48aHj9Tdcrt9Hbopx/05WU2ZjRizFEfjOWefJfz/wlIwYvl9sHbB52pcvmy8vv/CwfnPgeVnbsDq2tmmouAKrdZbJN2Y8KdNfeVQn0VkS98HfTvQ7Rst/aunq4J9ByoSAuZkHwt5mTgxkAqGwkrtev+gBwA5u02fYO00sXQmYESGpKyG3vzvm6OPkmaffkH+88F9ivZiP/WdoB4Hprz4aHBRW13zkdkOpvSgCNpOknc3/in47ZKZeQdK+hhnzYif32av+w7TMybNtQkD7OwHJ+cxu2wAXPQBULXwv7oSb577tx9PtQGBWLMUT6NWrl1xx+c/k8cdeCr6pEXdP7KAw88//pweJyXqwWKTX9i/OyXVxb3ea27OJepYueVdenPY/Ok3vn6RpnZ1zF/vyirZ4iJZJWloKbJ0QkMAQUPwAUFW6Z/zn+4dWhVW+ZE6eb9/OePSPL8i/X3WT9O4df+hvWlcfzOk+9dn7ZM7sl2TNmo8J0U5G2k2l9q0Ie1fHLgo19bn7ZN670/XyzOvdNNZ1rfX66+9rOUnL4q6fmtNvCQEJCwFFPwmwuTndFxbJ6c8mxydhlSNUDE+ziXb+4fxLZMJXJ+r5GVcE166IodkdmrATRD9eXhUUm3bWJv2xqWcHDORk0R2gPPjB3uJfoxeAWvHJB1K9Uqdp1m87FHmZrO3/REttxP3IhACuE5CArwgWPQBEvPNRHQKxCgwdOlzuu/cxefa5x2XSLddKQ0NR3sIV+474h0vfDYpd6z+Yg374gVLZb2CsHjS2o4Bdptcu9mSv+O1aCR4s72sfLtPygsO+EAIS8u0AAoDDvwKqLh2Biad9W4798kly9z23yR8eebCoX2m12f7sq4RWKisHfh4GijElcensAdu3dF1jbXDQX/HJYr0GQlHe2t/eme33LJn+XMu9Wlq1uF4IAQkIAQQA138G1F8yAv367R6cF3DB+RfLHb+9WZ6Z8pieqLe1qNvf1FQvVQtmBmWATl07TD8isHnrfZiIqKgwETZuJ+jaQb+mZlnwFr/NsOjRskn7cocWO8FvXcz9IgR4HgIIADH/RdBc+gWGDNlbbpl0l1z0gx/Lbf91o7z62jQvNrqhoUY/oqgJ+tJ+1b72We5s4ht7p8Au2sOyawELdY16kZ46nSCpXidIqq+v9uEz/Y4dt+/wP6Llai3F/O4oIcDjEEAA6Phnw88IRCQwcuRoufuuyTJn7lty2+2/kNlz3oyo5vDV2OfR9rm0FVsqevSUgQOHBtPeWiDo338QgWAbs521v7ahWg/4q/SAvyIIUTZpmcfLG9q3K7S87UkfCQGehgACgCd/IXQjvQJ2GefJDz8XvBNw+69vksWLF3q3sS06B0dN9bKgWOfsWvsDLBDotf0H6vS4u+8+SGcrLPeu3y46tEXnIKjXA769urdX+XYVxoRcc2Gmetyk5XkXLiHrJAR4GAISHQD+ecAX5eIBo0Lul52vXtdqF8aKfnmocZk83Phh9BVTo/cCJ55wihx/3ITg3IA7fjNJqmtWettnm4hnjV6S1oot5eXdpW/lgG1T57bPCBhMp6uz7fXo0cvb7eiqYzYTo01vbJPtZG5tJsP1TWv1ugrFPXejq3538rvp+tiNWl7u5Hc+PUQI8CwEJDoA7NW9t4zrtbuTHby6xc1XdgaVJ28aUifAJVppWVmZfOPM78qKFR/Jnb/7VWIU7C3vxrVrgtKx0xYAMmHg81ubfne3/tK9okfHp8f682abpniHA3zmgN8+O2GsnYm+Mfsqnx3434i+amc1EgI8CgGJDgDOdlEqRgCBnAU2b/4s+Fw8c4Jh9op2gSL7+mGFTuPbPmVvZirf7dP6Zk/lax89ZD/PJsHrOEVw+7TB26YU3jaNsE0vbG/d2++s2KyKzZ+uC26z+5OS+1N0O27S4stn/PmyEgI8CQEEgHx3XZ6PAAI5C9gFiqywhBZo1hoe1nKXFpuxL+kLIcCDEFD0uQCSvhfTfwQQQMChwAda979qGablEi1pOPjrZgRLJgQwlXBGJOZbAkDM4DSHAAII7ELAzkC0t/lP1jJai13IJ+6L+GiTsSyEgPaxjn9WMR1eAkAs+ziNIIAAArsUqNZn2JmhB2g5Q4ud5GcX9En7QggoUgggAKT9T4vtS53Ankd+RQYfc7KU6QlzLIkXaNIt+L2Wr2nZW8tVWpZrKbWFEFCEEMBJgKX2Z8b2Jl5gwNijZfSF10qLnuVePX2KrHrlCan9y6uyVc9+Z0mEwGbtpV2sZ7KWZ7W4ueiIVpywJRMCXtJ+HxpF322ehnnv2mUSRIYOszdWoln23W9MUNGiqkiv7vkVrdQ++jldSyxnzhIAgmHkHwSSJ1DRp5+MOO17QWlZ3yjVM6bIypefkLpZrxEG/BtOm5TnDS2Panlci1czBml/fFkIATGGAAKAL7s9/UAghECFXnhnxGnnBSUIA9OfkZWvPEkYCGEaclU7ke8dLfZq1ood/N1cXUwrTtlCCIgpBBAAUvaXw+YgEISBiefLCC32MUH93NeldtZ0qZv9mjQt03kI7Oo6LC4ElmqlmQP+q3q/3kUjJVInISCGEEAAKJG/JjazNAXsY4K9jp0YFBPYtLZW6ubM0DAwXWq1NH+ypDRhotnqWq3Grr9vB327Xa6FJToBQoDjEEAAiG5npSYEvBfoufueMuyks4Jind24Rme80yBQN8feIZghG2o+9n4bithBuxrfDC2ZA/57ep+3U9wOCCHAYQggALjdeakdAa8Feg8aJsNPPTco1tHqZUuk+cMF0qwfFWxYVqW3VbJhxWJpa231ejti6Nzx2sZMLXzVIgbsDk0QAhyFAAJAhz2NHxEoZYEKnfK3/7hjg5JxaNOvF274+IMgDFgwaF5mAaFKWvWbByW02Ct/luIJEAIchAACQPF2aFpGIBEC3fSCQ7vtPyYo2R1uaWqQTbUrZXNdtd6uCu5vqrPbVbLZSsNqadu6JXuV2O/36mVTFVdKZd9+8uGyxbG3T4ORChACIg4BBIBI908qQ6B0BOzdAitywNhON9oO/hYCLAysmvKg1L1u1zjJf6ms7C9Dh+wtfSv7Sd8+faVSbzMH9b59K6WvHtyzb+1g3/6zTkNc0ePzBkePGfj5fe4kVoAQEGEIIAAk9u+AjiPgt0C3snLpucfQoPSeW/g76Od/75/kRz+0K+SyIBAIEAIiCgFl7FAIIIAAAggkTCATAphKOMTAEQBC4LEqAggggEDRBAgB7e8EFDyVMAGgaPsuDSOAAAIIhBQgBIQIAQSAkHsfqyOAAAIIFFWAEFBgCCAAFHW/pXEEEEAAgQgECAEFhAACQAR7HlUggAACCBRdgBCQZwggABR9n6UDCCCAAAIRCRAC8ggBBICI9jqqQQABBBDwQoAQkGMIIAB4sb/SCQQQQACBCAUIATmEAAJAhHscVSGAAAIIeCNACNhFCCAAeLOv0hEEEEAAgYgFCAEij6lpp8f6Th+MeACoDgEEEEAAgWIJlHoIOE3hJ3WGTwDoTIXHEEAAAQTSJFDqIcBm0zqn44ASADqK8DMCCCCAQBoFSj0EPKCDekj2wBIAsjW4jwACCCCQZoFSDgG9dWBvzx5cAkC2BvcRQAABBNIuUMoh4CQd3BMzA0wAyEhwiwACCCBQKgKlHAJ+mRlkAkBGglsEEEAAgVISKNUQcIwO8gQbaAJAKe3ubCsCCCCAQLZAqYaAvzMEAkD2rsB9BBBAAIFSEyjFEGDXBuhGACi1XZ3tRQABBBDoKJCsEHDQUR37n+/Pg3WFIwgA+bLxfAQQQACBNAokJwTsf7AMGrxP2DE4jQAQlpD1EUAAAQTSIpCYEDBm7HipqOgZxn00ASAMH+sigAACCKRNIBEhoGfP3rLPfmPC2O9FAAjDx7oIIIAAAmkUSEQI6NdvjzD2QwgAYfhYFwEEEEAgrQLeh4C+lQPD2PMOQBg91kUAAQQQSLWA1yGgrCzUa/jyUGunetjZOAQQQAABBES8DQHrm+rDjE8NASAMH+sigAACCJSCgJchoGkdAaAUdj62EQEEEECguAJehYDW1hb5aHlVGBHeAQijx7oIIIAAAiUl4E0IWFT1lnz2WXMY/KV8BBCGj3URQAABBEpNwFkIWL5sfk6WHy1fICs+eT+n53bxpKkEgC50+BUCCCCAAAKdCDgJAfaq/u03n5ONG9Z30qQEj7/95vOycMGbnf4+jwcb9bmvd89jBZ6KAAIIIIAAAu0CmRDwkv54aFQoDfU1MuO1/5Xd+vSXSv2e/259+knzp+ukSc/4b/60Udra2qJoappW0koAiIKSOhBAAAEESlHASQiwg/yn69cGxRHqE1YvHwE40qVaBBBAAIGSEMiEgLkJ2doF2s8nra8EgISMGN1EAAEEEPBWIEkh4KequNUkCQDe7k90DAEEEEAgQQJJCAGz1POpjCkBICPBLQIIIIAAAuEEfA4BW3TTrsjePAJAtgb3EUAAAQQQCCfgawi4UjdrRvamEQCyNbiPAAIIIIBAeAHfQsCDukm/7rhZBICOIvyMAAIIIIBAeIFMCJgTvqpQNfxZ176ksxoIAJ2p8BgCCCCAAALhBSwEnKjl2fBVFVTDc7rW17Vs7mxtAkBnKjyGAAIIIIBANAJNWs2ZWm6Jprqca7lVn3mGFmu/04UA0CkLDyKAAAIIIBCZgH3v/mot52rp/EL/kTUlNkXgBVr+TUvwff+dVU0A2JkMjyOAAAIIIBCtwB+1ugO03KmlJdqqpVXru0fLSC0P5VI3ASAXJZ6DAAIIIIBANAK1Ws2PtRyk5REtduAOs9j3+x/XMkaLnexXoyWnhQCQExNPQgABBBBAIFKBpVrbOVoGabGPBuzdgbVaclnW6ZMe1XKelsFavqPlAy15LcwGmBcXT0YAAQQQQCBSATvo28Hfih2TR2kZomXottuBeluvpXpbWaW3drAP+85B0JjWw4IAAggggAACRRawg3rVtuK8K3wE4JyYBhBAAAEEEPBPgADg35jQIwQQQAABBJwLEACcE9MAAggggAAC/gkQAPwbE3qEAAIIIICAcwECgHNiGkAAAQQQQMA/AQKAf2NCjxBAAAEEEHAuQABwTkwDCCCAAAII+CdAAPBvTOgRAggggAACzgUIAM6JaQABBBBAAAH/BAgA/o0JPUIAAQQQQMC5AAHAOTENIIAAAggg4J8AAcC/MaFHCCCAAAIIOBcgADgnpgEEEEAAAQT8EyAA+Dcm9AgBBBBAAAHnAgQA58Q0gAACCCCAgH8CBAD/xoQeIYAAAggg4FyAAOCcmAYQQAABBBDwT4AA4N+Y0CMEEEAAAQScCxAAnBPTAAIIIIAAAv4JEAD8GxN6hAACCCCAgHMBAoBzYhpAAAEEEEDAPwECgH9jQo8QQAABBBBwLkAAcE5MAwgggAACCPgnQADwb0zoEQIIIIAAAs4FCADOiWkAAQQQQAAB/wQIAP6NCT1CAAEEEEDAuQABwDkxDSCAAAIIIOCfAAHAvzGhRwgggAACCDgXIAA4J6YBBBBAAAEE/BMgAPg3JvQIAQQQQAAB5wIEAOfENIAAAggggIB/AgQA/8aEHiGAAAIIIOBcgADgnJgGEEAAAQQQ8E+AAODfmNAjBBBAAAEEnAsQAJwT0wACCCCAAAL+CRAA/BsTeoQAAggggIBzAQKAc2IaQAABBBBAwD8BAoB/Y0KPEEAAAQQQcC5AAHBOTAMIIIAAAgj4J0AA8G9M6BECCCCAAALOBQgAzolpAAEEEEAAAf8ECAD+jQk9QgABBBBAwLkAAcA5MQ0ggAACCCDgnwABwL8xoUcIIIAAAgg4FyAAOCemAQQQQAABBPwTIAD4Nyb0CAEEEEAAAecCBADnxDSAAAIIIICAfwIEAP/GhB4hgAACCCDgXIAA4JyYBhBAAAEEEPBPgADg35jQIwQQQAABBJwLEACcE9MAAggggAAC/gkQAPwbE3qEAAIIIICAcwECgHNiGkAAAQQQQMA/AQKAf2NCjxBAAAEEEHAuQABwTkwDCCCAAAII+CdAAPBvTOgRAggggAACzgUIAM6JaQABBBBAAAH/BAgA/o0JPUIAAQQQQMC5AAHAOTENIIAAAggg4J8AAcC/MaFHCCCAAAIIOBcgADgnpgEEEEAAAQT8EyAA+Dcm9AgBBBBAAAHnAgQA58Q0gAACCCCAgH8CBAD/xoQeIYCAA4Hy8vJCa91S6Iqsh4DPAgQAn0eHviGAQGQC++8/qtC6Fha6Iush4LMAAcDn0aFvCCAQmcDBY8YVWtesQldkPQR8FiAA+Dw69A0BBCITOOrILxda1/RCV2Q9BHwWIAD4PDr0DQEEIhM44/Sz5W8POzrf+mbqCg/luxLPRyAJAgSAJIwSfUQAgdACZWVlcvOkO6V37y/kWtdn+sTva9ma6wo8D4EkCRAAkjRa9BUBBEIJjBi+nzzyh2nypYMO2VU98/QJ47W8v6sn8nsEkipAAEjqyNFvBBAoSODAUWPksUdekCsvv16OPGK89OnTN1PPer1jn/dfo+VwLXO0sCCQWoHuqd0yNgwBBBDYiUD37hVy0YWXBaWtrU0WfVB1+ze/ddyV+vS2nazCwwikToB3AFI3pGwQAgjkI9CtWzcZfeAYe/XPwT8fOJ6beAECQOKHkA1AAAEEEEAgfwECQP5mrIEAAggggEDiBQgAiR9CNgABBBBAAIH8BQgA+ZuxBgIIIIAAAokXIAAkfgjZAAQQQAABBPIXSPTXAO9fu0SmrV+V/1bnsEZLm5uLf61q3ZhD634/5f7Hl8q016vddLLFzYnYK2qT754B/+iZ38uaN1/M/BjpbWtra6T1ZSrbVOdof8k0wC0CCOQtkOgAsLJlg1hhiVdg5eqNYoWlOAKf1a4SKywIIIBAGAE+Agijx7oIIIAAAggkVIAAkNCBo9sIIIAAAgiEESAAhNFjXQQQQAABBBIqQABI6MDRbQQQQAABBMIIEADC6LEuAggggAACCRUoegAoKy9PKF383Y7SKsq64peIt0UXVi7qjFclvtawis+aluzribYAAASzSURBVEpLoOgBYN99Digt8RBbG6VVlHWF2KRErOrCykWdicAsoJNYFYDGKgjkIFD0ADB27KE5dJOnmECUVgcfPA7UHAVcWLmoM8fNSdzTsErckNHhhAgUPQAM33tfGTRor4RwFa+bZmRWUS0jhu8nAwfuGVV1qa3HjMwq6gX/3ERd+Wdar6+vldemvyDXXXfZMfrYRC38Z5TB4Tb1AkUPACZ83TW3pB467Aa6MLr26pvDdiv167s0cll3WgbGlVHVwvfkW98+UcYfN1ouvvQceeKpyRPUbIoWu2bxu1qO0MKCQKoFvAgAE752upxy8pmphg6zcWZjRlEvXz/1m3LyhDOirjY19ZmNGbla8O9a1pX/PffeLmd/d4JYCNjJcog+PlPLDTv5PQ8jkAoBOwX/54VuyY9+eFWhq/7VeiccP0GaN3wq8+bN+avfleoD3bp1k78/9yK5/qe3SvfuFU4YTjzhZNw7yMbhnmkS/4zE9luX/lOnPS033HilbN26y8m+7MXR8VqWaJm3vXfcQyA9At10Uwqefm3RgvrIJWbNnin3P/CbIAjUN9RFXn8SKhwwYA85eMw4uejCy+TII8bH0mXcRYrhnhlc/N3719WtkYlnjpfGxoYMey63a/VJY7QwnWEuWjwnUQLeBYBsveqalbJmdWn93dnJfkOG7J3NEPt93GMn36FB/HfgiOyHu+6+VX57Z0HnG12vnfhFZB2hIgQ8EfB6OuAhew0TKyzxCuAer3fH1vDvKBLNz/Pnv1NoRYcXuiLrIeCzgBcnAfoMRN8QQCAdAvMXzC10QwgAhcqxntcCBACvh4fOIYBAVAK1tasLrWpIoSuyHgI+CxAAfB4d+oYAAggggIAjAQKAI1iqRQABBBBAwGcBAoDPo0PfEEAAAQQQcCRAAHAES7UIIIAAAgj4LEAA8Hl06BsCCCCAAAKOBAgAjmCpFgEEEEAAAZ8FCAA+jw59QwABBBBAwJEAAcARLNUigAACCCDgswABwOfRoW8IIIAAAgg4EiAAOIKlWgQQQAABBHwWIAD4PDr0DQEEEEAAAUcCBABHsFSLAAIIIICAzwIEAJ9Hh74hgAACCCDgSIAA4AiWahFAAAEEEPBZgADg8+jQNwQQQAABBBwJEAAcwVItAggggAACPgt00861+dxB+oYAAgh4IGD/V7IgkCoB3gFI1XCyMQgggAACCOQmQADIzYlnIYAAAgggkCoBAkCqhpONQQABBBBAIDcBAkBuTjwLAQQQQACBVAkQAFI1nGwMAggggAACuQkQAHJz4lkIIIAAAgikSsACwOZUbREbgwACCEQrwP+R0XpSmycCFgDe86QvdAMBBBDwUYD/I30cFfoUWsACwKzQtVABAgggkF4B/o9M79iW9JZZAJha0gJsPAIIINC1AP9Hdu3DbxMqYAHgGS1PJbT/dBsBBBBwKWD/N9r/kSwIpE4gc33rwbpl9jnXoNRtIRuEAAIIFCawRlc7RMvqwlZnLQT8FrB3AGyxHdx2dN4JMA0WBBAodQF71f83Wjj4l/qekOLtz7wDkL2JZ+gPp2o5XIuFgh5aWBBAAIE0C9hX/eZpsRP+/qSFF0OKwJJugf8HlT5eXA7N0IwAAAAASUVORK5CYII=;" vertex="1" parent="1">
          <mxGeometry x="742.84" y="260" width="82" height="82" as="geometry" />
        </mxCell>
        <mxCell id="4WsjM8u0ppjrJzp-7UYq-45" value="Ad-hoc&lt;div&gt;SQL Queries&lt;/div&gt;" style="text;html=1;align=center;verticalAlign=middle;whiteSpace=wrap;rounded=0;" vertex="1" parent="1">
          <mxGeometry x="708.84" y="360" width="150" height="30" as="geometry" />
        </mxCell>
        <mxCell id="4WsjM8u0ppjrJzp-7UYq-46" value="" style="shape=image;verticalLabelPosition=bottom;labelBackgroundColor=default;verticalAlign=top;aspect=fixed;imageAspect=0;image=data:image/png,iVBORw0KGgoAAAANSUhEUgAAAgAAAAIACAYAAAD0eNT6AAAAAXNSR0IArs4c6QAAAERlWElmTU0AKgAAAAgAAYdpAAQAAAABAAAAGgAAAAAAA6ABAAMAAAABAAEAAKACAAQAAAABAAACAKADAAQAAAABAAACAAAAAAAL+LWFAABAAElEQVR4AeydB3xVRfbHZ+57qfSmgA0rTTrYdl3FvnZ3Da7rAgE0hBIEG0KIPiWhqXQICS0BV1dw1113XXvbv2sBBFFpNsBKlRrS3rvz/00kbAjvJa/Mve+Wcz+fB+/dO3PmnO/c3Dl3yhnG6CACRIAIEAEiQASIABEgAkSACBABIkAEiAARIAJEgAgQASJABIgAESACRIAIEAEiQASIABEgAkSACBABIkAEiAARIAJEgAgQASJABIgAESACRIAIEAEiQASIABEgAkSACBABIkAEiAARIAJEgAgQASJABIgAESACRIAIEAEiQASIABEgAkSACBABIkAEiAARIAJEgAgQASJABIgAESACRIAIEAEiQASIABEgAkSACBABIkAEiAARIAJEgAgQASJABIgAESACRIAIEAEiQASIABEgAkSACBABIkAEiAARIAJEgAgQASJABIgAESACRIAIEAEiQASIABEgAkSACBABIkAEiAARIAJEgAgQASJABIgAESACRIAIEAEiQASIABEgAkSACBABIkAEiAARIAJEgAgQASJgXQLcuqqRZkSACERDQPh83vJWSe0CnLfnOmvPGW8POWcIwZpwzhoIxhrgdzN85P/yKMFnHx4GJUhTgjQHGOPbBNO/EEzb7NHZlqTW7bbxfv0CVanpHyJABBxBgBwAR1QjGeFmAj8XTGmS5Ge/4YJfAQ6X49MJn0R8VB4VjLMNTBfvCI29nRpIfZePGnVQZQEkiwgQAXMJkANgLm8qjQgoIXB43rTumhB/wJs6Gn3RE0I9SgSHL0T2BnzMBH9L9/BnGw5/8NPws1JKIkAErECAHAAr1ALpQATCIFAyZ2pbdOenMS4GILls9C1zCCY2whlYqXHP0pSRD2y3jGKkCBEgAiEJkAMQEg1dIALWIIC3/es8QozG2P1V0MjsN/1IIQTwUHk9IMTMhlkPvxppZkpPBIiAeQTIATCPNZVEBMImIITgR+ZPvRHj+hOQ6YKwM1or4XrOxfTkVmf9mSYQWqtiSBsiIAmQA0D3ARGwEAHM4NfKWqXcqQsxHt39cjKf7Q88ZDYIzvNShj/4Fw6PwPYGkQFEwCEEyAFwSEWSGfYncHj2lG6axufDkkvsb01QC9YIrg9vMGLc6qBX6SQRIAKmEiAHwFTcVBgROJGAeOKJBqUpeg6u3I+P98QUjjrjhzXzU/SUHFpG6Kh6JWNsSIAcABtWGqnsHAJH5k39HdPZXAzGtXGOVWFZ8iOCDo1okDX272GlpkREgAgoJ0AOgHKkJJAI1E9AzJ6dVKqVTkPKUfWndm4KPIAKk/WUUegNKHeulWQZEbAmAXIArFkvpJWDCZTOffIMwfzPYQ7uhQ42MxLT1mpcvyN5xLivIslEaYkAEYiNgBZbdspNBIhAJASOzJmWpjM/ouZR41+DW08htDVg8/sa5+grESACBhMgB8BgwCSeCFQTODJ36ihE8fsLlvc1rj5H//9CAGsDm4DNSjB6kJgQASJgDgFyAMzhTKW4mIAM6oMwvj4gmIUP/c2FvhfkkOQ0OAGzJLPQyegKESACKgjQH5kKiiSDCIQgIFas8JTt2roAb7h3h0hCp4MQgAOwLDWx2d186NDKIJfpFBEgAgoIkAOgACKJIALBCCCqn7e0VcpKJtitwa7TufoIiBdS9pT14z6fjB1ABxEgAooJUHekYqAkjghIAlWx/FsmF1DjH8v9wG8rbZW6lIYDYmFIeYlAaAJW31kstOZ0hQhYmMDYVqnTMNlvpIVVtItqXf2r3k/Ke/n1N+2iMOlJBOxCgIYA7FJTpKdtCCC630i8+c+xjcK2UFTcnzry4em2UJWUJAI2IUAOgE0qitS0BwG5zh/L2RDkh3baVFxjOhZQ3J468sEXFMslcUTAtQTIAXBt1ZPhqgmUzZ52ttDEx1Vr2lULJ3mSwH5N03slDx/3DeEgAkQgdgI0CTB2hiSBCDAZ21/XxApq/A29GZrquvacZG1oKSScCLiEADkALqloMtNYAqW8VI5P9zS2FJIOAr1LPUemEgkiQARiJ0BDALEzJAkuJ1C1pa9gf3U5BjPNx8pAdiu2En7RzEKpLCLgNALkADitRskeUwmgO7oxtvXdhELbmlqw2wsT7KeyRNGx+dCHD7gdBdlPBKIlQEMA0ZKjfEQABND4T8R/1PibfTdw1ia5kueYXSyVRwScRIB6AJxUm2SLqQQOz5nSReN8LQr1mlowFVZNwK/ronfDUQ+vrz5B/xMBIhA+AeoBCJ8VpSQCxwggzr+Gxr8AJ6jxP0bF9C9eVMJcChVsOncq0CEEyAFwSEWSGeYSKGuVcidKvNjcUqm0IAR+XTpvalqQ83SKCBCBegiQA1APILpMBGoTqHrj1NnDtc/T7/gQwJ4Lj8gemfiUTqUSAfsSoD8a+9YdaR4nAqVzn/id4Oz8OBVPxdYigOBLnY+0SLmx1mn6SQSIQD0EyAGoBxBdJgInEOCC3v5PgBLfE5yz7PhqQKUTAfsRIAfAfnVGGseRwOF5065D8b3jqAIVHZzABWVzp14d/BKdJQJEIBgBcgCCUaFzRCAEAY8Qo0NcotNxJoBhmTFxVoGKJwK2IkBxAGxVXaRsPAmUzJnaFl3N30IHTzz1oLJDEgjonJ/acMRDO0KmoAtEgAgcI0A9AMdQ0BciUDcBNP53IQU1/nVjiudVDx5ocnkmHUSACIRBgByAMCBREiJwlMCfiITVCYj+VteQ9CMCViFADoBVaoL0sDSBktmTe0DBrpZWkpRjTLAeMkQzoSACRKB+AuQA1M+IUhABxrmnH2GwBwEM1VBd2aOqSMs4EyAHIM4VQMXbhAAXV9lEU9ericiAV7oeAgEgAmEQoFUAYUCiJO4m8HPBlCbYenYvKNAEQHvcCv4UPaUFHzXqoD3UJS2JQHwIUA9AfLhTqTYikFTBL4O61Pjbp868R7xHLrWPuqQpEYgPAXIA4sOdSrURAYwp97WRuqQqCHCdU53RnUAE6iFADkA9gOgyEQCBy4mC7QiQA2C7KiOFzSZADoDZxKk8WxEQK1bIrv+OtlKalJUEOh+tO6JBBIhACALkAIQAQ6eJgCRQvvvrM/FfEtGwHYGksp3bT7ed1qQwETCRADkAJsKmouxHIMB5e/tpTRpLAgFNUN3RrUAE6iBADkAdcOgSEeA6o0bEpreBRnVn05ojtc0iQA6AWaSpHFsSQFAZcgBsWXNYCcDJebNp1ZHaJhEgB8Ak0FSMbQmcYVvN3a44F+3cjoDsJwJ1ESAHoC46dM31BIRgTVwPwaYAUHeNbao6qU0ETCFADoApmKkQuxLgjDW0q+6kN2tEDIgAEQhNgByA0GzoChFgglMjYuPbgBwAG1ceqW48AXIAjGdMJdibADUi9q0/qjv71h1pbgIBcgBMgExF2JoADQHYt/rIAbBv3ZHmJhAgB8AEyFSErQlgGgAdNiVAdWfTiiO1zSFADoA5nKkU+xIosa/qrtf8kOsJEAAiUAcBcgDqgEOXiABjghwA+94G5ADYt+5IcxMIkANgAmQqws4EODkANq0+9P+TA2DTuiO1zSFADoA5nKkU+xI4bF/V3a25IAfA3TcAWV8vAXIA6kVECdxMAPHkd7rZfjvbjh6Ag3bWn3QnAkYTIAfAaMIk39YEhODf2NoANyvP2TY3m0+2E4H6CJADUB8huu5uAlxsdTcA+1qPvQC22Fd70pwIGE/Aa3wR9ivB9/bb3saNT2rnFby9kNvBCtaeC3YGxhSbMM4awCL5aXb0fw/+l12NZfiU4vohprPvmMa/5Uz/FrFkv9U1vmH/wZ82+vr29SMNHXYiIDT0AOh20ph0PUpACEEOAN0NRKAOAuQAAE7Bmq+blOsVv9E5vwLjhpdj6VcnPPMT0eAfOxATvq5DOgO/HDITZ90YXj/gPFSd47pgzRq2Lp21etOn2KT8Y66z95nX89qonufuPpqL/rMoAV1jX2vU/lu0dupWyyO0L+pOQVeJgLsJ1N2sOZjNjFUbunPu+QNn4gqY2RMf+SZv5iGblY/RQ/CKJtiLWRd2WGNm4VRWeAREQUFCaeX+A0idEl4OSmURAhUpJ52Zyvv1C1hEH1KDCFiOgKscgDlrN7fV/SyNczEAL+qy0bfSIbsr/6LpvBjOwFYrKeZmXYYNzOn1cNeUf7ZK8rRxMwfb2c7ZutQRY632N247jKSwswm4wgGYtWrzdXjTH41u/KtQnWa/6Ud6B8megdeg71Oj+nR6I9LMlD52AsMHZZ+G2f9/hJM4BNLOvem0JNb35MTYBZMEMwk8lTpy7ANmFkhlEQG7EXDsHABMAOJzVm++UXAxAWP6F8iheZsccmXGdZg/cN2sNZvWw47p+w/vfIYmEBpbe6PTfU1LReBmOF79MWXjSpR2zDnefhi9yCcbWz5JV0tAaOJttRJJGhFwHoFjDzmnmOYTQmu+esudeACMxyy8Tg6xazMcgrGj+3R40SH2WMKMtLQ0T8tG7fsKnQ2AQr/HJzWYYo0SOPN1bYD5m477cwlmrhPO+VP0lBZ81KiDTjCGbCACRhFw1BNt9kdbuglNnw9YlxgFLK5yBfsQ5d9/7wUd34+rHjYvXI7rCw2NvhB/gCknhWPOmI4N2GkNKGxGOKwskOYDdP878xlgAbikgnMIOGIIQC7jK9UrHhdcH4GqsfoYf/R3D2cXIfN7s9ZszvemBMaO6NyZ4tSHSbN6XF9nfDAWaJ6H3qGIjk/3V8IBSIooDyWODwHM9XkrPiVTqUTAXgRs3wMwe9Wm3+EPfi6wu22W9nY0ZPeM7tPpdXvdcuZpW3NcHyP6x43rR6pFqySNjesi4z/RYXUCuhBdG2Y9/JnV9ST9iEC8CdjWAZj95ZdJYr//KQCUb/1uPfAeKwoaH04ZM6jvmTISoeuPcMf1owE1tnMDdnIKDQNEw87EPJ+g+7+HieVRUUTAtgRsOQQwd+3GMwL7/c+B+oW2Ja9GcThwPPNgw7ILZ6z+4vYxfc77Ro1Y+0kZOiDnYqaJuwDkD5jU18IIC9b+7Ge/PYWWAxrBVp1MsVydLJJEBJxNwHY9ADPXbE7jQixCtTR2dtVEbN0+BDjqP6p3p5cizmnTDDXH9bF87zyjzZCrAR7BagAPrQYwGnW08gMI531qwxEP7YhWAOUjAm4iYCsHYPaazaOwLn4GKoj6YYPfpXIDgoewSuDJ4JftfzYjY2wTXp54i1yvH+u4fjQ00s9OZl2bJUSTlfIYTAB+2cspI8Zeb3AxJJ4IOIaALYYAZFAfNP6P4v9HHUPeGEM4GsUnZq7adNq9fTqMxrr1COe6G6NUrFKPG9evwHp9LoKu14+1nHDyf7C7khyAcEDFIQ3udvlyQAcRIAJhErB8D4Dcmrdpo9YL8cedHqZNlEwSEKy4zbYOQ/r147bdDGXEwJzOfgxr4CYdBIvCWq9vdOXLYEAPdk5hrZOdu9rUaIYGyV+FyX9unxNkEFoS61QClu4BkI1/84ZtVuLN/1anVoBhdnE28Kczt2iIjJju49iA2CZHzXH9AMb1reah4l5kr/9QyfqfTQ6AlW4phPzOtZI+pAsRsAMBqz1fjzHDgxbd/psw2Y8PPnaSvkRBQCwZ1bvj3VYeDoj3uH6kUOUfzQOdUlmbVHICImVnUPr1KSMe6mHle9wgu0ksEYiJgGV7ALARzlQMaFPjH1P1ysx8MOZPyP3s74tZlEIBVhrXj9QsTKwo/WC3/5PfneG5ONK8lN4AAoLnUeNvAFcS6XgCluwBmLl600goNsfx9E01UIy8t0+neaYWGaQwK47rB1Ez2Ck5jPIBF3wZb+B5Zt68R0tK501bhXO9gyWmcyYREOzdlJEP9SUHwCTeVIyjCFjOATi6zl8G+bGcbjaveT8T+nX3XtD5TbPtqB7Xx5vzIJTd3uzyYyuPb8SSw2WceYvnF/mOW19eMmdqb8wJlBs00VhAbJCjze3XNa1Xw+EPfhqtAMpHBNxMwFKN7Ow1X54thP9jVEgTN1eKgbb/zALionsv6vSlgWVUibbbuH4tHj9i79/nWYAVLVg2cV2ta8f9PDJ3GvahEG4OR30cD1N/cD4tdcRDY00tkwojAg4iYBkHQMb2Z/v97+MtsaeD+FrPFM7W8ybeC0ede265auWOG9dnWK/PWNzW60dhWyk6nf4lmL68TbuEl30+nz8cGWL27MalWukmpG0bTnpKo4zA9ym8tCMf4aMdMZUhJUFuI2CZSYDiQGA64FPjb/QdKFg3ccAvl0w9qKqomuP6iMNvifX6Ydp23Lj+/PmRNyZ81KiDR+ZNzULchb+GWSYli52AEJrI5MMjr6/YiyYJRMA5BCzRA3B0S196gJp3X2HolF+d1avDW9EWeffdvlMT/P677DyuH/DrywqfnvRTtAxq5iudNzUfIQIya56j7wYR4PxJdP0rc2AN0pLEEgHLE4h7D8DsD79sLLgf46h0mEhA03VRDPadR1107sFwyz1uXN/vvxKNvyUcyDD1rxrX11mguHDppLVh5gk7WXJq6ZjSkpSLkKF72JkoYcQEdpbpB/67vXxixBkpAxEgAicQiPsDHHHrZ2Em9agTNKMTZhCYfm+fjvfXVVDNcX3cLL9Do9+grvQWuxbVuH60NpTPm9oxINhq5LcTo2jNNT3fEcB9asMRtq8i8GoZS7i1qMhXZroSVCARcBCBuDoAc9Zs6qILJt/G4t4T4aA6jcQUv9B4r9G9OpywjKrGuH46BJ4cidA4p415XD8W/Y/MfeI2xvTnIYN2rIwFZK28cDzZkq9K2Yb91XMzBTkBtRjRTyIQKYG4OQCIUa81X7P5PfxhUzS1SGtNZXrB/29Un/aXyUAqclzf4/f/HjfFIBTRTWUxxsv6Zb2+ynH9aHU+Mm/aGCaEnNRKhyICL3xXzv5vZ0UtaeQE1AJCP4lARATi5gDMXrX5Lmzg8XRE2lJiQwjs+WTT7N3vre2EEf0rUUDc7okojDN0XD8KfY5lOTJ36iz8oKGtY0Si//LqjxXs1R9DrVolJyB6spTT7QTi8rD/ZaOfzbLb+Xy3V4AV7C/fs49tXfEyXlplR6vlD1PH9aOlIVas8JTu3vpnLA+8I1oZlI+xD3dXshXb6xvqJyeA7hUiEA2BuDgAiPUvu5nlOCkdFiHw3cvvssPffG8RbU5QI67j+idoE+aJKidg17ZliBT4xzCzULIaBNbvq2TLvylneliOKTkBNdDRVyIQFoG4OACzVm9aA+16haUhJTKFgDV7AfhGNJ4rPR6xdN7ivO2mgFBciHQCjuz6ZhF2tkxXLNrR4lbtwZv/tjImPb/wD3ICwmdFKYlAHMZ7Z63afB3j4mWCbz0C3/7jTVby/XH73cRDScuO60cLQ/h8WlnL1LmCiWHRynBTPjneL8f9ozvICYiOG+VyIwHTewAQ9e8Vwdm1boRtdZsPfbWdff/qe/FQ0xbj+rGAybrL1/jCU7Rtt56e1IzWBwYnKeeg/PP7CvbOCbP9g6cPfZacgNBs6AoR+B8BU9ffz1m7ua0eEFf9r3j6ZiUCjc4+nXkbpDB/Cdpj4w9bjutHi6XS65/y3i7WbE+5zgaclcySPab73tGqbko+GeTn2a1lNdb5x1IsvzaZVf49Pd1HwYJiwUh5HU/A1KfQ7NWbH0Q36DTHU7Wxgbs/+pTtWfOZgRb8Mq6P2E9FC4p82wwsyDKihw7IuZhrQnatVL38n5yiwQlIYW3wPx2M/XBEL0GQnwb7KiIb8a+fHfUE1M+IUriZgKkOACb/rQfsrm4GbnXby/cdYN888y/ValaN63OdLcsvnvixauFWlpeVlZVUebjJOiwH7FhTzwS0/de2TWJ9WyfaKvBCTRsUfJfrTucUf16at77U/xJA9FYgs5YIcgJqAaGfROAYAdNeQWav3tADpVLjfwy9Nb8kNWvCEps2VqGcHNdfiR6fm1u3856xYOnEe93W+EuIFYeaPFa78ZfnK/Gy+6/vy1nhF0fYAeVvvrIEyx/fYUvfm1JHjr132ALfrmTuvRqc5Oogxcex4YBkxYJJHBGwPQHTegBmrdo0GR7+w7Yn5gIDdn2wju1dixV4kR/HxvXLPeXPLlky7VDkIpyTY+jgnG5cF3JzoIS6rJLzAW44JYld3MrLNOyM5fCjEvbNTOGlj/MRvsM1bR2d7mtaJvyvU09ATSr0nQgYR8C0pw2C/6xGYQZ08RkHx62SS3fuZduefyUC8903rl8fHJ/P592xzf8R0vWsL2319bapHnb76UmsXUNP9Smn/f+fgEcb0WjYg5+HMoycgFBk6DwRUE/AFAegYM3XTcpExV6o79gnm/qqiZ9EuRzrq6K/Mf+ROkOw/sQ4X+nGcf1waiZz4IRsvMnmhpO2ZhpsysS6NvWya09JYK2THfPn8ikTPDdl5IPPy02natob7Ds5AcGo0DkioJ6AKQ7AzNWbb+ZM/EO9+iTRKAIhQgPDI+D/FExf3qZdwst4y63em9UoNWwpd9jgCe2Fzj6B8lGPO8s/zB7Nvey6tkn+lsmaqct1FUJfBV8yL3XkQ/8Mp+GvWS45ATVp0HciYAwBsxyAGXAARhtjAkk1goCcAyDnAuCgcf0IAMMp0nZu9b+LYFe/jiBbyKQert06tWdqGeYGjESi6/ExbeJuSKXqvhBAJ8ZreM+fkTxy7Ot1J637KjkBdfOhq0QgVgKmOACzVm9GSyK6x6os5TePQOnOn49se/7lJ9y0Xl8F3aHpE7LwRzVbhSy8PT9dUJzbv1pW2fzJZwUCWjoa2Dtw7rzq8xb5Hz0eYrlICDzbYGj2T6p0IidAFUmSQwROJGC4A7BihfD8dObmEhSddGLxdMbCBMr2pepNfJ07RxuU3cKmGaNaxgDf6ZrmlxPcGsVcgmB7mO7tvGC5b1cwWSWzJ/fgmnYH/oCvx6D6+Uhj+N9yLT38ctme0NibQhfPNcx62LDoUeQE1CJPP4mAIgKGPzSmf7zhHI+ufalIXxJjIgEN89Gyenc07MFuoimmFDUsfcLLaIyvU1MYv3NB0cS/hCPrUP4TJ3n8oi96BvqifKy0EdIhUO1wS0fwcyYEhje0t1JTxLt8yFjTlnmSExDOnUBpiEBkBAx3AGav2XiDEPxfkalFqa1BgN96b58ONHkzjMoYNih7IO7zojCS1ptEMP5SQdHEG+tNGCIBdh/0Hj65QQePLrogDsFZWK1xCgIynYbkp+Ijozw1xEfGJmiCj5zIKXvo9uFzWH7HQ+EgOhS2YR7DFqHrmz1C+yKpdbttvF+/AK7H7SAnIG7oqWCHEjDcAZi1ZtN96Cp8yqH8HG0WJm6OGdWn00xHG6nAuIwMX0utwi8jJ7VSIO6g3+vtvGiR73sFshwngpwAx1UpGRRHAsbPKBasfRzto6JjIKALfmYM2V2TVasIzIexKhp/xgV/kBr/0LfOzCLffgobHJoPXSECkRAw3AHAcqAzIlGI0lqHAMaUz7aONtbUJHPQBHTVizRF2r2L/RIWKpLlWDHkBDi2askwkwkY7gBgUpIcZ6TDngROsqfa5midkTG2CYa3FigqrVTzeO+GLPzJ0FEfAXIC6iNE14lA/QQMdwCwOElOOKLDlgQE1V0d9eapSJBzW06pI0nYlwQXj8xf7Psq7AyUkJETQDcBEYiNgPEOgIo10bHZSLmjJMCZRg5ACHbDBzwil9wNDnE5stOcrWtzRgJNtoyMWlVqcgKigEZZiMBRAuQA0K0QkgCWjjUIedHFFzDrP1XXdDlWH/sqGoFleAE+hPZViP6GIicgenaU090EzHAA6C3SvvcY1V2QutPK/bk4rWSCJNf4pAXLJiJUNh2xECAnIBZ6lNetBMxwANzK1gl20/1RqxYzB2RfgPf+UbVOR/mTby4VnslRZqZstQiQE1ALCP0kAvUQMOMBL6OL0WFPAtj+l45qAmlpvkRE1VuM357qczH8r2O+/91FRT5iHAPE2lnJCahNhH4TgdAEzHAATIsXHtpMuhIlAWqcaoBr0cA/Hm//59c4FfVXhPudvaB44n+jFkAZQxIgJyAkGrpABI4jQA7AcTjoRy0CR2r9du3P4f0ndITxDysCsN2T6slRJIvEBCFATkAQKHSKCNQiYLwDIKo2GKlVLP20AwEscwu6Fa0ddFepI2boa7qHLYJMJTvsaYJlzJ/vo6ExlZUURBY5AUGg0CkiUIOA4Q4A1kkdqFEefbUVAbHbVuoapOyOrf4xEH2JGvFiyfzi3NfUyCIp9REgJ6A+QnTdzQQMdwB0zra5GbCtbed8p631V6B8ZrqvHcT4FIiSInbwisADimSRmDAJkBMQJihK5joChjsA2FDmC9dRdYjB2A74G4eYEq0Z6MCqLFQVzhpDKiPyn5myL1plKF/0BMgJiJ4d5XQuAeMdACa2OBefsy0Turudt8z0Cdich1+tpJYFe76gKPdvSmSRkKgIkBMQFTbK5GAChjsAfk4OgF3vH6GxL+2qe6x6Z/xpfBvImBqrnKP5DzAhRiuSRWJiIEBOQAzwKKvjCBjuAJz6daetoFbuOHLON6hSVDTa5Hwzg1uoJXjm4Uqz4FcjPctHL1iW90OkuSi9MQTICTCGK0m1HwHDHYB+/XgAWDbaD43rNf78vktOK3UjhaGDsu/AG/ttimx/a0HRxGJFskiMIgLkBCgCSWJsTcBwB+AonXdsTcmFymPC2ioXms1GDBjXggs+S5HtR7jmvQeygJMOqxEgJ8BqNUL6mE3AFAeAC/a22YZRebESEO/HKsGO+QOaZwb0PlmJ7kKMy1/ic/tKCiUojRJCToBRZEmuHQiY4gAkaYn/AQw5FECHPQgIwdnr9lBVnZbDBoz/LaT1VyER6wc/2nvkCzmPgA6LEyAnwOIVROoZRsAUB2Bo77MPwIK1hllBglUT+HxM704/qRZqZXn9+z/QgGmaqga7XBN8yMqVK8nptXKl19CNnIAaMOirawiY4gBU0eTsDddQtbuhgr1kdxMi1T/VkzwVA/VnRpovWHrORe684okbgl2jc9YlQE6AdeuGNDOGgGkOAA9ozxljAklVTeDgF9+6apvaoQNyLkaX/TBFHD8NJOxWFT9AkUokJlwC5ASES4rSOYEAnnvmHbNWb1qP0rqaVyKVFCmByoOH2VfL/1GBfM9hBrvP6ZPYsrKykioPNcXwlOgUKasg6QNCExcVLMlbE+QanbIRgdHpvqZlwv86wkD3Vq+2eLWMJdxaVOQrUy+bJBKB8AmY1gMgVcLEsmXhq0Yp40Fg/5atsthEfPoL3b8xc+CE+cMHZZ8WD13MKNN/sMmjihp/RA3mT1Hjb0atGV8G9QQYz5hKiD8BUx0Aj8afhck0MSr+9R5UA4Hg/wc2fV3zWhLegIbpgn+FuPjLhg32nVXzot2/Dx2c0w1OqZLd+dCVtrXEX/q43ZmQ/v8jQE7A/1jQN2cSMHUIQCKcvWrTK3joXutMnPa26tC279n3L71blxGOGRrw+XzeHdv8H8LYXnUZHOY1IYR2dUHx42+GmZ6S2YgADQfYqLJI1YgImNoDIDXTPUwGWqHDggT2fVbvzs3VQwOb7N4j8NN2/4OoAhWNPzpJRAE1/ha8oRWpRD0BikCSGMsRML0HQBLAZEAZZraP5Wi4WKHyPfvY1hUvIwQ+FsOFf9iyR+CeAePO82ieT2BmSvimhkz5YzLzdpaNRMgUdMERBKgnwBHVSEbUIGB6D0BV2bqYXEMH+moBAnvWfB5p4y+1tl2PALr+NTT+i6C7isYfE1vFcGr8LXADm6AC9QSYAJmKMJVAXByAURd0/Du6HihQiqlVHbqwsr372MFvvgudoP4rtnEEdm71y/X+l9ZvUlgpnilYmvePsFJSIkcQICfAEdVIRhwlEBcHgCNUGsrPo1qwBoFd76/DSriIuv5DKW5pRyBzQPYpmICq6r7bywLeMaFA0HnnEiAnwLl16zbL4uIASMhZvTv8Bf/VOeXcbZURD3uPfL+TlXyrPOy/NR0BD58Pxk1UcOaMj1qw3LdLhSySYT8C5ATYr85I4xMJxGUSYLUaMz/e3JXr4mP89lafo//NIyDX/W9d8QqTEwANPuI+WTAzPbs/IvUsU2TnvxcU5d6gSBaJsTEBmhho48oj1VncegAk+9G9OnwqGJ9L9RAfAj+v32xG4y+Ni2uPQEaGryUa/6cUUT6ocZGpSBaJsTkB6gmweQW6XP24OgCSfXk5ewQLqX9weT2Ybn7loRK2Z9VnZpcbF0fAU+GXTmYrFcbCYR07f2leTDMmVehBMqxDgJwA69QFaRIZgbgOAVSrOmPNxluxf/rf8NsS+lTr5dT/5Vr/7158i5V8vyPeJho+NDBs4PgbBNf+pcjQd9H13xeylMyYVKQTibEIARoOsEhFkBphE7BMg4vgQLOhdVbYmlPCqAngLXbmlvynX2I6y0VLdmHUgtRlNMQRyLrL17jS698At/JUBaqWawHWY/7y3E0KZBkqQmRkJOwLJLdnXOsiOD8X9p8Cn68t/thPw/dGqPcm+F/2/jXFpxKfEvzeB7empOo74wcQs3MbY9oXWK+zWdM8W5rs27aNr1wZwHU66iBATkAdcOiS5QhYxgEoWLMmoUxv8B88iC6yHCVnKbR6X6r+a1/nzrLRZcMGT7jKqY4AwhUXwsR7lFSfEGMXFOdNUyJLsZAdmQ+clODX+zKOD+PSoZNbG8vhFpVHBZZQboBD8A7X2dsi1f9uizlzDqoswCmyyAlwSk063w7LOAAS9ew1X54thF+uClCyVMv51RephXy/prOeWRd22Fo7p9McgWGDci7DUMfbsDPmexy9JJ+IxF0XFBYWyrdlSxz7htzXQ3jE7YKJmxGOsDOUitnOCA2TvQEfo2fhLY3pzzZfNOvTCPM7Ojk5AY6uXscYZ/ZDo15wM1dv+j2UWomEltOtXuWtncCPhuKmey/o8EpdajrBERiTNialNDX1U8b5OXXZGtY1wfy6pl9YuHTS2rDSG5ho/+AxZ+leNkQX4g7EITjbwKKiEQ3ebJnuT3i21ZJpP0YjwGl5yAlwWo06zx5LNrKzVm8cgfaflgcqvd/EyHv7dJoXrkg7OwLDBuY8gRj9D4Rra13phOC5BcUTc+pKY+Q1gb0L9n134AahMRnCWG6jHfeVO/XYG8BcgtcxHDGzxcJZr9aT1vGXyQlwfBXb2kBLOgCS6MzVm6dgm9WxtqZrGeX5tHv7dIiKpd0cgeHpOX10Jj4Aeo8C/FvKmLd7UZGvTIGsiETIhv/nHw/+HiGaH0fGDhFltk7i9XCgprc48N2f3TyBkJwA69yQpMnxBCzrAGD8ls9es3kx1B10vMr0KzICYsm+3h3v8XFM3YrhsIMjgJ3+vDu2+1fhDbRHDKZWZ9V1TVxWuCTvveoTZvwvG/693x/8E7bLmIDyzjWjTBPKwORBkdds0cy/4IGDKRXuO8gJcF+d28FiyzoAEp7v7be9zRq1XoFHxm12gGk9HdU0/jXtsrIjMHRg9iPYaOqxmvpG+x1/GHPyi3JHRZs/mny7776/l8Z1uRz2kmjyWz6PYGsE14e3XDhrteV1NUBBcgIMgEoiYyJgaQdAWlblBDRsLZdzDYrJUtdlVt/410RoOUdAsFcwCU2OkSfV1DPK799WaBXnL1ky7VCU+SPKdnDEiBaVFQlPYt7LQGS0/N9kRMadmNjPuJjLkgKPunEZITkBJ94QdCZ+BGzxsDk6HPAoMMkPHfUQwNKs2fv7dBgTa7d/PcVUXbaYIxCOyvWmQR/1bwuKcutcLVGvkDAT7L7nvps1IQrQ7LcOM4tDkokfEVdgRMvCmX93iEFhm0FOQNioKKHBBGzhAFQzmLVmUxaGA2bit9VnQlerbPb/AXSBZ43q3SHf7IId5AgUI9xvutH89mZlNWal3tlo+OVbv2sPLGec0yy58kE+Z065myCQE+Cm2raurbZyACTGWR9tvI1pfCm+UrCgGvdVoLyC7d/yzSOPD7ltYo3Tpn+1tSMg2J4ELdBpztLJu40Et3vwve01jyb3vpAR+1x/4CG01q+zO05aPOMrN8EgJ8BNtW1NW23nAEiMs9ZsOJ0L7S/oqr3YmljN1aps1172w6vvsYqDh7/GsrXz47FsrbbFdnQEsOy0X35RngxCZdixN+O+NCztW4ICGhpWiD0FY/8BPqTFwul/taf60WlNTkB03CiXGgK27Eq/t3fnb39O1S/HZKJZwAA/wJ0H5kawvZ9sZNv++pps/CWEs1N4pZIAOLESzV+S+wZm0V/ENXY1vMyPYpVneH7B/mV84z86B43/c7CFGv8TKxQ9emLl3owxY0685NwztJWwc+vWDpbZsgegJlgEDLoZa6bnww04peZ5p38v33+Q7Xj7I3bkx121TS1lzNtpQZFvW+0L8fxt8R6BA0wXnRcsy/vBCEYiLc2zt8kpczA/Q0bzo6M+ApjE2nzRjNF4OLnGuaeegPpuCrpuBAHbOwASCnYSTC0TDR7C13H4qN4FTRZhnQNv/T9/uoXt/mg90yv9wfUS7PkFxblpwS/G96w1HQExbkFR3hQjyIg0X+LPzQ48i6bsd0bId6xMzpY2b9skg/t8IW5y51lOToDz6tTqFjnCAaiGPGfNpi66zudhaODS6nNO+v/w9h/YzvfXsYqfMVxaz4FXJ9OWstWjStDLFnME5NbIz3HN68tf4vsmqMJRnERUP+/PPxxYgay3RZGdsjD2QvNTmvQjJ0DVrSBeLWMJt1phjpAqi0hObAQc5QBIFFUxA1ZvSYMTkI2fXWPDY43cZXv3sV3/XctKvtsRiUJfJjQ60GWOxZdXOdUR+KXb/9RlnLM/RlJplPZ4AogV8HSLwhkDaDjgeC7R/yInIHp2zsvpOAegZhXNXr3xKmwpMBFrrS+qed4u38t270N3/yZ2YMs26dlErDZ2xHuwYGkeIsxZ/3CaI7D37vsWwgm92/rkra8hbv0pLRfNkMN7rjloOMA1VR1XQx3tAFSTnb1m0zXYQx2Tivg1OKdil7hq0Ub8X4llfd/u+uCTs0u+j+iNP5guh7yat8PcJT7b7M/uBEfg53vuGyuYMGROQbBKdsc5fj+WCE53h62/WElOgJtqOz62usIBqEY7b9WG1pWc38mZNgCv1N2rz1vk/y3oqSjy6nrR5lkrj1Qm+DdDrzax6oa3p6cLinP7xyrH7Px2dQT23DPmNvxRPQ9etlxia3Y9R1Cejj6w21sunPFCBHlsn5ScANtXoaUNcJUDULMmZq3eeD4axzs0zq/Eg6UPrnlrXjfhO4Y32TrG+Qt+PfDCfRd03lCzzGGDJgyCfjJgTKyHHDu4AuFt34lVUDzy28kR2HvPmM5gJGMeNIgHKxeUud8TYL2aLpmhbKKmHZiRE2CHWrKnjq51AGpW19T3NjdKSdZ/g/kCV+D8Zficj4+KXeVqFlOOH59jXPg9rvP/MK/3/0b1PLeukLM8c9CE/2L52MU1hUTzHR7AhjbtvN19Nl1SlTEo50JsmPM+bLfKW/UJqwa2pvuSGycc+BA6doumjihPmASwpXDzFP+vae+AMHmFlYwmBoaFyYGJyAEIUqkrVgjPD2d+eYYm9PM41zugAW2PMKXtkLQxPjKKm/w0Pfp/Av7fj08An4P47MPnR0za+55rGv5nmxEA5vO9h378yte3b0RrmjMGje+pCW0V5MU8bwE2jMIOd3Mgy1ZHVlZWUsWhJh/jRpVv11Y7jjkCuZ79iEPBh1pNQYfqM6vFwhmjHWpbSLOoJyAkGroQJQFyAKIEZ1a2zPQJC1CWiobloMa87ecX+WKeWWiW7bKcoQNzJiLS4wQzy4y0rI5awP8nT5nZQ0iRqumk9EJn/NZWC6e/6CSjwrHFDU6AeNvnZU09ZzLuaY95UR3A5Ty8SJ2B/xEuump4TQ6xVb+A4d2GleAjX7zwP8dHyEAp2/D5Qr6AMW9gC9vUfhvv10++pNFRgwA5ADVgWPHrkCG+5gl+v5wg2DJW/VDZixGf3zZL04YNGN9VaNoa2C17WSx5JHHB7vWW4cmkW1I/Byv1E+eJHZsXTq0/KpbDIDjNCRDrfGjMky9jXL8CDfbleNZ1RJWp/puXvXWYZ8XfYTzwNiv1v8sv8skeW1cf5ADYoPoxF2AY/jDmK1BVx453v8KmN3Ks2tJHGuLnt0ht/yEeBr2trOjNngp2oVZpZRWdq5tgT7VYNMMSm1+ZDdnuToBYn9eTCX4HuF2JT3d8Yh7mjLAOZG/Ax/i8xTziWd4l+9MI8zsiOTkANqhGTN7TdmzzfwBVL1Cg7set23kvgExLv7JmDsx+CCskpiqw1zARp/EAG4q3f/ojMgxxfYL9XA/0aL549uf1JXTidbs5AWLt1LbM48d22Hwg6qOHxepkI+ZtrcRnKe85YbvFdDNMHXp2GYZWreChA3Iu5pr4L6SqqLMMLAtcqFZDddKGpk84F0auh8QUdVLVS7rbU8bO1GhYUT3ZSCSK95ovnPkb3C9yLNh1hx2cALF+8nVoWMegcuTbvtlv+pHeE/IP+nXcTjN59+xXI81st/QqGhO72WxbfTPTs5ei/U9XYMDPHj1w3rxlk/cqkKVaBIed+APk8mGh4vDhJv8tWocLVQirltEeDf8AOAB0WILAHVgVIDddcuVhRSdA7snCPs27kQlNTuBV0XMZj7pdj2Xb09mWc//s1AmEVllXHY/KtV+ZgQSEmK1achir7s0DmvZ4rEKMyD80PQcrHtQ0/mj4n0NPx2OY+HgR19jV+C2D9MR8SK/5Gk3OKaLDIgSy8Xchq8WVx8wi3/5k7r0afSBywqzig1+bzCr/no44F+EIlg2/WDf5LrZ+8udo/OUqDbs2/tLcbhiuKGbnfbUevRh3Vjk14UCwURrX/tHYqI6OU3VYevZowfiM405G90PXGL9oftHE1dFlV59r5GBf20rdvwE3pVziE+ux1+/VOy9aNGlnTUEqIgt20fzsDx4Z14kOqxDAssBb3LgssCb/ePcEiM/yurKAlo/u80tq6uWY7xwOls6H8x7jLPPMjJUt9QDEStDk/Ce3S5iLIlXMWNV0jHNBlmWcQIREnq+o8YdZYkztxl9WVf6S3Ddi7RH4Dc36lygtdWisavtvS+lktjLx6gkQ659oINbl+ViAo2F0aOMvK1NgRRIX74tPJs0SH/pkUDjbH5Z5+NuepIkGZAzO/rUmwwkraLzRYzewoHjiMhPVD1rUsPScP2IHvT8HvRjpSS5eXrA07/pwskXaI3Aexv4H0th/OGjNTyO0a1osegrzR9x9mNkTINZNuhWvEPNAvK3LqMsoryN4j/F/t7Pd5ADYtPYQIfBZqP4HBerv1BMr2xfGMaDKiAHjWgQ0z0bYclKs9uCGLqkMsC6LludujURWuI6AbPylE0CHJQm8jMmAYTl+ltReoVJGOwF9OjZOG3ytPxvvIA9BbRe3I6KQNWg0ip87ypZjgjQEoPCPzkxRCOsrl9WoiGR1sqci8REzda9dFhr/2TgXc+NfJVewsZE2/jJfOEMDTbnOzqHGvwqzRf+5ZtfwB1tbVDdT1TJyOKB5I+3a63r7v0W7PxZGubjxl1XKM1jJ4ffFx5PPMbWCFRVGDoAikGaLmY+Y/vjLm6SiXMxuHZWRntNFhaxIZWDNv3xj+2Ok+YKm5+yDk8/0YhJS9Ee1I4BZ5TdAyqqakvpwv2W2I6ypF30/RsDjqQyouZeOibTvFyOcgO7neNmE/smsbQuuYqKufeEer3lPRBNcg5UCvz/+tPV/kQNg/ToKqeGeEi9WA/DNIROEe4EzLyZRyXE8U735rLt8jVHggnDVrCdduWCBu1VFOMTOif/GEsILay4f7IrN6OmwNgEsQvuTtTU0VzuVTsDl3bws44ZElpJo6mPCXGDRl9ZERhLEZMgHoxdhfk5yAMxnrqzElSt9FYgOmKVI4KWZA3PSFMkKS4w/oVKG+j0trMT1JELYkccKlk6W8wiUHtU9AlfwiqzmtOGPUrZGCMPeTD1+zhgTl94sI+xRIVOFE3BN7wR2R99EROdWoZFjZXAAmla1SkAGQrLBQQ6ADSqpLhVlA4Wb7oW60oR/TTw1fLivYfjpo085bFDOZYhngKA/So71ImHXk0okhRByZULl6SEu0WmLERCC9bOYSnFXJ1onQEOL/8crE9ltv1a9OV/ckRipwCj2yZQisabA8tDIATDyNjBJth7wjIa7WRJzcZydKkr842OWU4+ArKysJCz5k2P1sXvJgvm54EMKCwsr6yk2tsuiak5AbDIotzkERFXMeXPKslEpkToBsvEfcn0iu7SL10ZWWkRVLgYw757nxNs+S8MjB8Ai90ssahQu832LSWtPxCKjOi86ru7Hkrj21b+N+L/ycNPHsYa2owrZ8CCeyC+e+LEKWaFk7B78kFzjrETfUGXQeYUEOOuzNyvLEYFaFFKpEhWuE8Cr3vwTWM9zrb53j2pCKuXx21izpKVWDiFMDoDK+o6jrIRGB6ag+C8VqJAodDFHgZygIoanj+9+dGewoNcjOYkhhC+Sj5RMjCRPNGm5t/Jq5Iu9tyKawilPNAS8vNxzaTQZ3ZAnHCfgtl972a/Ot/TLq02qCpNS109WslrLCIPJATCCahxkzpkzpxwzoBXNQOVXDx2UfYtqMzBD36szbTHkqhgbw14G7O4ZK2eUqtaztjyu81/XPke/rU1A6LyvtTWMr3Z1OQFywt/VvVT8icbXRguV/jAiJo62kD7HVCEH4BgK+38pWJr3D7wVv6TCEoyrz87I8KWqkFUtY+f2yofxvWf171j+x5BHfn7RxP+LRUbYebnoHXZaSmgJAujBJgegnpoI5gScf6aH3foravzrQRf5Zc6eEp9Mvi3yjMbmIAfAWL6mS8d4070otExBwadrFX5FPQqMyXkFWBmD0KFKjh9EYqUqWXUq9GNGhnSCzq8zEV20HAGdsc4iLY0GsOupmZpOQAtE5Ui/hpb61YMs2stoa8US8enks6IVYEQ+cgCMoBpHmYXFuV9juHq6IhXG3t1/wpmxykLXv8YCbBHkhLWneH3lYa33cLP2LkjgDTpBHxoMra9SLHYdEzaSDjQ69QyLqWVJdaQTcEXnxjeNuCXpSIMUkKPDKAJNMf/pOfHl7CSjCohULjkAkRKzQXo90ZMHNbcrUDXF42ExOxM7tlaOxOoCVePoy/OLc19UYFtYIjyCnRdWQkpkOQKBBKq7cCsl7Vr/421aaEqH/MIt21Xp5JbCh0tkADRLHOQAWKIa1CpRWOg7wkTVLl0xC8b7wK1H4/VHJWvEkOwzEKgoN6rMtTMJtieBB+6vfdrI31gRca6R8km2gQR0ZuhyVgM1N1W0+CTvWizLvdvUQt1cGBejxPpJN1sBATkAVqgFA3RYUDxxBcacXlUhmgsxSwbviUZWIMAKkK9RNHlr5xGaGDln6eTdtc8b+5ufaax8km4UAUwU7WCUbKfIFR/6GsNBL4Q91PdvXqVyOFwLxJopTcwrMnhJ5AAE5+KIs4Lr98GQ2CPkcX5O5aHGcvvhiI7M9Jx0PFeujShTiMRydQNWOTwX4rJxpzlvbZxwkmwkAbRoNAegPsBJCU+hMaIw1/VxUn+9DfOKHPViI5NIDkBkvGyVWm6Og90pFAX14TlV3flhEsgaNK4VJrwoiU6IIg8GvJ7MMItWnEycrFggiTOPAEUDrIO1+CT3Arz9D6kjCV0ylIC4V6yd0s3QIuoRTg5APYDsfrlcK/fBhh8V2JEaCHAZbTCso1L3zEenYsuwEtef6IFFi3zf15/MkBSqbDBEORJaJwElQ091lmDri5rcQIu6/uNXh16mBebGM1QwOQDxq3xTSl6yZNohzAWQAXhUHH8YPuCRvvUJGpqefRMeK7fXly7M6+8sKMqVSwjjdTSIV8FUbswEyAEIgVCsmyIjfV4a4jKdNo0Aooyun5RmWnG1CiIHoBYQJ/5cUJT3NOx6V4VtuibmZmRkhAwVlpExtgmGHeROfyqOI5rHew8EYT5X3I6oJj/GTVsquCYBcgBq0jj6vWqHOi4ssxQtiIruOoUAafHqBfC6i7RrrRXMo49kfm0d3sxjrHPRyVPRagRIzgxGU6vwyrgBpwS7FvE5wR6Zv9j3VcT51GYgB0AtT9OkBRhrjj0tCjTBv4EP+Q0T2jeH9dLNy5c/WWKaElYsqFnCH8CjvRVVc6VOnHVln06+CbabFt+kmjON/1STcMH/WM8/FxUuG+9Yj4O6X+9Q+PSkn2oKksMDuqa/iXMq7qvVe0u2XLxy5Uo8x+N37L1nTDlKT4yfBlRytAQQDpjlVAYdwdmHS3AK+DeiyjHgG9EVuiGJe76WUfGiLc8u+cQnk9ZC1x520dcleq7i3cdfaLatMb4Nmq0ulRcLAcT2zxGJ3n6Q0SoWOcjbWPNqk/F/erUcuXGQXuFfiN+xN/6C+RHIaGi8G/+jth3G/82r7aT/7UOgjvWvzWBFL7wF96q6WRFbWo4xleG2y0yfcJxzUNV74EHvAfN+c/LpbBvCWku/wraHWJ93JYylxt96NXiBWJd3Ne+R/bqZqsX+sDZTWyorZgJ4wMkxdRn4I9YDw1bi8oLivP9IQUPTc2YguoWqLS8fw8Q/n5Qb7wM9ANugA60nj3dFRFF+CeJPT/IrjW6L3iDxA5zTbxCU6puaQwul3LOhqMinYhOuKCwNPwsi0L0EB+D68HNQStMICP4y7zHO1LohB8C02rVGQXJjnp3b/O/jjSf27ibO1u09vKVPs4YdemtC/BcWKth9jW8uY54eVnmY7s0Y/Rke+LQboDVu34i02Cc09qQ/JaI8USeWvVZcfBvMOSj3lH/xy2qcqKUrySjWTW4HHdGboaCXTolGJKQWAT9L8J7GOz+0o9Z5w37SEIBhaK0pWHZhDhuYMwIPglXQMLZVIOhKbN6g/XAE/BkKWQoaf6bj7eTuomILvUkJLocA6LAhgcNmtnNVk2v5WSjyLI6eh1+WreD9CsMLiXpinUML+Ut8W4H3lyxGctbYnSiFXvqMZBybbC+rrLwTImbEJib83HQzhM/KUSmHpU9YhCeOiihgstszWQkcwWYsKM6V4Ystc+y9575X8Gy+1jIKkSJhE/hceNmz/qSw08cxIf6GxI/oPdgI32FDzXkHew5t2K5qLgwm/30KG7vE0U4qun4C6zAZsGf9ydSkoB4ANRxtJ0XTA2MDmudWKN4iRuXVNP5MbNMaJDwSoy7qs3Ox3YR3M/V6k0S23/h3alWU8Td0tPeAsRsFeg3QF4bDz1o0aF+ZmZ79XbChhUiWNIrP8rqyADX+qirMQDk9xKdTuvCuD39mYBnHRJMDcAyFu77MWzZ5b+agHB+67+dYwHLMqeJD58/3WbG7fbMF+JAKURA4gDkADjgQdCv40EIDT/IJQwuyFyHoksaAssicDkBqcRN0Xa7UIgfA4tVke/X2Ht6cjzH8IRgH6h5PY1D+kvnFua/FU4dQZWM09wsaNg1Fx9rnd8Y4xcXa1h3TLqwljXsOsF+1bHIsD32xMgHOroR6OWao6AgX2QxQTixDji1iwtJI2BbPztIdrML/oFX5+gN8i1V1I73qJrDDGT0AdRtZ99Uq5yA5kaU1a8Ta1p2UrlqGgGB9xIc+U3ayJAfAMrUeH0UWFE/8rxDsz/EpvcrzGJH/zBQZfMWSR6uD32+Fd4T133TYicAhTHaXcQDoYOy8UzXm0YiFje4FL0tKuNQMfckBMIOyxcsIJOgPQMUD5qvJVxYU5f7N/HLDL5HLUMScbQw/B6W0AoGdOj3aquuh/WnEopqFbf7nWl8zdKU7wwzKFi9j0aJJOzHzONdMNfFWvd+reVRFDjRUdUzKfsfQAki4cgI/umP8Pyxup59Mj/mwQFkqkSAHwFL14XBl2pyRMBMmmjLzVKLUuBg9T+muKQAAQABJREFUd4nvRztg5Tp72w56ko7/I/C1riIu1f/k2flbm+bEwob111msWGF4xZFraMM7wwiVESHQL4Q2xgjZQWS+lb80b1mQ89Y85Un8DxSL666E1gRjTa38UGubksCU1rQvEq2aNuSsgaJIHZGUS2ljJpDE2m85PWYp9QggB6AeQG66XFD8+JtYD/C8kTZjKlIJ17xyQ6J4rjyIyMTmhVMxP4LLLVTpsAEBnWv/CXB2NVa4DMVNNhV1txJqf4xPqQ3UV6pi2xY0+U8pUFOFedsbXRwFAjKasM3k+xO8YxL8/t/iwRl0I/VYzUGAs3EFS3zfxCrH7Pyc6W8gHkAfs8ul8iInkCjEP/KX5L4RLOewPz7cLJDs6ewJaJ10Ls7iMsgOE/iwc/ExZelVML2MOte6Ob3jGcXWcLm66IAyEIrcuIMcAOPY2lLyokW+7zMHTpiMme/KJwXiXeSjvSVb5tsRDNe054QuxtlRd7fpLDj/dyibjy45fQ/X5ee4QzoHLCEBG/rocAj4WVUOgg4HAY4Cfp+JxLZ7nW7R2HYqH1cnLv9xntH2091hNGEbyk9L8yU2bxD4DFHwVN6A5R7Be80rnrjBhkiqVN57z5j1+NLVrvq7RO9VLRbOiH2r61qwsrKykvwlLU5BfP6zWICfhRhDnZkuOlU5B4KfDtfAki9TGTcksh7nWlK1WoTp5wkEBH+Z9xh3/QnnFZ6gO0MhTKeIWrnSVzF84IQsnbNXVdnEscxwXlGubRv/XziI5XgJfEIVE5KjngDnvEi9VMbmzJkjg0HJoasThq8yMjISPP62p1U7B8cNLQjWHs5BQyN0Ckdm88Y0BBAOJ0um4cLwISlyACxZ8/FXKiD4ITTacqKeil6iylJRMjf+VsWmgR5IfEbzVE6BFMOX58SmqWtzl2mexL+YbX1hYWElygzqHEhdQg8toBeBsTYyjVFHo1QVf75GaUdy6yQgWKM6ryu4SA6AAohOEyG7OysPi8WYp6/q6ZGQzBreB06P2JlVqyXTftx7z32YXCautbMdjtWdi380zbdeWOmj8w7kKgT5Oe4I7RxUzTtoh8QxvcIn0hP+ON62+sHJAbBVfTlF2cpDTX1o5DoqtuehewaMe3rhsslfKJZrsrjADDyTyQEwmXo4xSG4lO0mmNblHMi5OC0bsVODDi0wJv8+U+vjkuBV5cPXVxJdV09AGN4DQHeH+lqztcShg3O6cV2shhHYh1ztgSVX/8wvmnizWqnmS0MvwCo4SLQk0Hz0oUsU7IMWi2ZcEjqB866Es6Rx3r2piLrpPNtdYlE57z7e0DBO1EHkkjspHDMRDdC7Y5t/MdIqb/xl+YKJm4YNHH9DfvGkl8LRx6ppYMdkPFP/ZlX9XKkX1x9zm93hLGnEPB44qzymYQS3cXWTveQbuqm267F1WHr2eAz75wVPpmo+IPu6jHnPLyrylQUvx/pnQYL/nDH6Uyb4+dbX1vkaYtffdS0KZ/TCw0zepHTUICA+mXQEP1NqnKKvtiEg9vDu2a2MVJc8QyPp2kg2xufPQ+OfE1plZb7i2cnCf3/ocqx/RTY0XGeTrK+pOzQUgvuo8Q9Z13L5Ih22JMAPGa02OQBGE7aBfHT9ax7NswiqGjredAwFZ9mZ6b52x37b8EuzRTP/gtfNd22outNUfqPVwukvOs0oZfZwdlCZLBJkLgHByAEwl7g7S9uxPTAcll9qovUpTPhtHVBHvnFqemAkmMk14HTEh0CF4FpWfIq2SamC7bGJpqRmbQKcHIDaSOi3YgIZA3ynMyHM787m7Pah6ROuU2yOqeKaL579OULBzjO1UCrsGAGEqn6qZeFTm4+doC/BCJADEIyKHc4JbnjvDQ0B2OFGMFBHjxaQEfoMX28azATO2XQZRjXYNducSwo8is6AH22jr1MU5ey7ijJviAmrTjFSiR0/KJFCQuJAQGwzulByAIwmbGH5QwfmDJBL8+KmomAdeWWre+NWvoKCW8yZcxCz0EdAFM1AV8AzTBE6dmZMb738yZIw07s4Gd/qYuPtbbomthhtADkARhO2qPyMDF9LrBF+Mt7qccEfGTnY1zbeesRSfsvCmX9HkCPb73UQCwMz86LnaErLRTPfMrNM25Yl9K9tq7vbFefM8Kip5AC49CbTKv1y7NrQNaZhom1UGfBPDTOtZZM144fl0sYPLaugYxTjq5uxEp9jzDHaEOHZYHQRJN8gAkI3fH4LOQAG1Z2VxWYOmnAjOqz7WUVHvNHdNWxQzmVW0ScaPTh2hPNw75+Q90A0+SlPWAQOeIR2h2QdVmpKxFhS2SZgqCAUtiNQzra0/9ZorckBMJqwxeRnZIxtwnSWr0itcszE/kSBLI4x3bkyFLECWXET0bTwCXS38iFQgOYDqK+FSiy8TGu66Eka046ALe/sk43/xgiyUFJrEPic9+sXMFoVcgCMJmwx+Vq590ls8osdxhQcQjwS4EI2eLHfqJyd/9M2/zAFWsVVRIuF0/8qhKC16YprAXEXRrVY9NTrisW6Qxxn77jDUAdZKdjbZlhDDoAZlC1SRmb6hMsZr3pDjVkjvOJ+oiftnlG4dNJaCJNRBGM+8JDPHZ7uax2zoDgLwAS1eeBj+3kNccb4v+IFn9h84YwF/ztB3yIiINibEaWnxFYgQA6AFWrBKTpg1n8qAv4shD1oZ2M8BPMjGP6QwqNjsZUe73h0eqsIONIYonNj1M4S2VssnDEOpJdaQhlbKyGKmi+a/qitTYi38smed6ECzZuIdz2EX76flVe8F37y6FNSD0D07GyV01MRmIi3/3NUKI1Ng6YcffOvErd4se9nprFH1Mhmg7Ar4UUqZMVTBrws0bxtkwzo8EI89bB52Yubn9J0iGRpczviqj7vMBYx5cVHcVWCCo+AAF/FL/IZHgVQKkQOQATVYtekmQOyL0DAH1UBd7aUc88JEdhan+EtAJ/VChhpcDDkhEDb35vc5/M33/99GpjInhc6IiCAFn9B81OaZIChHkE2ShqKANfeCHWJzluNgG7akI3tH7JWqzqr6SNn1guNy8bZo0A3XdfE3UVFvrLaslAOorNx6WSoeFvrtWObX04utP3BV64MYPx6KHpfHrO9MaYZwJ/EEMpwavwVAtf1fyiURqIMJeB5zlDxNYSTA1ADhhO/oiGdgC7U7kps43xu4ZK8kGNTBcsmfoD2v1hJWYxNGTFgXAtFsuIqRnZhtyic7kMvzCgoQm+0oWvDj4iKD2MlxYOSWehkdCVSArxHtlyuq2LJbqRFU/rICKzl3R82LXgTOQCRVY6tUmekj+sAhR9WpPT2Cl4+oV5ZgYSxeHLvrzdd/Qma+zXPY/Uns0+KlgtnzgGb26ExBQs6sdr26Jxf03zhdFo9cSIbNWe4KFIjiKQYRkCw5YbJDiKYHIAgUJxwSo6ha8wjl+clKbGHa0OXLJmGyUR1HwuW+3ZpTChpuPEWOGx4ek6fuku019WWC2e8wLneFe+36C2h4yiB9R7huaBV4fS3iYiBBMr405BebmAJJDo2An6W6P1LbCIiy00OQGS8bJN6x3a/HI//lRqFRdGCpY+/Gq6sk9slyI1xPg03fR3pNJ2JmbgOX8A5R/PCWd82P9Dkclg0Cx83d3XL4ZBZRxqyiynCH0gYfPALx+/F7fYvg4sh8dES4Ow13vmhHdFmjyYfOQDRULN4nsx0XzuMND+uSM0dlZ4EudFN2Ad6H/yYLKhqi9xLsG1x/7ALt0lCvtJXgYluo3XGb4XKrtuzHfMhvtY0va9kcNqMGaU2qTYHqKkVOsAIZ5oQ4DPMNowcALOJG18eRzCdArwzN1RRFPa6z6pa5x+hsKOTBZXMZsW2xdOq9jCIUAc7JG+1cPqLeiChI/oBnoK+bgjWgqF+Ps9f5u3WrGDWf+xQR07SkXcf9xrsoZgA1qvUVbznONOXapIDYL0bISaNhg6cMBj95dfEJORoZszI/mfB0tzno5WlMe8Y5FUR0OJkT0WikkBD0dpiZL5WmFvRYtGMB/SA3gXlmP4QMNK2WrLf0HTeu3nh9JGtlz9ZUusa/TSLgKZmjo5Z6rqiHK7nxsNOR42txgOglcqUcfR15pc7fzVToNcBpovOC5blxdQ9nZmejVUIfHLM+qBbA6+OPQuLJn4WsywLC8CEAP7zPWNk8KBsfLpaWNVIVMN8EP2hFgtnhT2PJBLhlDZyAuKTSR8i14WR56QcBhBYz7qN64GeMdPnA1EPgAG1GS+RaCPnoWwVjT/E8Ptibfwlh70lCdMha7P8HtPBmRerC6R9jnZaYZzAuPgKBA/qjvkBt8DeVTFxi2tmvpoL8UdE9OtBjX9cK+LEwqkX4EQm8TrDWW48Gn9prqMfpvGqz3iUi/j5aQihu0JF2YKLtwuW5l0JWUo80mGDJ1wldPa6Ct2Y4HcsKJ6oxE4l+pggZG/GmGtQE6NRlBzaURHR0Uit5dbQL3BdzGy+eOZ/jSyIZMdGAL0Acg7GpbFJodwxEeDsXdZ1XF9yAGKi6O7MQ4b4micEqrr+T1ZA4oguWNfC4tyvFcg6JiJzUM7fsBvhbcdORPtFsO+1Bt6O8+f7Dkcrwq75dg1/sLXH778TzsAA2NDdYnZ8IgRb6RHan5stfmq7xXQjdYIQEOsntmfCsx6X1MQKCVIGnaqTgJ95RC/eJVvFkuk6Cwp10RvqAp23DwE0/uhmZyoaf3QJiezC4jyljb8kqQc8oz2a/xp0KTSIiSxnp4oS/3jIkB9XHSfNf0KuEZZLhWb8PGTU+ULz3AFn4EpUWh+cM/tvWccKkfVYbvq87gmsPKlg9peuqgwHGMu75WxBL4CMvOjYCbaWribOZ/Au4+PW+Es2NARg6TukfuUyB024Ao2AnDkec11CwEd7Srb8aiU2sKm/5MhTZKZPeBS5fJHnPCFHBddY1/wluVtOuOLCE7sHP9TI4634Dd7Ar8DKjcsQXed81KXqt7oKoF2DYab3MHHo/zy6eL/J4hk/uxC3o0wWX85OYkcOrcPQWkdHGWZ9Y75nCRUdeef49mTG3GhYn7NzNezf/4EGDTxJ8CD5WQqsrPAI3nNe8cQNCmQFFZGVlZVUeaiJnMV/btAEEZ0Ury8oylOy3DGiYm2QWKSleQ40OvWMQAI776XKpJdbch0zQ3WWjEnGidA/EX/1yfAaE/GRD4AKdMuUYWfwSvyuxP+H8Xsf/t8rNHajp+ImrL74qkVSxVY+Zw6FkbVB/Ueqovh0ym+Yrr+DfNQeRAovuvT4C2M38+7j4x6VkSo8ugq0RK5h6RNm407KUqGMEOLRguK8x1XIqkvG0EHZt3DB/15XmnCvYbLirZis+I9w07sxHXpd5MMm6mNBUS49I6KmZ5+MYv3kaZij86B9NLazpuj67z7uPitYgN48OuxIALP+L8KTfbgi3T/7+UjCFEWy6hRztMH+d52JwrwIR2J2RoYvNczklIwIEIFQBLacPQ6XZJRAOowlsJollKvaoTVmTckBiBmh+QJkV7pg2mKUrGJJmC50PnQlYtObZYnm8cqNisoUlHe6VuGntxYFIEmEuwnwfv0C054pe/rnQ5hJQodRBPYzHrgD4/6mPWvrM4QcgPoIWfB65eEmOVii30mFaniLnl6wbKKpW9POX+z7CsONcuWCimPs3f0nnKlCEMkgAm4lMHzghGu27tIXLnqpnPsD5AMYcB9gY1MtHSsvthogO2qR5ABEjS4+GYcNGC/3kn9IRekY3N16WC/1qZAVqQw90ZOHPNsjzRckfYrXy+VGOnQQASIQBYHMgTm/wpLOvyFr0tYdOnvmzQpMByAnIAqUdWQRo3mPhy03X4kcgDqqzGqXsM2uV/Cqrv8EBbphFIFlLI/TpiyFhb4jWHqkxJGRAYaGpk+4XgETEkEEXEVAziViXLyM5v5YfI4PNgbYinfcsDGlSVXNRR7vnj3HpNIiKoYcgIhwxTfxzm3++7FQp7cKLTCDfiHW0cd157lfQvoKJRvEIOb8LDk3QgUbkkEE3EBg6OCcblgI+hJsbVTb3nfW+9nz71pmqLq2enb6vZx1HY8hW2se5ABYs15O0ApvuOfCS3/0hAvRnfhJKw9YYiaq4LpcDhP76wbn51QeajwmOhyUiwi4iwD252iP/Rqk8908lOVvrvOzlz6M/U8zlHwXnP8b21cxOF5x/sPha3b40HB0inuay31vexufWt4OirRnutYeXWTtMenuDExca4JzsqtMfpod/V92x+/HdUTP4wfx/TC6tr8TTHyvaeJH/P6KBTyfncyabS4c2jvavyaOEL35kJ8CeTEfGPsfnv/MlH0xC1IgoGDp5I3D0nPmgJeCdbE8Z8SQ7GfnLc5TMbdAgXUkgghYj8DwIb5z9ID/LWhWb/jwf8EB0PCa+NsLVIw6Wo+FgRotRuOfyfv6/AaWEbNocgCAMK3g9SYVHr0qlCp+Xo7YaJ3QiMugaWhz8d5ddaDZDH3AGai63vKXpKKr/CUws6bq0HS2g+2tuHnhKxsY52sQlO0txj1vv3jPVTt/SVD3vwj3m4mJf3J3PhXHX/KLcpUE4lGhjJRRrpX7EvXEP+Br2xhlpgYCXMYzuDNGOZSdCDiSwPBB2afpgcrX8bwK+2/txfcr2Z4DOrvrqiSm1fkYdCSyaIyazbqNG23lN/9qo1xbnbcWvtYdkU7/IOOno6nuCSAq1tRXcw3nf+lZfI6b5N96QF/xz6HXrQ2WaeRgX9tK3b8BFdU02PUIz+31e/XOixZNCsvxiFB2TMmHDswZwLkojknI0cyarl0xf9njb6uQZXcZFAnQ7jWoTv/M/r6TmCfwLp53HaKR2vVsDxvy2ySWSK+NofDJ2NoP8W7jnwyVwGrnXeUA3Lz4tbZY3vJHvNTL7VS7WKoyOPsSzsgKjx5Y+veh139drVtmeg7e1sUt1b9j+R/ORv/8pROfjkWGgXk5GivZaF8Wexl8o564s3thYWG0Qy6xq2ARCeQAWKQi4qwGIma25BX+d/DA7xyLKme10diwW5JYw2RXNR3hINtftc7fgkv96lLeFb7czYteuQ5d6KOZLq7CbWv2m35d/P93TbBzoVu2rnnG3Vz42stM0+ee8t//toTDoqTxl0t98pfmWrXxlxwE8+gjmV9bBy86xvtSdPJUtBoBmTP/B5i+EQF3EsjIGNtEK/e/jL+rmBp/Se+bn3Q2cVkZS782kXU8w5qPUtNrmbM1TAv8AVv7HntxM12HKAt07CoArJnXbl748u9uXvjqGoznv4wxr2vByA53rIbG+gap884evYpKW50UZdX+LxscixK/n8sG0dLHgsWTPse0iQIVSqIv7rGMP41vo0IWySACdiUg98rQKhL+icZfyfJhyeHgEcHm/L0i8OnWQDF+urmXTQ7jzmbeil/xLjm2a/xlXTrOAahq+AtfvWtt20uw7az2V9jYSxpqx8OfkuLZd157tqtHL1ba8pf5hdHYoTP+0KLluVujyWt2HsT2z0GZuxWU21jzapMVyCERRMCWBMakjUnhlZX/gvKXKjZA6LoY2u22nHQ8Y6+Ac/GtYvl2EPc9lJRb+t5rpdj+kYJzlANw4+JXuq095eL/ww35NN6ilcTKjxSoEen9qalsX/uObHe3Hqyy0QkxO+oukrMP2rTzLKg7kXWuHl2emK1IowFDB2b/RpEsEkMEbEMgIyMjoTS1wQrs9dFXsdKYqsSHFxTnLpZyefeH32MsAaumxGP4Wa64LCuKk8v6ZrNkTyc0/tK5svXhCAdALuO7aeGrszSdf4zauMTWNVKH8pUNG7LdXbqxA2edzXRvWMPk5ZqfDUGviF6HWMtdat3OuxjDFh8pUIxzjc9MS0uzw9CPAnNJBBHAsmbc756Kk5bjRehG1Tzwdzm2oGjicS8UvNuDJbxHtg+hULqgTCVbfavWW4k8If6DF8seVW/9HcYeUiIzzkJs7wDIcf5yTd+EG3MUWDr/QY+QQCVt2rLdGBYobypjEdV1CN/85bmb6kphxWtVDouomrMQu+MiWI8WDdtnWNFO0okIGECAt2zQvgCD03eolo1lujmIIfJEKLm8R86XWAKH+UvsNjSUtnvuhLIL59fDsUlj3cdfzrtlf15HOttdsq0D8NvZ/05CYJ25R8f5XTfZK5CYyPZ26swOnH0OVp8Ercb1euLup2x3Rx5VOL944sdw6pYq0V+wPLkMSoksEkIErEuAY3Of+Wj8hyhXUbAZ+UvzcsORy3uM/zvi33dmXL8ZDecH4eSxaJpPMBm7H4L69IBj87wdAvtEyjFoyxGpELPTX7/opTMSUj3vYgTK8jPbDWUjewNat2G7u/dgcp7AsUMwP8b+hth9HbymB8bCpr3H7Ir+SzNMLgzr4RV9EZSTCMSXAPYLmYrx+UzVWsChmLegODeiUN2yseTdJvwTDeclaET7QqdX8Im9R0+1cSfK81cNY+j8anT19+A9xq10YsNfbbbtHICbF72W5tW9n6Kb6cJqI9z+vz8lle3B3IDy5i1+QcH5NPkGbXcu85ZN3ovQyT5FdtyTOSD7AkWySAwRsBQBRNKciB6zBw1QqrhNO68cXo36QCP6DhrT36L9Px1DA6Mh6L9RCzMu40a8UD7MErynyWEM3nNcXHdKNc7M4yXbygFAl//9mG36HDy0xsebQb/kpMC9HTqyg6edvruMeSY6hcjew5vz8QbyiQJ7EF+Bz8P8Alvd8wrsJhEOJ4C9QsbghXuCejP5XzEh925Vk4h59wk/YAx9FpyBX2Po9ny8xE2CzjIEekC97vVKxGx+/j7ij+FZqZ0PnTrz7uOm8s4P7ag3p4MSwGm0wYFddfDm/yg0lR866iGABnN2rx8+GKPqD7ee4gy/nDkw51d4c/g/FBTz/YpRk8GIiLjUcKUtUgCFArZIRRikxrCBE0YgeBbmQik+OHtRT9h1uxnDiGKdrynTvJdiMtPlsOIyfLrio3r7wXI8PT7DcMS7eIl8iyVW/Afr9w+jHFcfMT9QjaYnt+Ztcmr5QvgA6UaX5ST5cAKeSW5yYMDKfv3i4V0rRzl04ITlaLz/pEDwrmTmbT+zyLdfgSzLiyAHwPJVFLWCwwZlD8RzcQkEqO3VEuyNMu69qajIVxa1cjFkFGsKEphnVzuYdR4a7fMgCh+O38e2YG+A703xaYgPHnXYgr1qS3aGpXm8BKewLbvYhsZ+C7Yv3AwZX7DNZ2/nDnkWwlZlR1iLyZWVFqGgqsa/bcVK3OS3RpjV9cnh2f2x/EBjnrZiRX8nOAGBBP0Br1+7CRXbJMbKPamMBx6DjHtjlEPZiUDcCGQOzP690PkiNG5qG3/G3tcaeG8rmh+fxl8C5b2HyvDCXx79vCTP0WEMAdU3jzot0epXvflzRo1/1FT5nWUHmixzwri33MJYcKFmJr8QI4YOzukWNVbKSATiSADd/lhex59F46/2BY6zdegdu2H+fOoaj2P1mlq0ZR0AjPlPpW7/2O8F2ROw9pRL5sUuKf4S2pyRMBNafKZAE48WEHLc1PJDYApsJREOIjBs8ISrMOb/HExSPUb+mScQuNotQ2MOuiViMsWSDgC27x0Jq4xY0hITLPtmFplVKyjsa0CV5ujJ8AuhjVFhBh6ivx6WnnOnClkkgwiYQWD4oOxLRIC9gLKSFZf3pca811Qtu1UsmMRZm4DlHAC5zh+TN2ZbG5sdtePTblr0qu2HUwqKH38T036eV1EDgomnsu7y0ZJSFTBJhqEEMgfk9AgI/hL6rOTEN5XHtx6PuHp+kc9Vy99UArSzLEs5ALcW/PtsLNFYCKDUNav+rtK4YMtuW/h6R/WizZWoaeI+3CCY7Rvz0boyMaBq58GYlSEBRCAYgYz0nC5ME6/jnm8a7HoM537gmrfvvMV522OQQVltTMAyDoCM7a9rnhVgGessbxtXh+GqNwow/W83L/5HI8NLMrCA+UvzvsOepJOVFCHE6Iz0cR2UyCIhREAxAYT3PVdj4jWIPRrmU1kBu7UAuzp/ie8bZRJJkO0IWMYBSEz1TAe9nrYjaD+FOzCR/JT91D5e471HvE8g7vkXx5+N6leiJjxzospJmYiAgQQyBvhOx1v/6yiitcpisHB+P9P5tXbcKVQlB5KlOoBElETllr54oxseZXbKFikBwe6+ZeFr10eazUrpV670VXiEyFKiE2dX4U3rd0pkkRAioIAA9q04RdMq34aoMxSIqynioIfxaxYsm7iu5kn67k4Cce8B+O3T/8YkLE19KEt31me4VmM6gFiYtuiV5uFmsGK6+cW5r3HG/6lCN7xpzezf/wEZYYwOIhBXAlmDxrViHo43f36WYkWOYGe7m+cXTVytWC6JsymBuDsA3tKqjWva2JSfndVuWy64mnH0eFLQPKNRvIqQpac18CTL7YfpIAJxIzA63de0knlexUoX1ZN1K7iu356/dOK7cTOOCrYcgbg6ALcUvN4Fb17U9R+/2+LuWwpetfW2ykcnMT2hCOFD9wwYJ2OP00EETCcgl6SWMf9raPx7KC68El1+afnLJr2sWC6JszmBuDkAVeFpNb0A/NSGs7R5hZisvqZrbLbdQwWnlJSgJwObf8R+JHk175OxiyEJRCAyAhkZvtTKBP+LyNUnspz1pkb4ADEwvzhXyqaDCBxHIG4OwNq2F9+J2agXH6cN/TCdAHpgLvi47UW3m16wwgJnrJxRiremB1SIxNyIm4YNHH+DClkkgwiEQyAtzZeoVVbK4FaXhZM+gjR4xLJhBUvzno0gDyV1EYH4OAAI8o+tXR92EWdLm4q6mCh3XrS0kvUot6A476+MCyVdnIJrs9LTfarDrdZjAV12I4GMjIyEFg39KxH99Leq7Ycz+8CColwZWI0OIhCUQFwcAMT6vw2u6flBNaKTcSDAz2tySvkf41Cw0iLhV94LgeUKhJ6dLPz3K5BDIohASAJpaWkerfykYvRe3RwyUdQXxLiCojwZW4UOIhCSQFwcACz7GxdSI7oQFwIIqjMeYZgxImDfo6Ao90tskzpLiQWcZWem+9opkUVCiMCJBHiLBu3zEfT8zhMvxXzmsQVFeVNilkICHE/AdAcAb//XgWpvx5O1n4Htb1n4xjX2U/t4jbWUqmWlPxx/NqpfKUz4Va0uiEoByuRcAtiJUk42vccAC2eh299ngFwS6UACpjsA6O6S67bpsCABwXXb1838+b7DCA70kBK8nN2OCIHSYaWDCCgjkJmeMxnj8/cpE3hMkFiCxl/JdtnHRNIXRxMw1QG4efFrbRHd6ipHE7W3cdfetPDVM+1tAmP5RROfgQ3vqLADEySny4laKmSRDCKQmT7hUSxZNWIC9PLW7RJkj4Kc+U8HEQiLgKkOANPFXdDKE5ZmlCgeBNDe8T/Fo2DVZXoEHwmZlTHLRUQ2XtlKTi6kgwjERAC9SfI+8sUkJFhmzl9o3c47GPE89GCX6RwRCEXAXAeAMUc0LqFgOuO8GGD3yYCyHuYVT9yACYH5KuqEC/7IyME+9F7RQQSiI4Bu/8GYYTsjutyhc+F1/7WEhvvvROPvD52KrhCB4ARMcwBuLXytO1ToGlwNOmshAufctPAVR0zSTKjw5IDrTwrYNqoM+KcqkEMiXEggMz27P3rm5Xp81ats3ipn3lvmzJmjYumrC2uGTDbNAQhwcQfhtgcBRGm6yR6a1q3lnD/7DmJMI7vuVOFdhZy7hg3KuSy81JSKCPxCANv63oYgP0vwS/Wz9kMt1XtLUZFPxUZYVF0uJaD6pgyJEa4vTf4LScdyF260nEZRKpS/NLcI710fRJm9ZjYudDEXXa3emifpOxEIRWD4wAnXMI0/i/tP6T2Dbv9PeIX/erniJVTZdJ4IhEPAFAcgreD1JlBG9Q5X4dhHaaIiwLvfmP/mKVFltV4moTNdTggMxKwaZ+fv2B7IjFkOCXA8gcxBE67QOfsHDE1Saqxgn3v1wFX5z0zZp1QuCXMlAVMcgHIuZNcpzf63zy3GuTfwG/uoW7emhUsnrUWKRXWnCvOqEHnD032tw0xNyVxIYFh69kVMr2r8k5WaL8RXekC/Zt6yyXuVyiVhriVgigOATVr6upawTQ3XmLjYpqoHVbvS40WoY7Yn6MXITjYWzJ8bWRZK7RYCw9PHd0dY7X+j27+hYpu/Yzzh6sKnJ6mY1KpYNRJnVwLmOACMXW5XQG7VG+OMlzjJ9sWLfT9jGtYjKmwCm0FVb3kqhJEMxxDIHDL+fJ1pb8CgZoqN2sk1dvWCIt82xXJJnMsJGO4AHN1mtpPLOdvR/K5pK1Yk2lHxUDq3PsNbgGurQ12P4LyGtzw5IdDwv58IdKKkcSQwfIjvHBbQXoMKLZSqgV4rBLW6Mn9J7halckkYEQABwx9gjU8tb4dyHNWQuOTOSSjb3/hcJ9kqI6UJvWrLYLzEx3z02rHNPyRmKSTA9gSGD8r+//bOBD6KIvvjVT2Tg3AqconKTUJQ/4pc6i6Kq4CugC4Gr4UEwYTDQFBW/srhaBJRV0UIEBIEAqyrwOoKuip44LWrcv3lkEPW9VhRFg/OAElmuv6vA7gBksxV3dPV/evPJzDTXfXqve/r6Xpd5/l6oOJNMqSFZGMO0Mqc/SoXtZIsGOJAwCBgegBAZSQDtZoEuKY5ruWmaHHuR+SNxZI88tiYoQ/IfeOTpBjEWENgxIgHm+mCU+XPW0su8YiuiRsLF+VukCwX4kDgFwLmBwC6hgDgF9xqfeBM76SWxiFqG/DeT00A+0NMXVuys/2a5+HaEuCacwlkZvrO8fo975CFsp9xRzVdu7F4Qf6HzqUHy+xAwPwAgAvZPw47cHOFDrpg5zvR0LlLfHtploOUipszNirrrkmOWDrZib42y6bMzIkNtXL/G7TEr+xWsnJacSptzuJH1pilO+SCwEkC5gcATLQ6WRj+V4sA9T86dr57s9Zxs8gbmyV4ROM6n0FyKBbA4QYCQ4ZMqOspi3uVbL1Msr0BWjZ4SOGiR/8mWS7EgUC1BCwIALixCiAONQnIHtRkGwrG7mnUxzqGFJIxIPCKrPQptOELDqcTGJ82vk5dT+KrgrNfSbZVp1040+cuyl0mWS7EgUCNBEwPAOi1SPaCGDUagwvSCTSRLtFGAk/0sS6VoRLn4gmjWViGLMiwJ4G0NF/8kbr1lpN2V0vWkGaVstFzF+U/J1kuxIFArQRMDwCoZbR+rRrgop0J1LGzclJ008UEagOQsalKM095vJSFhqTYBSFSCaSlpXka1/Mv4Uz8VqpgEia4uH/uwjxjjQocIGApAdMDAGrXQgBgqUulFiZ3LXOpqskRNndx/m5aqjpfhjQhxNjMjCkXyZAFGfYhYCz41Lhu8iIKFAfL1ooCiklFC/OflC0X8kAgFAKmBwDoAgjFDbZN4/wWAEL/U2nc0/Rf9Cut0bavNLtgNsnCgEDb3tJhK8Zpwac5lOvOsHMGyUCDbJ8uLMl/NEgyXAYB0wiYHgCYpjkEg4AkAsuX+8oF07Ilifv1yPQpaZJkQUyMCYxKn/IEqZAlXQ0hZhWW5N4nXS4EgkAYBEwPAGiItYz+1TBMQlKJBI5JlGVrUUUlj7zJOP+rHCXFU6NH+zD4VQ7MmEkZmTEln/rnJ8hXQJQ0bxM3Tr5cSASB8AiYHgBojB8KTyWktg8B4ZoAwGCuBzw51HZfGjV/zs7TjwQeiFoOBMSMQFbGpHtpeN6D0hUQ7C8/lX4+wtiXQrpsCASBMAmYHgDQjwgBQJhOsU9yfsQ+upivSfFi3zfUYvVHOSWJCaPumoxVMOXAtFRKVsbkbOqff0p+oXxF8zbe25cvXx6QLxsSQSB8AqYHAOgCCN8pNsqx10a6WKJKXP0Dj1FBuyQUFi90USBBDkRYSICa/TOoFchY2VHyId48xjy3GQtQSRYMcSAQMQHTAwBqATgQsXbIGFsCnP0QWwWsL72goKCM+n3/IKdkfl3WsEkD5ciCFLMJZA2bfAs9r56lcmTP4vh7aaDs5pISn6u61Mz2F+RHT8D0AEAI/lX0akJCLAjQHOX/xKLcWJdJ87JXkA6vydCDCz6Tdo1LkiELMswjMCpj8k1cZ89TCR6ZpVAk8Um5Vn79kiVPRj+2RKZikAUCRMD0AID60j4HaTUJCKH9S03No9da83iNUdpl0UtiF9CucZJaFCRoAxFnEMjKmHoddVW+QO/93jMuRndic7nHe8OCBU9gHFR0HJHbJAKmBwBM06NfYMUk4yG2dgLUAuDa4G3OfN8/uWDGAkEyjokjhkxuI0MQZMglQGs2XKkx3Zj+mSBTMi3u/7nGvH3nz/f9LFMuZIGATALmBwAyVliTaTFkhUxA14WMwXAhl2e3hIEEbx7p9LUEvep4vWaMKpegmYtFZA6b0oOWgX6d3v7rSsbwRZzm6T2nxLdHslyIAwGpBEwPABIaHPySNJbRlCrVcAgLSqAisbTB9qCpHJyguNh3hHZquV+KiULcPGrog9dLkQUhURMgX1ysCWGM85C7V4lg3/oD7LpZC3zfRa0kBICAyQRMDwCWDx5Mc17FNpPtgHjpBMTW5fdecVS6WMUEHt+fXaySobbgfGZ2drbUpmYZerlNxt1DH+goNM3w6dmSbd+r6azPs0vyjJceHCBgewKmBwAGAZoJ8K7tSUDBUwiQz9aecsLFXwTXaVU4VhE1As7b+w81zIlaDgRETCAzfXI7j+ZZQwKaRyykmozUjbCf6bzfnCV5rm41qwYNTtmYgCUBgKYx4weHQyECGhf/UEhdU1UtWjhtG81mkbKoD1UUU8cMn9TKVIUhvFoCI0b4zvNw9iZdPLfaBJGfPOhhvM/cxbn/F7kI5AQB6wlYEgDEB7T3yTQsf2m9fyMtUXj0ygdlpPkdl69MK/ORUTL6dZMCAW6sNojDQgIjh/iaegP+1RSAyZ6NcUQI0X9OSe46C81BUSAghYAlAcDyrOtoNUC+UYrGEGIFga0vZfX73oqCVCnDmMtN3SIPSNL3ttFDp/aWJAtighDIyfA1Yl7/G0ywTkGShnuZtpFmg4oW5RsvODhAQDkClgQAlVSEeEs5Oi5VmB5qf3Op6bWaXbQodwklkPKw1zUxKzMzM67WAnExagLZd/oaHBP+N6nyvzRqYacKqBBM3FJUkvfGqafxDQTUIWBZAKB7xFJ1sLhb04TDB6WMencgRaEzfg9VJhI2dBGpnvImYxzIyDYmGUswV8T5X6EV/rpKVoq6M/nQopL8VyTLhTgQsJSAZQHAq8P7bSLLNltqHQoLm4D32DF2zqebXqEtUR8bPtwne5pU2PrYLUNxSe4WwVmRDL1otbiHM3//YAsZsiDjVAJpab54T7n/RTrb69QrUX+j2Zx85NyS3BeilgQBIBBjApYFAMftFItjbC+KD0IgcS/tAMxZPc7YxDi//2sEAmcCo7X9p9BZGTslNtC8/NEzS8CZaAgYXSuNk/wvUldWv2jkVJNXUNB2T+HCXGPHQBwgoDwBawMATXueiGE2gF1vG3q8Je2tsnopAoFqPVX458f20YVJ1V4M+yRPz0qfJPstNWwtnJIhLS3No5U3XUxB7I2ybaKg+IGiktw5suVCHgjEioClAcDK4X1oGhUGA8bK2cHKTdj3M/OWlZ2Z7GQgEPD/a9SwKQ+PuuN/zzozkbvONG/tnU8VwicSrOZc488YFZcEWW4XwRsndZxLEG4zAYSvsCTvcRPkQiQIxIyApQGAYSUXnukxsxYF10qg7p6gM/8a0pznqSLO+43RNeDmQMDn8+m0T4AxiE+vFWooF2mEeuN6yZmhJEWaGgnwkemTZzPOR9SYIsIL1Oz/zNySvIcjzI5sIGBbApYHACsyr6MR5hyLZtjslogrPcwS9+8PTasTLQIi3ls5RsCtgUDhotwN1AqwMDRoQVIJlk+j1s8JkgqXayBAAek0avYfVcPliE+Tf+dTs7+xFDQOEHAcAW8sLKJ91qfRSOqXYlE2yqyeQP1//9vYtKH6izWfrU8PyIkUCIymB/AcGhz3+In+8ZpzOOyKpgcmBjTPTWRW4yhNO4v4GdsPj4xSDvN99ll8w6P8Qq5rqT+u/ZR56yWxuHp1WVz9JKZ5vYzH0R/XmCeBliHgnOkVFUwEBNMDfhY4coz5jxxl/qNlrOLAYTZjzLbbmMZ37UvUt/g6dy6PVjcz8hvdUtQyNVG2bEKzuFkrr9EyE/YPQ7YukAcCZhCg53cMDlpSbcCzq7dQyZ1jUDqKPI1AXGkpa/KplIUaD9GT0nWBAAU/2fRDmnka1ki+6kwXl89dnB/WRkwFG3ecq/tZXyrwCs5FF/LBhfQ5PhIFaslTQTZuof6OddRs+F6Ai3fHd00N2mdUizwpl0ZlTMqhJnrp3Ypk60vNWntvpa4eCWs+SDEVQkBAOoHYBABkRv95q2/nTPxZukUQGDaBs7dtZYn7jIHt0g5XBQLGAL6z6yavpx/TJVETFGx98zbeHpVjDGoQRm+7fOaGz6+k4QcD6d20DyW7uIakZp/eSi/HKzRde/me7skbaH68pW/KWRlTRtMzZBYZKfk5JlbF1T84sKCgoJoRsWYjhXwQsI6A5B9OGIofbwVYQzmuCiMXkkomkHDwAGu8xbT1mSoDgTrM+9gzJb4QBxhINtAicSPTp1xJI1w/oOKi/k1R0/NdhQvzFp6uesH6nSm60G+jAu6kmrb96ddj/P1behN/TuOeeWO7dvjCbF2y0qcMpXjDYCR5HJN4+xiLu7GkxHfMbBsgHwRiTSDqh1U0BgyY9zq9uWgbSEZMxiJEo7sj8lKff5PNn7K4w4fNNscVgUBW+uQlVHn/XgLMvYnMm2wETT4htEbrd95Ib7r3kVwV1gsQ1A6wWvew6eO6pKw2o1WAulx+R2UspVBL7nODs4+0Ot4+c+b4TP9BSLhHIAIEoiYQ0wDA0H7AvFVG/11O1JZAQNgE6n63mzX88l9h54sig6MDgREjHmzm9Ws7iU/DKBhVZuXx3tkpd99qNM0YI9CTo5UXk/ycbRM6n3buV8nPDx7MpSwANnLY1L5M6CvIngSZNlGLyqc0CPMatw1ilckQstQjEPsAYP6K+kxP3E7oWqqHT12NPbTgT9ONGxjXpTyXwwXh2EAga9ikCVzwP4YL5GR6emNm9dtfwJr0vITFN6h38rTq/++kB83D2V1TXoimRSArfepvONdfJRiJkoFs8eiB3rMXT/tJslyIAwFbE4h5AGDQ6f/sqpuoSc+YFmgLfWztMRnKUdN/4+3bmLHyX4yPg/TmVeikMQI0eM+75yv/RuJ6Ubhsk85typr+qgur0yTaGYXhlmxNevpxf0RdfjljuyWHNcvB0C5r6JTLqc9/NT0hZEdFu3S/flXxnx6N+YwGa7yAUkDgvwRsU+EOnLdqJlUG2f9VDZ9MIyDErJb/+OB9GrSVT2V0MK2c0AU7KhA48ab6Vqjme+LjWdMru7CGndrStHzb/CRDVT/cdMZqE8V1ePzErK7tDoSSeXTGg5foTHuH0spegvobj0f0mj0//+tQ9EAaEHAaAds8bTKL1sft0X56nwD3dBpkm9mzJeFQ/R7L773iKL2tav/5qmKQjQIBo0migAbAPaP6rAFalnY5va3eEsz39Vufx5pf3Y156yYFS+qs65ztFgE2MqdHJ6NJv8YjM2PKRRoTayiB7GaR3Vzz9ipc4LN0EEyNhuICCMSAgG0CAMP2m4pea6drHmNWQNSDqGLAUoUiDzFN77Zy+PXGQLVfDmP7VF7W7HZqYp1MJ+3QIlAZCOjxFdOLix8P6S3xF2Ns8mH0sEnn00zX7fS2W7c6lTSPhzXr1ZU1SrXbbL7qtDXtHOFhcxocTpwwrHebM6bd0Wj/DvSAeo/StJCswQ+CB64uWjhtm2S5EAcCShGwVQBgkOtf/MYgagZdTh9tp5tSnj1T2QC1vd70SmbfGt+4bBgIGIOyZqkaCFArwCS6i/NOd0V8w/qs5fW/ZomNZbdon16SMt+3sIAYNK5n6q6TGmcO9V2gaX6jRbDVyXOS/j+gc/2a4oWPGuM0cICAqwnYspIdOG/1GHF8hS9XO0em8dS1fO+KEX2NKZdBj18CAaZPoU5pO7yiKhkIpKX54s+uG9hCc/g7noTeoN0FrMU1PZkWT+vw46hKYB/trnjHuO4pb4wcOqklLe9DlT9vWzVBtJ/pYVca0ES/4gX5H0YrC/lBwAkEbBkAGGAHPrv6MTM2+HCC08K3gc9deXefsHdKQyAQPunTc4xOn9xH52yVcb7xpamsyeWXuGGg3+kYQv0eCBw9NvXzBS/dSUsMp4aaKcR0RyndDbSt77shpkcyEHA8AdsGALQznbFh0DzywHDHe8FUA/myhIb771g+eHDEE/4RCETnoNHDpq485/L/6W8EADiCE/h50w629+8b6RFgDBGQcpSTpJuLSvJekyINQkDAIQTsGwAQ4Kt9a7wNWpYvo483O4S3pWbQQ29pYsMDd0ZT+VdVGIFAVRqhfTa25m20L7CCJ8T1Cy0HUhkE9m/7gn3/7ieRbFF9OsAAdcHcXliSb4wrwgECIFCFgK0DAENPIwio37KimH7Ew6rojY/BCHD2QvNA46HFWV0rgiUN97pdA4G4Cu/TBc/5DoZrj1nply0Tnj1tdj5H41luNasMJ8vdv52CgDVRBQHU+8KHFJbkYtdRJ98osC1iArYPACotO94d8BB9Nv5wBCFATi24dPdHObVtKRtEREiXfwkEuJhKGdqFlMnMRIL9SKPuZ9shEDAq/+9b71hM+txhpslOl71v6y625721kZhJmxLxkYWLcosjyYw8IOAGAmoEACc80X/eGzkU0T9FXzU3OCcCG6nbVDzwSma/xyPIG3EWBAKnoiMf8Jnrd8yns2i1OhVNRN9+WLuZ/bhuS3h5BZswd1Ge8azAAQIgUAMBpQIAw4aBxatvptB+IX3EYkFVnSrYQaGx9FdG9H256mkrPyMQOE6bKv/JFATkWsne6WV9/87HzOgSCOUQnD1YtDBvWihpkQYE3ExAuQDAcFb/ojdpkRD9BRrkdrmbnVfF9h3cExi04q4bbLGymZsDgRnrdgykkWsvkW/QSlXlBo32o9B19s3Lb7Mj3++tVRQ1vuQVLcqdUmsiXAQBEKgkoGQAYGietmxZfNnBBk/Q4iFj6auydlR6IfJ/aKKUmF+WwHNWD+1bGrkYc3L+NxDQaewGl7qoS0QamzxGYPqGzztpeuBj0q1BRPohU60E/EeOsS+Xvcb8pcaU/jMPeggUFJbkGc8DHCAAAiEQUL7iHFC8egDjYg7Z2jIEe52U5DsaD3H3irv72H5uc+WKeEmB22gvd8cGArM/+6ye/6hGk9dtsZeCk+7zU2w58t0P7JsVbzGjRaDqQZHwwqJFecaaIdQwiAMEQCAUAso3U67M7LOSacc60RumMeBH+pS3UCBanMZ48s1P4OIiFSp/g83y5b5yapZd/FNpXCdqok2nZ3Rsd2Dj7BxS66EKr/+LURmTJ2Zm+pIMPaM5Ake1p1H5R0MwtLxJ5zZhTXteckpiqvz/1KKNdwSdROV/Chl8AYHaCSjfAlDVvAHzX09mujaLzl1b9bxzPvN1uhYY9+rw6z9S2SajReCcpEAGdV/QXgPsvJjbQl0DtFfCk4F4b0Fxse9IuPqc6PeP2eDLcPVVPj3V+F//9a3K8QBU47/corU3jaa8+pW3CwaAgMUEHBUAVLKjV8z+81al0Y6Ck+j7xRbzNKU4esht54I9Quv5L6WF5B3zlmO7QICxH+gH8VQ4gUDhpn82LS+v2EqOb2KK8yG0WgLl+w+yr5a+/rZW56ffFhQUlFWbCCdBAARqJeC8AKCKuQOL37hWcG5Mx+pZ5bQ6HwXfRv3mj8c3PPicrOV87Wi8yoHAjHXbFxDTYXbk6nSd9EDFM+N7Xjze6XbCPhAwi4CjA4CT0PrPX92HC5FDPYR96Jzn5Hmb/m9s2vMqDWyc2+Xbj1ebvZqfnRioFgjMXLezu2C60R2j/FgaO90HYegS0LnoPr5r6sYw8iApCIDACQKuCABOevuGhX9rHhfw3k5diEPp3KkjiU4mit3/O6jopdzD5q+4q++/Y6dG7Ev+JRA4vsSwHWZ3nNE1cGK1P6Py7xF7Yu7VgB5g747t1qm3ewnAchCInICrAoCqmH777KoLqSngVupR/w11qneja96q1y34TGPg2GZ601/Jdc/yFVnXhbnWqQUaxrgIuwYCiaWlM9v8Iet3tCLln2KMCMUTARrA2Xds106rAQMEQCA8Aq4NAKpiGjB/RX0mEnrRuWtoYaGr6P8L6S+hahoJn4+RjM9optLH1AKxhsp775Ws3j9KkOt4EbYLBDj/oeNdg3RPYkIzx8NXwUDONu27LKWLjwbMqKAudAQBuxBAAFCNJ2iVQc+Rw2e38uj+jlRZp3CmJVPF3ZqSGiu81TP+qNWgEcEzPsfR3376M6YhHaJ0BwTj39K1b+kN/zt6O9mlMW3zvt3eXe/6emOqEkGK9LBLINCgfSvWsu+vIjUD+UwgQL+3O6gr4HkTREMkCDiWAAIAx7rWuYbFMhCg6aWsdVo/ltjkbOcCVtIy/um4bimXKqk6lAaBGBFAABAj8Cg2egJVAoGHSNq50UsMLqFeq3PZ+Tf2Dp4QKSwnwDW919jLOn9gecEoEAQUJYDpS4o6DmofX2K4cFFu8U+l3jZc8Cxi8p3ZXM5K7WB2EZAfKQFdy440K/KBgBsJoAXAjV53qM3Z2dkJ/oON0ml0viktAt46iax9xs2Ma4ibbXoLBXQ/az/+8k5f2VQ/qAUCtiKAJ5mt3AFloiFgLAlrtAjE1T/Q1owWgYbJbVH5R+Mg8/N6NC/LML8YlAACziCAAMAZfoQVVQiYFQg0TG1bpRR8tCMBatK8xY56QScQsCMBdAHY0SvQSSqBKl0DPhLcIhLhCWc1ZG3vuDGSrMhjMQFd86SOv6zjdouLRXEgoBwBtAAo5zIoHC6Bky0Cery3Pa3fkEP5vw9XRr3WdliROFyt3ZneI/RB7rQcVoNAeAQQAITHC6kVJlBc7DtSVJI3I5JAAAGAOo6nxbsQAKjjLmgaQwLoAoghfBQdWwJDhkyom+RNGEUDBv9AmjStSRta8pfR0r+Vi87XlAbn7UXAK/QWY7p33mMvraANCNiLAFoA7OUPaGMhgSVLniwtWpj/ZGngWNvaugaSWtKS/7QCIA51CJRrvKc62kJTEIgNAQQAseGOUm1EoDIQoK4BCgQ6VBcI1GnW2EbaQpVQCGiMXxlKOqQBATcTQADgZu/D9lMIVBMIVDYh12l2zinp8MX+BGibbwQA9ncTNIwxAbRrxtgBKN6+BIwxAnXjkzJTRgx+ins9+K3Y11XVaVbW4HBio2G92xjbcOMAARCohgAeatVAwSkQOEmgYP32i3TBNp/8jv9VIiAuGtctdatKGkNXELCSALoArKSNspQjoAdEe+WUhsKVBATT2gIFCIBAzQQQANTMBldAgAkPRyWi7H2gt1NWdSgOAhYQQABgAWQUoS4BGkzWRl3t3a05zQRA8ObuWwDWByGAACAIIFx2PYHWriegKACdCbQAKOo7qG0NAQQA1nBGKeoSOFdd1d2tOWcc8zfdfQvA+iAEEAAEAYTLLifAWT2XE1DXfM7qqqs8NAcB8wkgADCfMUpQmYBAJaKs+wSCN2V9B8UtIYAAwBLMKERhAniLVNd5aL1R13fQ3AICCAAsgIwilCaQpLT27lYeAYC7/Q/rgxBAABAEEC67ngDtD4RDUQLwnaKOg9rWEEAAYA1nlKIugcPqqu56zQ+5ngAAgEAtBBAA1AIHl0CACKASUfc2gO/U9R00t4AAAgALIKMIpQmgElHXffCdur6D5hYQQABgAWQUoTABwdAFoKj7aAAAAgBFfQe1rSGAAMAazihFUQK0X/YBRVWH2qRQOKsAAAh6SURBVEwcBAQQAIGaCSAAqJkNroAAE5x9DQxqEqCNnL5SU3NoDQLWEEAAYA1nlKIqAc52qqo69NbgO9wEIFALAQQAtcDBJRDgTKASUfc2gO/U9R00t4AAAgALIKMIdQn4OQIAVb2nCbTeqOo76G0NAQQA1nBGKYoSOO+L1C9J9TJF1Xez2mXNvk7+xs0AYDsIBCOAACAYIVx3NYHBg3mAAGxzNQQ1jd96wndqag+tQcACAggALICMIpQn8K7yFrjNAM7WuM1k2AsC4RJAABAuMaR3HQGaTobKRDWvCwGfqeYz6Gs5AQQAliNHgaoRSNDi3yedja4AHGoQ8PNA3IdqqAotQSB2BBAAxI49SlaEQFbXdsZqgBsVURdqMrZ2bM8OWAUQdwIIBCGAACAIIFwGgUoCnL0FEooQEPxtRTSFmiAQUwIIAGKKH4WrQoAHtKWq6Op6Pbm+zPUMAAAEQiCAACAESEgCAmN7JG8iCptBwt4EaPOmjeO6pW61t5bQDgTsQQABgD38AC1UICDYEhXUdLeOAj5y9w0A68MggAAgDFhI6m4Cmpf/mQhgNoB9bwO/R4gX7KseNAMBexFAAGAvf0AbGxPI7pLyHa0JgMGAtvURXz2me+c9tlUPioGAzQggALCZQ6COvQnoHjbd3hq6VzvOdPjGve6H5REQoDEzOEAABMIhMGPd9rWUvls4eZDWbAJiLQ3+62F2KZAPAk4igBYAJ3kTtlhDQBfTrCkIpYRKgAueF2papAMBEDhOAC0AuBNAIEwCQgg+c/0OY0rghWFmRXIzCHC2aexlKZdyTiM0cIAACIRMAC0AIaNCQhA4TsCoaChyfhQ87EHAePtH5W8PX0ALtQigBUAtf0FbmxA40Qpg7Dh3lU1Ucqcagn8wtlvyVQgA3Ol+WB0dAbQARMcPuV1K4HiFI+4h8ytcisAOZvuFh92Dyt8OroAOKhJAAKCi16CzLQgYS84KxmfbQhkXKiGYmJ5zWQqWZ3ah72GyHAIIAORwhBSXEigrY1MZZ7tdan4szf42Lkk8EksFUDYIqE4AAYDqHoT+MSUw8Vcph3RW2RWAEejWeUIInY0a07nzYeuKREkg4DwCCACc51NYZDGB8V1TX6YiZ1lcrJuLm57To9OrbgYA20FABgEEADIoQobrCSTy0vuYYB+7HoT5ANbtS9IfML8YlAACzieAaYDO9zEstIjAzPW72gnh30DFNbSoSJcVw/drOuuS3SPlS5cZDnNBwBQCaAEwBSuEupHA2K4dvqCBAMPJdowHkH8D6CQyA5W/fLCQ6F4CCADc63tYbgKBnG6dXqT6P9sE0a4WyZm4b1y3lBWuhgDjQUAyAQQAkoFCHAjQ+gCzaX2Ax0FCFgGRP7Zb6jOypEEOCIDAcQIYA4A7AQRMIHB8qeCd86g1wOgSwBExAb5kbNfkdKz2FzFAZASBGgmgBaBGNLgAApETMCqsfYe/H0mLBP01cinuzkkDKV4ihneh8nf3fQDrzSOAFgDz2EIyCLBly4RnT9sdhUKwu4EjdAL0YFr88+E9w329e/tDz4WUIAAC4RBAABAOLaQFgQgInNg58CHKavzhCEKAgqWZNOAvB2/+QUDhMghESQABQJQAkR0EQiUwY/32bJogaAxmQ9db9dBofx92/7junZ6s/jLOggAIyCSAAEAmTcgCgSAEZnyy7Wam8YWUDIsFncKK76evGZjqdwoUfAEBUwkgADAVL4SDwJkEZqz/7AIutBdokNvlZ1513xnisF7j3tuMhZTcZz0sBoHYEUBTZOzYo2SXEhjXtfM3NMCt14m1Aqj+c+1BwyPYzP1J+pWo/F17D8DwGBJAC0AM4aNoEHhm3Y4BNGNwDvV9t3QZjW+NLX2xq5/LvA5zbUUALQC2cgeUcRuBnG4pKxNZaUey+2H6K3eB/X7jrf9YGU9F5e8Cb8NEWxNAC4Ct3QPl3ESAWgOSac37WWTztQ61+31aGXEMLZW81aH2wSwQUIoAAgCl3AVlnU6gcs2AdTvTGBeTyNaLHWEvZ5u44HnZXZNfxNx+R3gURjiEAAIAhzgSZjiPwMx1264VgufScsI91bSOfyo4e3TcZcl/QcWvpgehtbMJIABwtn9hnQMIzFy/vY8uRA5nvA+Z47G5SbR0L1/NmT6ddvB7y+a6Qj0QcDUBBACudj+MV4nArE+2Nw5obBDNGxxKP9wrbaU7Z9to/MJijy4WjeneeY+tdIMyIAAC1RJAAFAtFpwEAXsTmLFu24U0mv5WjfPfUEDQjbT1WqyxsUnPWib42wEWWHpv986fWVw+igMBEIiSAAKAKAEiOwjEmsDjH+6oXydR70XjBa4hXa6ivwvpL0GyXmUUaGzRBHtPcPGON0m8P6Zz58OSy4A4EAABCwkgALAQNooCASsIGFsQ726zq5Um9I6c6ylUcSdTv3xrKrsB/dU78dfoxP/0HzMq8v002PAQLUhUSp8P0nS9r+jhsFMIbYfOtc9bftnh68GDecBIjAMEQAAEQAAEQAAEQAAEQAAEQAAEQAAEQAAEQAAEQAAEQAAEQAAEQAAEQAAEQAAEQAAEQAAEQAAEQAAEQAAEQAAEQAAEQAAEQAAEQAAEQAAEQAAEQAAEQAAEQAAEQAAEQAAEQAAEQAAEQAAEQAAEQAAEQAAEQAAEQAAEQAAEQAAEQAAEQAAEQAAEQAAEQAAEQAAEQAAEQAAEQAAEQAAEQAAEQAAEQAAEQAAEQAAEQAAEQAAEQAAEQAAEQAAEQAAEQAAEQAAEQAAEQAAEQAAEQAAEQAAEQAAEQAAEQAAEQAAEQAAEQAAEQAAEQAAEQAAEQAAEQAAEQAAEQAAEQAAEQAAEQAAEQAAEQAAEQAAEQAAEQAAEQAAEQAAEQAAEQAAEQAAEzCbw/xak7OS2GndeAAAAAElFTkSuQmCC;" vertex="1" parent="1">
          <mxGeometry x="738.84" y="410" width="80" height="80" as="geometry" />
        </mxCell>
        <mxCell id="4WsjM8u0ppjrJzp-7UYq-47" value="Machine Learning" style="text;html=1;align=center;verticalAlign=middle;whiteSpace=wrap;rounded=0;" vertex="1" parent="1">
          <mxGeometry x="733.84" y="500" width="100" height="30" as="geometry" />
        </mxCell>
      </root>
    </mxGraphModel>
  </diagram>
</mxfile>
